<?xml version="1.0" encoding="UTF-8" standalone="yes"?><svg xmlns="http://www.w3.org/2000/svg" xmlns:xlink="http://www.w3.org/1999/xlink" version="1.1" viewBox="0 0 16 16">
    <path d="M9.61752 11.0317c-.886041.610698-1.96003.968262-3.11752.968262 -3.03757 0-5.5-2.46243-5.5-5.5 0-3.03757 2.46243-5.5 5.5-5.5 3.03757 0 5.5 2.46243 5.5 5.5 0 1.1575-.357564 2.23148-.968262 3.11752l3.67537 3.67537 -1.41421 1.41421 -3.67537-3.67537Zm-3.11752-1.03174c1.933 0 3.5-1.567 3.5-3.5 0-1.933-1.567-3.5-3.5-3.5 -1.933 0-3.5 1.567-3.5 3.5 0 1.933 1.567 3.5 3.5 3.5Z" fill="#fff" fill-rule="evenodd"></path>
</svg>
