<svg xmlns="http://www.w3.org/2000/svg" viewBox="0 0 16 16">
	<path fill="#FFF" d="M5.026 15c6.038 0 9.341-5.003 9.341-9.334 0-.14 0-.29-.01-.43h-.001c.64-.47 1.19-1.05 1.63-1.71v0c-.61.26-1.24.43-1.89.51h0c.68-.42 1.2-1.06 1.44-1.82V2.21c-.65.38-1.36.65-2.09.79h0c-1.25-1.33-3.33-1.39-4.65-.15 -.86.8-1.22 1.99-.96 3.14V5.99c-2.64-.14-5.1-1.38-6.77-3.43l-.001 0c-.87 1.5-.43 3.41 1.01 4.38v0c-.53-.02-1.03-.16-1.486-.41v.04l-.001 0c0 1.56 1.1 2.9 2.632 3.21v0c-.29.07-.58.11-.87.11v0c-.21 0-.42-.02-.62-.06h0c.43 1.33 1.66 2.25 3.06 2.27v0c-1.17.91-2.61 1.4-4.08 1.4v0c-.27 0-.53-.02-.78-.05l-.001-.001c1.5.95 3.24 1.46 5.02 1.46Z"></path>
</svg>
