<?xml version="1.0" encoding="UTF-8"?><svg fill="white" xmlns="http://www.w3.org/2000/svg" xmlns:xlink="http://www.w3.org/1999/xlink" viewBox="0 0 24 24" version="1.1">
    <path d="M2 12c0-2.89.945-5.277 2.832-7.168C6.722 2.945 9.109 2 12 2c2.89 0 5.277.945 7.168 2.832C21.055 6.722 22 9.109 22 12c0 2.445-.691 4.55-2.078 6.309-1.383 1.761-3.266 2.91-5.645 3.449a10.878 10.878 0 0 0-.675-1.047c-.329-.473-.559-.848-.696-1.129.86.348 1.438.523 1.735.523.214 0 .324-.335.324-1.007 0-1.25-.113-1.875-.344-1.875-.336 0-.988.37-1.957 1.109 0-.187-.101-.27-.3-.242h-.102c-.348-.93-.524-1.754-.524-2.48 0-.204.02-.403.059-.606 1.238.605 2.23.906 2.984.906.418 0 1.047-.12 1.887-.363.84-.242 1.258-.504 1.258-.785 0-.176-.113-.262-.34-.262-.352 0-.856.047-1.516.14-.656.094-1.16.141-1.511.141-.364 0-.762-.094-1.2-.281-.437-.188-.656-.445-.656-.766 0-.066.012-.117.031-.152a.12.12 0 0 1 .09-.059.316.316 0 0 1 .121 0c.043.008.094.012.164.02.067.008.125.012.18.012.121 0 .297.015.524.047.226.035.398.05.503.05.418 0 1.27-.246 2.563-.734 1.289-.492 1.933-.871 1.933-1.14 0-.16-.125-.274-.375-.344a2.682 2.682 0 0 0-.695-.098c-.187 0-.469.047-.847.148-.375.102-.786.223-1.23.364-.442.14-.74.23-.888.273.055-.27.082-.484.082-.644 0-.633-.168-1.372-.504-2.211-.335-.84-.726-1.461-1.168-1.864-.363-.324-.847-.543-1.453-.664-.375-.484-.964-.926-1.761-1.324-.801-.394-1.512-.594-2.13-.594-.12 0-.304.024-.554.07-.246.048-.402.079-.469.094l-.445.625.121.02c.094 0 .238-.012.434-.04.195-.027.34-.038.433-.038.457 0 .98.094 1.57.281a4.688 4.688 0 0 1-.984.383 1.814 1.814 0 0 1-.261.05c-.149.02-.274.04-.375.06a.693.693 0 0 0-.282.12c-.086.059-.133.137-.133.23.754-.077 1.32-.12 1.696-.12.511 0 .914.047 1.21.14-1.038.125-1.831.48-2.39 1.07-.559.59-.84 1.407-.84 2.442 0 .363.028.7.082 1.008.254 1.613.746 4.02 1.473 7.219.445 2.07.691 3.21.746 3.425l.02.082c-2.153-.671-3.836-1.921-5.06-3.742C2.614 16.38 2 14.312 2 12zm5.707-2.5c0 .082.02.16.059.242-.012-.215.109-.402.363-.566.254-.16.496-.242.726-.242.11 0 .243.035.403.101-.133-.172-.328-.262-.586-.262-.227 0-.445.067-.652.192a.596.596 0 0 0-.313.535zm.664 1.512c0-.176.07-.332.211-.473.14-.14.3-.215.477-.215.171 0 .332.074.472.215.14.14.211.297.211.473 0 .175-.07.332-.21.472a.648.648 0 0 1-.473.215.65.65 0 0 1-.477-.215.652.652 0 0 1-.21-.472zm.805-.223c0 .11.062.16.183.16s.18-.05.18-.16c0-.121-.059-.18-.18-.18-.12 0-.183.059-.183.18zm3.39-1.754c.106-.176.356-.262.746-.262.172 0 .395.067.665.204-.133-.297-.372-.446-.707-.446-.418 0-.653.168-.704.504zm.461 1.574c0-.16.063-.3.184-.414a.57.57 0 0 1 .812 0 .555.555 0 0 1 .172.414.56.56 0 0 1-.172.403.547.547 0 0 1-.813 0 .558.558 0 0 1-.183-.403zm.707-.203c0 .11.047.16.141.16.11 0 .16-.05.16-.16 0-.094-.055-.14-.16-.14-.094 0-.14.046-.14.14z" id="surface1" />
</svg>
