<svg xmlns="http://www.w3.org/2000/svg" viewBox="0 0 576 512">
	<path d="M192 32h-32c-53.9 0-96 42.98-96 96v37.5c0 8.48-3.37 16.62-9.369 22.62L9.375 233.4c-12.5 12.5-12.5 32.75 0 45.25l45.26 45.26c5.99 5.99 9.36 14.09 9.36 22.59V384c0 53.02 42.98 96 96 96h32c17.7 0 32-14.3 32-32s-14.3-32-32-32h-32c-17.6 0-32-14.4-32-32v-37.5c0-25.45-10.11-49.86-28.11-67.86L77.245 256l22.63-22.62c18.02-17.98 28.12-42.48 28.12-67.88V128c0-17.6 14.4-32 32-32h32c17.7 0 32-14.33 32-32s-14.3-32-32-32Zm374.6 201.4l-45.25-45.25C515.4 182.1 512 173.1 512 165.5V128c0-53.02-42.98-96-96-96h-32c-17.7 0-32 14.33-32 31.1 0 16.77 14.3 32.9 31.1 32.9H416c17.6 0 32 14.4 32 32v37.5c0 25.45 10.11 49.86 28.11 67.86L498.8 256l-22.64 22.64C458.1 296.6 448 321 448 346.5V384c0 17.6-14.4 32-32 32h-32c-17.7 0-32 14.3-32 31.1s14.3 32.9 31.1 32.9H416c53.02 0 96-42.98 96-96v-37.5c0-8.49 3.37-16.62 9.36-22.62l45.26-45.26c12.47-12.52 12.47-32.72-.03-45.22Z" fill="#898987"></path>
</svg>
