<svg xmlns="http://www.w3.org/2000/svg" viewBox="0 0 512 512">
	<g fill="#FFF">
		<path opacity=".4" d="M416 311.4c57.3-11.1 96-31.7 96-55.4v-42.7c-23.2 16.4-57.3 27.6-96 34.5Zm-4.7-95.1c60-10.8 100.7-32 100.7-56.3v-42.7c-35.5 25.1-96.5 38.6-160.7 41.8 29.5 14.3 51.2 33.5 60 57.2ZM512 64c0-35.3-86-64-192-64s-192 28.7-192 64 86 64 192 64 192-28.7 192-64Z"></path>
		<path d="M192 320c106 0 192-35.8 192-80s-86-80-192-80C86 160 0 195.8 0 240c0 44.2 86 80 192 80ZM0 405.3V448c0 35.3 86 64 192 64s192-28.7 192-64v-42.7C342.7 434.4 267.2 448 192 448c-75.2 0-150.7-13.6-192-42.7Zm0-104.9V352c0 35.3 86 64 192 64s192-28.7 192-64v-51.6c-41.3 34-116.9 51.6-192 51.6s-150.7-17.6-192-51.6Z"></path>
	</g>
</svg>
