<svg xmlns="http://www.w3.org/2000/svg" viewBox="0 0 24 24">
	<path d="M23.997 6.12c0-.74-.07-1.47-.24-2.19 -.32-1.31-1.07-2.31-2.18-3.043 -.58-.38-1.21-.61-1.88-.73 -.52-.1-1.04-.14-1.564-.15 -.04-.01-.09-.01-.13-.02H5.97c-.16.01-.31.017-.46.02 -.75.04-1.49.12-2.2.4 -1.34.53-2.3 1.452-2.87 2.78 -.2.44-.3.92-.37 1.4 -.056.39-.088.78-.1 1.18 0 .03-.007.06-.01.09v12.22c.01.14.017.28.02.42 .05.81.15 1.62.497 2.37 .65 1.42 1.73 2.35 3.234 2.8 .42.12.85.18 1.29.22 .55.05 1.11.06 1.66.06h11.03c.52 0 1.04-.04 1.57-.1 .82-.11 1.59-.35 2.29-.81 .84-.56 1.47-1.29 1.88-2.21 .18-.42.29-.87.37-1.33 .11-.68.13-1.36.13-2.04 -.01-3.8 0-7.6-.01-11.393Zm-6.43 3.99v5.712c0 .41-.06.827-.25 1.2 -.29.59-.76.96-1.388 1.14 -.35.1-.71.15-1.07.17 -.95.04-1.78-.6-1.95-1.54 -.15-.78.22-1.63 1.03-2.03 .32-.16.67-.25 1.01-.33 .37-.09.75-.16 1.13-.24 .27-.07.45-.23.51-.516 .01-.07.02-.13.02-.2 0-1.82 0-3.63-.01-5.443 0-.07-.01-.125-.03-.19 -.04-.15-.15-.25-.31-.24 -.16.01-.32.03-.48.06 -.76.15-1.52.3-2.28.45l-2.33.47 -1.38.27c-.02 0-.04.01-.05.01 -.28.07-.38.2-.39.49 -.01.04 0 .08 0 .13 -.01 2.6 0 5.2-.01 7.805 0 .42-.05.83-.22 1.22 -.28.64-.77 1.04-1.44 1.23 -.35.1-.71.16-1.08.17 -.96.03-1.755-.6-1.92-1.55 -.14-.82.23-1.69 1.154-2.08 .35-.15.73-.24 1.1-.31 .28-.06.57-.12.86-.18 .383-.09.58-.33.6-.72v-.15c0-2.96 0-5.93 0-8.89 0-.13.01-.25.04-.37 .07-.29.27-.45.54-.52 .25-.07.51-.12.77-.17 .73-.15 1.46-.3 2.2-.45l2.27-.46c.67-.14 1.34-.27 2.01-.403 .22-.05.44-.09.66-.11 .31-.03.52.17.55.48 0 .07.01.14.01.22 0 1.91 0 3.822 0 5.732Z" fill="#fff"></path>
</svg>
