<svg xmlns="http://www.w3.org/2000/svg" viewBox="0 0 994.95 1000">
	<path fill="#FFF" d="M438.782 715.968l-36.48-99.15s-59.28 66.1-148.153 66.1c-78.648 0-134.49-68.39-134.49-177.8 0-140.18 70.65-190.33 140.184-190.33 100.286 0 132.19 64.96 159.553 148.161l36.47 113.97c36.46 110.543 104.84 199.438 302.008 199.438 141.33 0 237.06-43.31 237.06-157.269 0-92.32-52.44-140.19-150.45-162.98l-72.94-15.96c-50.15-11.4-64.96-31.92-64.96-66.11 0-38.75 30.76-61.55 80.918-61.55 54.7 0 84.332 20.51 88.89 69.52l113.96-13.68C981.23 265.75 910.57 223.59 794.32 223.59c-102.57 0-202.861 38.75-202.861 162.976 0 77.49 37.61 126.51 132.19 149.301l77.5 18.22c58.12 13.67 77.49 37.61 77.49 70.66 0 42.16-41.03 59.25-118.524 59.25 -115.11 0-162.97-60.41-190.33-143.61l-37.61-113.97C484.31 278.25 407.95 223.55 256.37 223.55 88.84 223.55-.06 329.53-.06 509.61c0 173.236 88.9 266.68 248.461 266.68 128.767 0 190.32-60.41 190.32-60.41Z" transform="translate(.025 0)"></path>
</svg>
