<svg viewBox="0 0 24 24" xmlns="http://www.w3.org/2000/svg"><path fill="#FFF" d="M11.103 17.8c.09.12.24.19.39.19h11c0-.01.01 0 .02 0 .27 0 .5-.23.5-.5 0-.05-.01-.1-.03-.15C22.893 5.13 11.79.07 11.683.02c-.18-.08-.38-.06-.52.06 -.15.11-.22.31-.18.49 .01.04.98 4.628.98 9.395 0 3.69-.98 7.33-.99 7.369 -.05.15-.01.31.08.43Zm-9.603.19h6c.27 0 .5-.23.5-.5v-10c0-.23-.15-.43-.367-.49 -.22-.07-.45.03-.57.22l-6 10c-.1.15-.1.34-.01.5 .08.15.25.25.43.25Zm22.42 1.23c-.1-.15-.26-.24-.43-.24H9.99V.48c0-.276-.23-.5-.5-.5h-3c-.21 0-.39.12-.47.3 -.08.18-.04.4.1.54l.64.64 -.65.64c-.15.14-.19.35-.11.54 .07.18.26.3.46.3h2.5v16H.46c-.276 0-.5.22-.5.5v1c0 1.93 1.57 3.5 3.5 3.5h14.29c2.47 0 4.7-1.38 5.81-3.593l.34-.69c.07-.16.07-.34-.03-.49Z"/></svg>