<svg xmlns="http://www.w3.org/2000/svg" viewBox="0 0 384 512"><g fill="#FFF"><path opacity=".4" d="M352 0H32v0C14.32 0 0 14.32 0 32v448 0c0 17.67 14.32 32 32 32h256v0c53.01 0 96-42.99 96-96V32v0c0-17.68-14.33-32-32-32ZM160 344v0c0 4.41-3.59 8-8 8h-24v24 0c0 4.41-3.59 8-8 8h-16v0c-4.42 0-8-3.59-8-8v-24H72v0c-4.42 0-8-3.59-8-8v-16 0c0-4.42 3.58-8 8-8h24v-24 0c0-4.42 3.58-8 8-8h16v0c4.41 0 8 3.58 8 8v24h24v0c4.41 0 8 3.58 8 8Zm72 40v0c-13.26 0-24-10.75-24-24 0-13.26 10.74-24 24-24 13.25 0 24 10.74 24 24v0c0 13.25-10.75 24-24 24ZM112 224v0c-8.84 0-16-7.17-16-16V80v0c0-8.84 7.16-16 16-16h160v0c8.83 0 16 7.16 16 16v112 0c0 17.67-14.33 32-32 32Zm184 112v0c-13.26 0-24-10.75-24-24 0-13.26 10.74-24 24-24 13.25 0 24 10.74 24 24v0c0 13.25-10.75 24-24 24Z"></path><path d="M112 224v0c-8.84 0-16-7.17-16-16V80v0c0-8.84 7.16-16 16-16h160v0c8.83 0 16 7.16 16 16v112 0c0 17.67-14.33 32-32 32Z"></path></g></svg>
