<?xml version="1.0"?><svg xmlns="http://www.w3.org/2000/svg" id="icons" viewBox="0 0 30 31">
    <defs>
        <style>
        .cls-1 {
            fill: #444;
        }
        </style>
    </defs>
    <title>Search</title>
    <g id="Icon">
        <path id="Icon-2" data-name="Icon" class="cls-1" d="M29.59,28.61l-7-7.06a12.64,12.64,0,0,0,3.51-8.72A13,13,0,0,0,13.06,0,13,13,0,0,0,0,12.83,13,13,0,0,0,13.06,25.65a13.14,13.14,0,0,0,7.38-2.26l7.11,7.18a1.44,1.44,0,0,0,2,0A1.4,1.4,0,0,0,29.59,28.61ZM2.86,12.83a10.12,10.12,0,0,1,10.2-10,10.12,10.12,0,0,1,10.2,10,10.12,10.12,0,0,1-10.2,10A10.12,10.12,0,0,1,2.86,12.83Z"></path>
    </g>
</svg>
