<svg xmlns="http://www.w3.org/2000/svg" viewBox="0 0 576 512"><g fill="#FFF"><path d="M144.3 32.04c-37.4-.75-80.6 9.4-125.7 29.25C7.18 66.31 0 77.96 0 90.44v357.6c0 11.55 11.99 19.55 22.45 14.65 126.3-59.14 219.8 11 223.8 14.01 2.85 2.2 6.25 3.3 9.75 3.3 12.4 0 16-11.38 16-15.98V80.04c0-5.21-2.54-10.08-6.79-13.08 -1.92-1.38-48.52-33.61-120.92-34.92Z"></path><path opacity=".4" d="M557.4 61.29c-45.11-19.79-88.48-29.61-125.7-29.26 -72.44 1.31-118.1 33.55-120.9 34.92 -4.3 3.01-6.8 7.88-6.8 13.09v383.1c0 5.26 3.5 16.86 16 16.86 3.48 0 6.93-1.125 9.78-3.33 3.92-3.02 97.44-73.16 223.8-14 10.46 4.89 22.45-3.11 22.45-14.65l0-357.6c-.94-12.46-7.24-24.12-18.64-29.14Z"></path></g></svg>