<svg xmlns="http://www.w3.org/2000/svg" viewBox="0 0 512 512"><g fill="#FFF"><path d="M0 128v304c0 26.5 21.49 48 48 48s48-21.5 48-48V96H32c-17.67 0-32 14.3-32 32Zm272 160h-96c-8.8 0-16 7.2-16 16s7.2 16 16 16h96c8.83 0 16-7.17 16-16 0-8.8-7.2-16-16-16Zm64 32h96c8.83 0 16-7.17 16-16 0-8.8-7.2-16-16-16h-96c-8.8 0-16 7.2-16 16s7.2 16 16 16Zm-64 64h-96c-8.8 0-16 7.2-16 16s7.2 16 16 16h96c8.83 0 16-7.17 16-16 0-8.8-7.2-16-16-16Zm160 0h-96c-8.84 0-16 7.16-16 16 0 8.83 7.16 16 16 16h96c8.83 0 16-7.17 16-16 0-8.8-7.2-16-16-16Z"></path><path opacity=".4" d="M480 32H128c-17.7 0-32 14.33-32 32v368c0 26.5-21.49 48-48 48h400c35.35 0 64-28.65 64-64V64c0-17.67-14.3-32-32-32ZM272 416h-96c-8.8 0-16-7.2-16-16s7.2-16 16-16h96c8.83 0 16 7.16 16 16 0 8.8-7.2 16-16 16Zm0-96h-96c-8.8 0-16-7.2-16-16s7.2-16 16-16h96c8.8 0 16 7.2 16 16s-7.2 16-16 16Zm160 96h-96c-8.84 0-16-7.17-16-16 0-8.84 7.16-16 16-16h96c8.83 0 16 7.16 16 16 0 8.8-7.2 16-16 16Zm0-96h-96c-8.8 0-16-7.2-16-16s7.2-16 16-16h96c8.8 0 16 7.2 16 16s-7.2 16-16 16Zm16-112c0 8.8-7.2 16-16 16H176c-8.8 0-16-7.2-16-16v-96c0-8.8 7.2-16 16-16h256c8.8 0 16 7.2 16 16v96Z"></path></g></svg>