<?xml version="1.0" encoding="UTF-8"?><svg id="Layer_2" xmlns="http://www.w3.org/2000/svg" viewBox="0 0 145.4 110"><defs><style>.cls-1{fill:#fff;}</style></defs><g id="Layer_1-2"><path class="cls-1" d="m17.5,30.5C17.5,18.4,11.4,8.4,0,0h26.5c9.3,7.2,15,18.2,15,30.5s-5.7,23.3-15,30.5c8.6,3.6,13.5,12.4,13.5,25v24h-24v-24c0-12-5.7-20.4-16-25,11.4-8.5,17.5-18.4,17.5-30.5m51.9,0c0-12.1-6.1-22.1-17.5-30.5h26.5c9.3,7.2,15,18.2,15,30.5s-5.7,23.3-15,30.5c8.6,3.6,13.5,12.4,13.5,25v24h-24v-24c0-12-5.7-20.4-16-25,11.4-8.5,17.5-18.4,17.5-30.5m52,0c0-12.1-6.1-22.1-17.5-30.5h26.5c9.3,7.2,15,18.2,15,30.5s-5.7,23.3-15,30.5c8.6,3.6,13.5,12.4,13.5,25v24h-24v-24c0-12-5.7-20.4-16-25,11.4-8.5,17.5-18.4,17.5-30.5"/></g></svg>