<svg xmlns="http://www.w3.org/2000/svg" viewBox="0 0 512 512">
  <g fill="#FFF">
    <path
      d="M364.2 267.2l-104.8-15.28 -46.8-95.22c-8.375-17-32.72-17.13-41.22 0l-46.88 94.4 -104.79 16.1C.83 269.1-6.75 293.2 7 306.5l75.87 74 -17.1 104.6c-3.125 18.88 16.7 33.05 33.32 24.18l93.79-49.38 93.74 49.38c7.75 4.12 17.13 3.38 24.25-1.74 6.1-5.125 10.62-13.91 9.11-22.41l-18.8-104.64 75.92-74c13.58-13.2 5.98-37.4-12.92-39.3Z"></path>
    <path opacity=".4"
      d="M509 219.3l-39.62-16.63 -16.62-39.63c-.875-1.875-2.76-3.01-4.76-3.01s-3.88 1.12-4.75 3l-16.62 39.63 -39.64 16.63c-1.875.875-3.01 2.74-3.01 4.74s1.12 3.87 3 4.75l39.62 16.63 16.62 39.63c.875 1.875 2.74 2.99 4.74 2.99s3.87-1.12 4.75-3l16.62-39.63 39.62-16.63c1.92-.9 3.02-2.8 3.02-4.8s-1.1-3.9-3-4.7ZM416 80c0-2.5-1.38-4.88-3.75-6l-49.66-20.63 -20.62-49.63c-1.08-2.38-3.48-3.75-5.98-3.75 -2.5 0-4.88 1.375-6 3.75l-20.62 49.63L259.71 74c-2.375 1.125-3.72 3.49-3.72 5.99s1.33 4.87 3.71 6l49.66 20.63 20.62 49.67c1.125 2.375 3.49 3.7 5.99 3.7s4.87-1.34 6-3.71l20.62-49.67 49.62-20.63c2.35-1.14 3.75-3.52 3.75-6.02Z"></path>
  </g>
</svg>