<svg xmlns="http://www.w3.org/2000/svg" viewBox="0 0 448 512"><g fill="#FFF"><path d="M416 320h-96c-17.69 0-32 14.31-32 32v96c0 17.69 14.31 32 32 32 17.69 0 32-14.31 32-32v-64h64c17.69 0 32-14.31 32-32 0-17.69-14.3-32-32-32ZM128 32c-17.7 0-32 14.31-32 32v64H32c-17.69 0-32 14.3-32 32s14.31 32 32 32h96c17.69 0 32-14.31 32-32V64c0-17.69-14.3-32-32-32Z"></path><path opacity=".4" d="M128 320H32c-17.69 0-32 14.31-32 32 0 17.69 14.31 32 32 32h64v64c0 17.69 14.31 32 32 32 17.69 0 32-14.31 32-32v-96c0-17.7-14.3-32-32-32Zm288-192h-64V64c0-17.69-14.31-32-32-32 -17.69 0-32 14.31-32 32v96c0 17.69 14.31 32 32 32h96c17.69 0 32-14.31 32-32 0-17.69-14.3-32-32-32Z"></path></g></svg>