<svg xmlns="http://www.w3.org/2000/svg" viewBox="0 0 512 512">
  <g fill="#FFF">
    <path
      d="M512 384c0-8.125-4.125-16.17-12.38-19.92l-57.88-26.25 -161.9 73.38c-7.54 3.39-15.54 5.19-23.84 5.19s-16.25-1.75-23.88-5.125l-161.9-73.38 -57.88 26.25C4.12 367.895 0 375.895 0 383.995c0 8.1 4.12 16.33 12.38 20.08l233 105.6c3.42 1.62 7.02 2.32 9.72 2.32 2.7 0 7.27-.75 10.65-2.25l233-105.6c9.15-3.75 13.25-11.95 13.25-20.15ZM0 127.1c0 9 4.12 17.2 12.38 20.9l233 105.8c3.375 1.5 6.97 2.24 10.6 2.24 3.62 0 7.27-.75 10.65-2.25l232.97-105.8c8.3-3.7 12.4-11.9 12.4-20.9 0-9-4.1-15.3-12.4-19.1l-233-105.8c-3.3-1.45-7-2.2-10.6-2.2 -3.6 0-7.2.75-10.6 2.25L12.38 107.99c-8.26 3.8-12.38 11.9-12.38 19.1Z"></path>
    <path opacity=".4"
      d="M512 256.1c0-9-4.1-16.1-12.4-19.8L441.5 210l-161.6 73.25c-7.6 3.35-15.6 5.15-23.9 5.15 -8.3 0-16.2-1.8-23.9-5.1L70.5 210l-58.12 26.3C4.12 240-.001 247.1-.001 256.1c0 8.1 4.12 16.4 12.38 20.2l233 105.6c3.375 1.56 6.97 2.19 10.6 2.19 3.62 0 7.27-.64 10.65-2.2l233-105.6c8.27-3.8 12.37-12.1 12.37-20.2Z"></path>
  </g>
</svg>