<svg xmlns="http://www.w3.org/2000/svg" viewBox="0 0 448 512">
  <g fill="#FFF">
    <path
      d="M96 384h304c26.51 0 48-21.49 48-48V48c0-26.51-21.5-48-48-48H96C42.98 0 0 42.98 0 96v320c0 53.02 42.98 96 96 96h320c17.67 0 32-14.33 32-31.1 0-18.6-14.3-32.9-32-32.9H97.71c-15.94 0-30.71-10.89-33.27-26.63C61.18 401.3 76.56 384 96 384Zm165.1-186.6l.37-.43 20.56-49.31c1.01-2.04 3.67-3.68 5.94-3.7 0 0-.01 0 0 0 2.27 0 4.96 1.64 5.98 3.69l20.7 49.64 49.64 20.7c2 1.09 3.7 3.69 3.7 5.09 0 2.26-1.66 4.94-3.69 5.96l-49.64 20.7 -20.7 49.64c-1.02 2.04-3.7 3.69-5.98 3.69 -.01 0 0 0 0 0 -2.28-.02-4.94-1.67-5.95-3.7l-20.72-49.63 -49.64-20.68c-2.03-1.02-3.67-3.68-3.68-5.94 .01-2.27 1.65-4.98 3.67-5.99l49.4-19.774Zm-130.9-89L159.1 96l12.42-29.79C173 64.99 174.6 64 175.1 64c.5 0 2.96.99 3.57 2.21l12.42 29.783 30.7 12.4c1.21.6 2.2 2.21 2.2 3.57 0 1.35-1 2.97-2.21 3.58l-30.7 11.54 -11.5 30.7c-1.5 1.2-2.2 2.2-4.5 2.2s-2.1-1-2.7-2.2l-13.3-30.7 -28.9-11.5c-2.1-1.5-2.2-2.2-2.2-4.5 0-.5.1-2.1 2.2-2.7Z"></path>
    <path opacity=".4"
      d="M400 384H96c-17.67 0-32 14.33-32 32s14.33 32 32 32h320v-66.94c-5.9 1.74-10.4 2.94-16 2.94Z"></path>
  </g>
</svg>