<svg xmlns="http://www.w3.org/2000/svg" viewBox="0 0 576 512"><g fill="#FFF"><path d="M319.1 64v383.1c0 12.59-7.33 24-18.82 29.16 -4.21 1.9-8.74 2.84-13.17 2.84 -7.69 0-15.28-2.79-21.26-8.1l-134.9-119.9H48c-26.51 0-48-21.49-48-47.1v-95.1c0-26.51 21.49-47.1 48-47.1h83.84l134.9-119.9c9.42-8.375 22.94-10.44 34.44-5.253C312.7 39.98 319.1 51.4 319.1 63.98Z"></path><path opacity=".4" d="M560.1 303c9.375 9.375 9.375 24.56 0 33.94 -9.39 9.38-24.56 9.37-33.94 0L480 289.9l-47.03 47.03c-9.39 9.38-24.56 9.37-33.94 0 -9.375-9.375-9.375-24.56 0-33.94l47.03-47.03 -47.03-47.03c-9.375-9.375-9.375-24.56 0-33.94 9.375-9.38 24.56-9.375 33.94 0L480 222.1l47.03-47.03c9.375-9.375 24.56-9.375 33.94 0 9.38 9.375 9.375 24.56 0 33.94l-47.03 47.03L560.1 303Z"></path></g></svg>