<svg xmlns="http://www.w3.org/2000/svg" viewBox="0 0 512 512"><g fill="#FFF"><path d="M344 360c0 13.25-10.75 24-24 24H192c-13.25 0-24-10.75-24-24s10.8-24 24-24h40V196.8l-14.7 9.8c-11 7.3-25.9 3.5-33.3-7.5 -7.3-10.2-4.3-25.1 6.7-32.4l52-34.66c7.39-4.94 16.86-5.375 24.64-1.19 7.76 4.14 12.66 12.34 12.66 21.14v184h40c13.3 0 24 10.8 24 24Z"></path><path opacity=".4" d="M256 0C114.6 0 0 114.6 0 256c0 141.4 114.6 256 256 256s256-114.6 256-256C512 114.6 397.4 0 256 0Zm64 384H192c-13.25 0-24-10.75-24-24s10.8-24 24-24h40V196.8l-14.7 9.8c-11 7.3-25.9 3.5-33.3-7.5 -7.3-10.2-4.3-25.1 6.7-32.4l52-34.66c7.39-4.94 16.86-5.375 24.64-1.19 7.76 4.14 12.66 12.34 12.66 21.14v184h40c13.25 0 24 10.75 24 24s-10.7 24-24 24Z"></path></g></svg>