<svg xmlns="http://www.w3.org/2000/svg" viewBox="0 0 512 512">
  <g fill="#FFF">
    <path
      d="M199.2 312.6c14.94 15.06 34.8 23.38 55.89 23.38 .03 0 0 0 0 0 21.06 0 40.92-8.32 55.83-23.38 9.375-9.375 24.53-9.47 33.97-.16 9.4 9.34 9.46 24.53.15 33.97 -24 24.22-55.95 37.56-89.95 37.56 0 0 .03 0 0 0 -33.97 0-65.95-13.34-89.95-37.56 -49.44-49.88-49.44-131 0-180.9 24-24.22 55.98-37.56 89.95-37.56 .03 0 0 0 0 0 34 0 65.95 13.34 89.95 37.56 9.31 9.43 9.25 24.62-.16 33.97 -9.44 9.34-24.59 9.18-33.97-.16 -14.91-15.06-34.77-23.38-55.83-23.38 0 0 .03 0 0 0 -21.09 0-40.95 8.31-55.89 23.38 -30.9 31.27-30.9 82.07 0 113.27Z"></path>
    <path opacity=".4"
      d="M256 0C114.6 0 0 114.6 0 256c0 141.4 114.6 256 256 256s256-114.6 256-256C512 114.6 397.4 0 256 0Zm-56.8 312.6c14.94 15.06 34.8 23.38 55.89 23.38 .03 0 0 0 0 0 21.06 0 40.92-8.32 55.83-23.38 9.375-9.375 24.53-9.47 33.97-.16 9.4 9.34 9.46 24.53.15 33.97 -24 24.22-55.95 37.56-89.95 37.56 0 0 .03 0 0 0 -33.97 0-65.95-13.34-89.95-37.56 -49.44-49.88-49.44-131 0-180.9 24-24.22 55.98-37.56 89.95-37.56 .03 0 0 0 0 0 34 0 65.95 13.34 89.95 37.56 9.31 9.43 9.25 24.62-.16 33.97 -9.44 9.34-24.59 9.18-33.97-.16 -14.91-15.06-34.77-23.38-55.83-23.38 0 0 .03 0 0 0 -21.09 0-40.95 8.31-55.89 23.38 -30.9 31.27-30.9 82.07 0 113.27Z"></path>
  </g>
</svg>