<svg xmlns="http://www.w3.org/2000/svg" viewBox="0 0 384 512"><g fill="#FFF"><path d="M64 64v128h256V64H64Zm128 192c-53 0-96 43-96 96s43 96 96 96 96-43 96-96 -43-96-96-96Zm0 128c-17.62 0-32-14.38-32-32 0-17.62 14.38-32 32-32 17.62 0 32 14.38 32 32 0 17.62-14.4 32-32 32Z"></path><path opacity=".4" d="M336 0H48C21.5 0 0 21.5 0 48v416c0 26.5 21.5 48 48 48h288c26.5 0 48-21.5 48-48V48c0-26.5-21.5-48-48-48ZM192 448c-53 0-96-43-96-96s43-96 96-96 96 43 96 96 -43 96-96 96Zm128-256H64V64h256v128Z"></path></g></svg>