<svg xmlns="http://www.w3.org/2000/svg" viewBox="0 0 512 512"><g fill="#FFF"><path d="M40 224h80c13.3 0 24-10.7 24-24.9s-10.75-24-24-24h-16V55.99c0-8.6-4.6-16.53-12.06-20.81 -7.44-4.27-16.66-4.23-24.03.07l-32 18.67c-11.44 6.69-15.32 21.38-8.63 32.83C33.13 96.85 45.31 101.1 56 97.29V176H40c-13.25 0-24 10.75-24 24s10.75 24 24 24Zm96.3 208H86.86l36.4-32.48c29.92-25.83 33.54-71.36 8.04-101.5 -12.71-15.92-30.61-24.22-50.42-25.82 -19.62-1.5-38.96 4.7-53.97 17.7l-12.5 10.8c-10.04 8.65-11.17 23.81-2.53 33.86 8.672 10.06 23.8 11.14 33.78 2.51l12.51-10.79c5.24-4.54 12.1-6.68 18.96-6.16 6.92.54 13.2 3.73 17.62 8.96 8.7 10.28 7.48 25.26-3.06 34.36l-83.7 74.67C.56 444.73-2 455.27 1.53 464.58c3.57 9.2 12.46 15.4 22.41 15.4h112.4c13.23 0 23.96-10.75 23.96-23.1 -.02-14.1-10.82-24.9-24.02-24.9Z"></path><path opacity=".4" d="M480 224H224c-17.7 0-32 14.3-32 32s14.33 32 32 32h256c17.67 0 32-14.33 32-32s-14.3-32-32-32Zm-256-96h256c17.67 0 32-14.33 32-32s-14.33-32-32-32H224c-17.7 0-32 14.33-32 32s14.3 32 32 32Zm256 256H224c-17.67 0-32 14.33-32 32s14.33 32 32 32h256c17.67 0 32-14.33 32-32s-14.3-32-32-32Z"></path></g></svg>