<svg xmlns="http://www.w3.org/2000/svg" viewBox="0 0 512 512"><g fill="#FFF"><path d="M255.1 320c14.1 0 24.9-10.7 24.9-24V184c0-13.2-10.8-24-24.9-24 -14.1 0-23.1 10.8-23.1 24v112c0 13.3 10.7 24 23.1 24ZM-.01 95.99c.12 18.25 5.34 36.04 15.22 51.29l145.1-121.6C143.39 9.17 120.19 0 95.09 0 42.09 0-.02 43-.02 95.99ZM415.09 0c-24.25 0-47.48 9.17-65.1 25.68l145.9 121.6c9.875-15.25 15.09-33.04 15.22-51.29C511.09 43 468.09 0 415.09 0Zm-159.1 352c-17.67 0-32 14.33-32 32s14.33 32 32 32 32-14.33 32-32 -14.3-32-32-32Z"></path><path opacity=".4" d="M479.1 480c0-8.22-3.13-16.42-9.38-22.66l-35.37-35.4c29.12-38.62 44.75-85.59 44.75-133.1 0-122.9-96.37-223.1-224-223.1C132.3 63.1 32 164.3 32 287.1c0 48.37 15.75 95.34 44.75 133.1l-35.42 37.3c-6.23 6.24-9.334 14.41-9.334 22.58 0 8.8 6.93 31.96 31.1 31.96 8.21 0 16.43-3.13 22.66-9.38L122 467.2c39.7 29.9 86.8 44.8 134 44.8s94.31-14.94 133.1-44.81l35.44 35.47C431.7 508.9 439.9 512 448 512c8.9 0 31.1-6.9 31.1-32ZM232 184c0-13.2 10.7-24 23.1-24 12.4 0 24.9 10.8 24.9 24v112c0 13.25-10.76 24-24.01 24 -13.25 0-23.99-10.7-23.99-24V184Zm24 232c-17.67 0-32-14.33-32-32s14.33-32 32-32 32 14.33 32 32 -14.3 32-32 32Z"></path></g></svg>