<svg id="Layer_2" xmlns="http://www.w3.org/2000/svg" viewBox="0 0 373 373">
  <defs>
    <style>
      .cls-1{fill:#fff;}.cls-2avs{fill:none;stroke:#fff;stroke-linecap:round;stroke-width:23px;}</style>
  </defs>
  <g id="Layer_1-2">
    <circle class="cls-2avs" cx="186.5" cy="186.5" r="175" />
    <path class="cls-2avs" d="m91.5,112.6s-24.2,27.3-24.2,75,24.2,73.9,24.2,73.9" />
    <path class="cls-2avs" d="m284.3,112.6s24.2,27.3,24.2,75-24.2,73.9-24.2,73.9" />
    <path class="cls-2avs" d="m245.7,144.5s16.3,20.3,15.9,43c-.5,27.3-15.7,42.3-15.7,42.3" />
    <path class="cls-2avs" d="m129.3,144.5s-16.3,20.3-15.9,43c.5,27.3,15.7,42.3,15.7,42.3" />
    <circle class="cls-1" cx="186.5" cy="186.5" r="32" />
    <path class="cls-1" d="m191.9,216.4l-22.7-6.1-37.8,141.2,22.7,6.1,37.8-141.2Z" />
    <path class="cls-1" d="m183.1,216.2l22.6-6,37.6,141.3-22.6,6-37.6-141.3Z" />
    <path class="cls-1" d="m162.1,292.4l8.4-8.6,58.2,56.7-8.4,8.6-58.2-56.7Z" />
    <path class="cls-1" d="m211.4,292.7l-7.6-7.7-57.7,57.3,7.6,7.7,57.7-57.3Z" />
  </g>
</svg>