<svg xmlns="http://www.w3.org/2000/svg" viewBox="0 0 512 512">
  <g fill="#FFF">
    <path
      d="M327.1 112c-30.93 0-56 25.07-56 55.1s25.07 55.1 56 55.1c2.74 0 5.375-.43 8.01-.81v10.6c.89 13.2-9.91 24-23.11 24s-24 10.8-24 24 10.75 23.1 23.1 23.1c39.7 0 72-32.3 72-71.1l-.01-63.1c0-31.8-24.2-56.9-56-56.9Zm-144 0c-30.93 0-56 25.07-56 55.1s25.07 55.1 56 55.1c2.74 0 5.375-.43 8.01-.81v10.6c.89 13.2-9.91 24-23.11 24s-24 10.8-24 24 10.75 23.1 23.1 23.1c39.7 0 71.1-32.3 71.1-71.1l.9-64c0-30.9-24.2-56-56-56Z"></path>
    <path opacity=".4"
      d="M447.1 0h-384C27.85 0-.9 28.75-.9 63.1v287.1c0 35.25 28.75 63.1 64 63.1h96v83.98c0 9.75 11.25 15.45 19.12 9.7l124.9-93.68h144c35.25 0 64-28.75 64-63.1V63.09C511.1 28.74 483.2-.01 447.1-.01Zm-208 231.99c0 39.7-32.3 71.1-71.1 71.1 -13.3 0-24-9.8-24-23.1s10.8-24 24-24 24-10.8 24-24v-8.8c-2.6.4-5.3.8-8.9.8 -30.93 0-56-25.07-56-55.1s25.07-55.1 56-55.1 56 23.3 56 54.2v64Zm144 0c0 39.7-32.3 71.1-72 71.1 -12.4 0-23.1-9.8-23.1-23.1s10.8-24 24-24c13.23 0 24-10.77 24-24v-8.8c-2.64.38-5.27.8-8.01.8 -30.93 0-56-25.07-56-55.1s25.07-55.1 56-55.1 56 25.07 56 55.1l-.89 63.09Z"></path>
  </g>
</svg>