<svg xmlns="http://www.w3.org/2000/svg" viewBox="0 0 640 512"><path fill="#FFF" d="M524.531 69.836v0c-.17-.32-.44-.57-.77-.7v-.001c-38.13-17.5-78.36-29.97-119.69-37.11v0c-.78-.15-1.55.22-1.93.91l-.001-.001c-5.48 9.94-10.46 20.15-14.9 30.6h0c-44.56-6.77-89.88-6.77-134.43 0l-.001 0c-4.48-10.48-9.54-20.69-15.14-30.6v-.001c-.4-.67-1.16-1.04-1.93-.91v0c-41.34 7.12-81.57 19.6-119.69 37.1v0c-.33.13-.61.37-.79.67 -76.23 113.83-97.12 224.877-86.87 334.54v0c.05.54.33 1.03.76 1.375l0 0c44.38 32.86 94.03 57.95 146.82 74.18l0-.001c.76.22 1.58-.05 2.06-.68v0c11.33-15.43 21.38-31.77 30.03-48.85v0c.46-.92.09-2.04-.82-2.51 -.07-.04-.14-.07-.21-.09v0c-15.85-6.07-31.18-13.37-45.87-21.86h-.001c-.9-.53-1.2-1.69-.67-2.59 .12-.22.28-.4.48-.55 3.08-2.31 6.16-4.72 9.1-7.14h-.001c.53-.44 1.26-.54 1.9-.26 96.22 43.91 200.41 43.91 295.5 0h-.001c.63-.31 1.38-.21 1.92.23 2.94 2.42 6.02 4.85 9.13 7.16h0c.83.62 1 1.8.38 2.63 -.15.19-.34.36-.55.48v0c-14.66 8.55-30.01 15.85-45.89 21.83v0c-.97.36-1.46 1.45-1.09 2.41 .02.06.05.12.08.19l-.001 0c8.79 16.98 18.82 33.29 30.01 48.81v0c.46.65 1.29.93 2.06.7v0c52.88-16.19 102.61-41.28 147.062-74.19v-.001c.43-.32.71-.82.76-1.36 12.26-126.79-20.54-236.92-86.94-334.55Zm-302.04 267.74c-28.98 0-52.85-26.59-52.85-59.24 0-32.66 23.4-59.25 52.84-59.25 29.66 0 53.3 26.82 52.84 59.23 0 32.65-23.41 59.24-52.85 59.24Zm195.38 0c-28.98 0-52.85-26.59-52.85-59.24 0-32.66 23.4-59.25 52.84-59.25 29.66 0 53.3 26.82 52.84 59.23 0 32.65-23.18 59.24-52.85 59.24Z"></path></svg>