<svg xmlns="http://www.w3.org/2000/svg" viewBox="0 0 24 24"><path fill="#FFF" d="M12 24C5.385 24 0 18.61 0 12 0 5.38 5.385 0 12 0c6.61 0 12 5.385 12 12 0 6.61-5.39 12-12 12Zm0-22.79C6.05 1.2 1.21 6.04 1.21 11.99 1.21 17.94 6.041 22.78 12 22.78c5.95 0 10.79-4.84 10.79-10.79C22.79 6.04 17.95 1.2 12 1.2ZM4.89 18.53c1.75 1.92 4.29 3.11 7.11 3.11 1.439 0 2.801-.32 4.02-.88l-6.7-6.68 -4.44 4.44Zm14.28-.07c1.54-1.71 2.48-3.99 2.48-6.47 0-3.885-2.29-7.215-5.57-8.76L9.99 9.3l9.164 9.15h0ZM9.29 10.031l-5.08 5.05 -.68-.68L8.87 9.065 15.1 2.84c-.98-.33-2.02-.51-3.115-.51 -5.34-.01-9.663 4.32-9.663 9.66 0 2.17.71 4.17 1.939 5.8l5.05-5.055 .359.32 7.24 7.24c.15-.09.28-.17.42-.27L9.3 12.01 4.44 16.87l-.68-.68L9.29 10.65l.359.33 8.46 8.43c.13-.1.25-.22.375-.32L9.34 9.97l-.09.01 -.01-.01Zm3.04 1.02l-.68-.68 4.788-4.79 .67.68 -4.79 4.78v-.01Zm4.542-6.578l-5.52 5.52 -.68-.68 5.52-5.52 .67.68v-.01Z"></path></svg>