<?xml version="1.0" encoding="UTF-8"?><svg id="Layer_2" xmlns="http://www.w3.org/2000/svg" viewBox="0 0 111.1 86.91"><defs><style>.cls-1,.cls-2{fill:#fff;}.cls-2{opacity:.5;}</style></defs><g id="Layer_1-2"><path class="cls-1" d="m72.3,51.81v-2.4c0-10.8.1-21.6-.1-32.4-.2-7.1-4.2-10.9-11.3-11.4-.4,0-.8-.1-1.1-.1V.31h31.4v4.9c-2.3.7-4.6,1.2-6.5,2.2-3.1,1.6-4.4,4.6-4.8,7.9-.3,2.3-.4,4.7-.4,7.1v61.3c0,.8.5,2-1,2.2s-2.8,1.5-4.3-.1c-5-5.3-10.1-10.6-15.1-15.9-6.5-6.8-13-13.6-19.4-20.4-4.6-4.8-9.2-9.6-13.8-14.4-1.7-1.7-3.3-3.6-5.2-5.6-.1.9-.1,1.3-.1,1.8,0,11.8-.1,23.7,0,35.5,0,3.5.8,7,3.3,9.7,2.1,2.4,5.1,3.2,8.2,3.5.5.1,1,.1,1.6.1v5.1H1.8v-4.8c1.9-.6,3.8-.9,5.5-1.8,2.5-1.3,3.8-3.6,4.4-6.3.5-1.9.7-3.9.7-5.9.1-18.3,0-36.7,0-55,0-2.6-.7-3.8-3.3-4.5-2.9-.7-6-1-9.1-1.5V0h1.8C8.3.11,14.8.11,21.3,0c2.1-.1,3.5.6,4.9,2.2,2.5,2.9,5.3,5.8,7.9,8.6,7,7.4,13.9,14.9,20.9,22.3,4.6,4.9,9.2,9.8,13.7,14.8,1.1,1.1,2.2,2.3,3.6,3.9h0Z"/><path class="cls-2" d="m91.9,77.21c.1-5.3,4.4-9.5,9.7-9.5,5.3.1,9.5,4.4,9.5,9.7-.1,5.3-4.4,9.5-9.6,9.5s-9.5-4.3-9.5-9.5q-.1-.1-.1-.2h0Z"/></g></svg>