<?xml version="1.0"?><svg xmlns="http://www.w3.org/2000/svg" viewBox="0 0 24 24"><path fill="#FFF" d="M7.39 21.932L.61 15.1c-.83-.83-.83-2.609 0-3.39L10.31 1.96c.78-.78 2.52-.78 3.29 0l9.75 9.753c.82.82.82 2.61 0 3.391l-6.779 6.82c-.42.41-1.06.68-1.7.68H8.97c-.6-.01-1.19-.28-1.61-.69Zm6.18-2.66c.13-.14.13-.42 0-.55l-1.33-1.33c-.14-.15-.42-.15-.55 0l-1.33 1.31c-.14.13-.14.4 0 .54l1.05 1h1.09l1.06-1.02 -.02.03Zm0-5.64c.09-.09.09-.32 0-.42l-1.42-1.41c-.09-.1-.32-.1-.42 0L7.6 15.92c-.14.15-.14.46 0 .6l.95.96h1.1l3.89-3.86v-.01Zm0-5.587c.09-.1.13-.37 0-.46L12.195 6.2c-.09-.11-.37-.11-.51 0L4.77 13.11c-.1.09-.14.359-.05.44l1.1 1.05H6.87l6.687-6.59Z"></path></svg>