<svg xmlns="http://www.w3.org/2000/svg" viewBox="0 0 640 512">
  <g fill="#FFF">
    <path
      d="M496 224c-79.5 0-144 64.5-144 144s64.5 144 144 144 144-64.5 144-144 -64.5-144-144-144Zm67.3 117.1l-74.66 74.66c-3.125 3.125-7.22 4.68-11.31 4.68 -4.1 0-8.19-1.57-11.31-4.69l-37.34-37.33c-6.25-6.25-6.25-16.37 0-22.62s16.38-6.25 22.62 0l26.03 26.02 63.37-62.43c6.25-6.25 16.38-6.25 22.62 0 6.24 6.25 6.28 16.3-.02 21.7Z"></path>
    <path opacity=".4"
      d="M256 160c-17.7 0-32 14.3-32 32s14.31 32 32 32h96c17.69 0 32-14.33 32-32s-14.31-32-32-32h-16V32c0-9.703-4.41-18.89-11.97-24.97C316.4.96 306.5-1.32 297.1.76l-48 10.67c-17.3 3.83-28.2 20.92-24.3 38.17 3.8 17.28 21 28.16 38.1 24.3l9.1-2.02v88.11h-16ZM128 448h-16V320c0-9.71-4.41-18.89-11.97-24.97 -7.58-6.93-17.52-8.33-26.96-6.23l-48 10.67C7.82 303.29-3.05 320.39.76 337.64c3.875 17.28 21 28.16 38.19 24.3l9.06-2.02v88.07h-16c-17.69 0-32 14.33-32 32s14.31 32 32 32h96c17.69 0 32-14.33 32-32s-14.32-32-32.012-32Zm64-384c0-35.3-28.72-64-64-64H64C28.72 0 0 28.7 0 64v96c0 35.3 28.72 64 64 64h64c35.28 0 64-28.7 64-64V64ZM64 160V64h64l.03 96H63.99Zm192 288v-96h56.81c1.93-22.41 7.95-43.6 17.2-62.99 -3.31-.51-6.61-1.01-10.01-1.01h-64c-35.28 0-64 28.7-64 64v96c0 35.3 28.72 64 64 64h64c16.64 0 31.68-6.54 43.08-16.99 -13.17-13.78-24.02-29.7-32.44-47.01H256Z"></path>
  </g>
</svg>