<svg xmlns="http://www.w3.org/2000/svg" viewBox="0 0 448 512">
  <g fill="#FFF">
    <path
      d="M384 0H64C28.65 0 0 28.65 0 64v64h448V64c0-35.35-28.7-64-64-64ZM208 400h-96c-8.8 0-16 7.2-16 16 0 8.83 7.16 16 16 16h96c8.83 0 16-7.17 16-16 0-8.8-7.2-16-16-16Zm128-192H112c-8.8 0-16 7.2-16 16 0 8.83 7.16 16 16 16h224c8.8 0 16-7.2 16-16s-7.2-16-16-16Zm0 96H112c-8.8 0-16 7.2-16 16 0 8.83 7.16 16 16 16h224c8.83 0 16-7.17 16-16 0-8.8-7.2-16-16-16Z"></path>
    <path opacity=".4"
      d="M0 128v320c0 35.35 28.65 64 64 64h320c35.35 0 64-28.65 64-64V128H0Zm208 304h-96c-8.8 0-16-7.2-16-16 0-8.84 7.16-16 16-16h96c8.83 0 16 7.16 16 16 0 8.8-7.2 16-16 16Zm128-96H112c-8.8 0-16-7.2-16-16 0-8.84 7.16-16 16-16h224c8.83 0 16 7.16 16 16 0 8.8-7.2 16-16 16Zm0-96H112c-8.8 0-16-7.2-16-16 0-8.84 7.16-16 16-16h224c8.8 0 16 7.2 16 16s-7.2 16-16 16Z"></path>
  </g>
</svg>