<?xml version="1.0"?>
<svg xmlns="http://www.w3.org/2000/svg" viewBox="0 0 512 512">
  <g fill="#FFF">
    <path
      d="M412.6 119.4C374.47 75.71 318.51 47.99 256 47.99c-114.9 0-207.1 93.1-207.1 207.1 0 62.54 27.71 118.5 71.4 156.6 39.04-18.52 100.8-66.4 163.8-129.4 62.1-62.09 110-123.79 128.5-162.89Zm35.5 56.9c-31.97 46.03-74.53 96.85-124.8 147.1 -50.27 50.25-101.1 92.81-147.1 124.8 24.56 10.21 51.47 15.83 79.73 15.83 114.9 0 207.1-93.1 207.1-207.1 .07-29.23-4.73-56.13-14.93-80.63Z"></path>
    <path opacity=".4"
      d="M323.4 323.4C187 459.8 46.2 540.1 9.1 502.9c-23.5-23.47-.01-88.2 54.84-167.1 6.22 14.92 14.7 28.43 24.05 41.37 -9.81 19.82-12.64 34.3-6.4 40.54 18.56 18.56 108.9-41.63 201.7-134.5 92.82-92.82 153-183.1 134.5-201.7 -6.24-6.24-20.72-3.41-40.54 6.4 -12.94-9.35-26.45-17.82-41.37-24.05 78.95-54.85 143.7-78.34 167.1-54.84 37.11 37.16-43.29 177.079-179.59 314.37Z"></path>
  </g>
</svg>