<svg xmlns="http://www.w3.org/2000/svg" viewBox="0 0 512 512">
  <g fill="#FFF">
    <path
      d="M332.3 426.4c-93.13 17.75-178.5-53.63-178.5-147.6 0-54.25 29-104 76-130.9 7.375-4.125 5.45-15.12-2.8-16.62C108.7 109.4 0 200 0 320c0 106 85.76 192 191.8 192 59.25 0 113.2-26.79 148.9-71.04 5.4-6.46-.4-16.16-8.4-14.56Z"></path>
    <path opacity=".4"
      d="M288 63.1l12.42 29.78c.6 1.22 2.21 2.21 3.57 2.21 1.36 0 2.96-1 3.57-2.22l12.42-29.78 29.79-12.42c1.21.29 2.21-1.32 2.21-3.58 0-1.37-1-2.97-2.22-3.58l-29.79-12.42L307.55 1.3c-.61-1.23-2.21-2.217-3.58-2.217s-2.97.99-3.58 2.217l-12.42 29.79 -29.81 13.31c-1.22.6-2.21 2.21-2.21 3.57 0 1.35.99 2.97 2.2 3.58l29.8 11.52Zm219.6 153.8L448 192l-24.88-59.63c-1.32-2.57-4.12-5.27-7.12-5.27s-5.75 1.75-7.125 4.375L384 191.99l-59.63 24.88c-2.57 1.42-4.37 4.12-4.37 7.12s1.75 5.75 4.375 7.125L384 255.99l24.88 59.63c1.42 2.67 4.12 4.37 7.12 4.37s5.75-1.75 7.125-4.375L448 255.99l59.63-24.88c2.67-1.32 4.37-4.12 4.37-7.12s-1.7-5.7-4.4-7.1Z"></path>
  </g>
</svg>