<svg xmlns="http://www.w3.org/2000/svg" viewBox="0 0 512 512"><g fill="#FFF"><path d="M509.5 19.78c-3.25-7.84-9.48-14.08-17.32-17.32C488.3.84 484.2 0 480 0H352c-17.69 0-32 14.31-32 32 0 17.69 14.31 32 32 32h50.75l-113.4 113.4c-12.5 12.5-12.5 32.75 0 45.25 12.49 12.49 32.74 12.51 45.25 0L448 109.3V160c0 17.69 14.31 32 32 32 17.69 0 32-14.31 32-32V32c0-4.16-.8-8.31-2.5-12.22Z"></path><path opacity=".4" d="M177.4 289.4L64 402.8V352c0-17.69-14.31-32-32-32 -17.69 0-32 14.31-32 32v128c0 4.16.84 8.31 2.465 12.22 3.24 7.83 9.47 14.07 17.31 17.31 3.91 1.67 8.06 2.47 12.22 2.47h128c17.69 0 32-14.31 32-32 0-17.69-14.31-32-32-32h-50.7l113.4-113.4c12.5-12.5 12.5-32.75 0-45.25s-32.8-12.45-45.3.05Z"></path></g></svg>