<svg xmlns="http://www.w3.org/2000/svg" viewBox="0 0 496 512">
  <path fill="#FFF"
    d="M496 256c0 137-111.2 248-248.4 248C133.8 504 38 427.7 8.6 323.6l95.2 39.3c6.4 32.1 34.9 56.4 68.9 56.4 39.2 0 71.9-32.4 70.2-73.5l84.5-60.2c52.1 1.3 95.8-40.9 95.8-93.5 0-51.6-42-93.5-93.7-93.5s-93.7 42-93.7 93.5v1.2L176.6 279c-15.5-.9-30.7 3.4-43.5 12.1L0 236.1C10.2 108.4 117.1 8 247.6 8 384.8 8 496 119 496 256ZM155.7 384.3l-30.5-12.6h-.001c5.6 11.63 15.28 20.81 27.2 25.8 26.9 11.2 57.8-1.6 69-28.4 5.4-13 5.5-27.3.1-40.3 -5.4-13-15.5-23.2-28.5-28.6 -12.9-5.4-26.7-5.2-38.9-.6l31.5 13c19.8 8.2 29.2 30.9 20.9 50.7 -8.3 19.9-31 29.2-50.8 21Zm173.8-129.9c-34.4 0-62.4-28-62.4-62.3s28-62.3 62.4-62.3 62.4 28 62.4 62.3 -27.9 62.3-62.4 62.3Zm.1-15.6c25.9 0 46.9-21 46.9-46.8 0-25.9-21-46.8-46.9-46.8s-46.9 21-46.9 46.8c.1 25.8 21.1 46.8 46.9 46.8Z"></path>
</svg>