<svg xmlns="http://www.w3.org/2000/svg" viewBox="0 0 448 512"><g fill="#FFF"><path d="M224 400c-17.67 0-32 14.33-32 32s14.33 32 32 32 32-14.33 32-32 -14.3-32-32-32ZM400 64h-48V31.1C352 14.4 337.6 0 320 0c-17.6 0-32 14.4-32 31.1V64H160V31.1C160 14.4 145.6 0 128 0c-17.6 0-32 14.4-32 31.1V64H48C21.49 64 0 85.49 0 112v80h448v-80c0-26.51-21.5-48-48-48ZM224 368c13.25 0 24-10.75 24-24v-80c0-13.25-10.75-24-24-24s-24 10.8-24 24v80c0 13.3 10.8 24 24 24Z"></path><path opacity=".4" d="M0 192v272c0 26.5 21.5 48 48 48h352c26.5 0 48-21.5 48-48V192H0Zm200 72c0-13.2 10.8-24 24-24s24 10.75 24 24v80c0 13.25-10.75 24-24 24s-24-10.75-24-24v-80Zm24 200c-17.67 0-32-14.33-32-32s14.33-32 32-32 32 14.33 32 32 -14.3 32-32 32Z"></path></g></svg>