<svg xmlns="http://www.w3.org/2000/svg" viewBox="0 0 512 512"><g fill="#FFF"><path d="M414.1 407.6c-2.8 5.2-8.2 8.4-14.1 8.4H112c-6.03 0-11.53-3.38-14.26-8.75 -2.73-5.37-2.22-11.81 1.33-16.68l70-96c3.02-4.17 7.82-6.57 12.02-6.57 5.1 0 9.91 2.44 12.93 6.57l22.35 30.66 62.74-94.11c2.98-4.43 7.98-7.13 14.18-7.13 5.34 0 10.34 2.67 13.31 7.125l106.7 160c3.29 4.875 3.59 11.17.79 16.47Z"></path><path opacity=".4" d="M464 96H272l-64-64H48C21.5 32 0 53.5 0 80v352c0 26.5 21.5 48 48 48h416c26.5 0 48-21.5 48-48V144c0-26.5-21.5-48-48-48Zm-336.9 96c17.68 0 32 14.33 32 32s-14.32 32-32 32c-17.67 0-32-14.33-32-32s15.2-32 32-32Zm287 215.6c-2.8 5.2-8.2 8.4-14.1 8.4H112c-6.03 0-11.53-3.38-14.26-8.75 -2.73-5.37-2.22-11.81 1.33-16.68l70-96c3.02-4.17 7.82-6.57 12.02-6.57 5.1 0 9.91 2.44 12.93 6.57l22.35 30.66 62.74-94.11c2.98-4.43 7.98-7.13 14.18-7.13 5.34 0 10.34 2.67 13.31 7.125l106.7 160c3.29 4.875 3.59 11.17.79 16.47Z"></path></g></svg>