<?xml version="1.0"?>
<svg xmlns="http://www.w3.org/2000/svg" viewBox="0 0 512 512">
  <g fill="#FFF">
    <path opacity=".4"
      d="M496 384H176v0c-8.84 0-16 7.16-16 16v32 0c0 8.83 7.16 16 16 16h320v0c8.83 0 16-7.17 16-16v-32 0c0-8.84-7.17-16-16-16Zm0-320H176v0c-8.84 0-16 7.16-16 16v32 0c0 8.83 7.16 16 16 16h320v0c8.83 0 16-7.17 16-16V80v0c0-8.84-7.17-16-16-16Zm0 160H176v0c-8.84 0-16 7.16-16 16v32 0c0 8.83 7.16 16 16 16h320v0c8.83 0 16-7.17 16-16v-32 0c0-8.84-7.17-16-16-16Z"></path>
    <path
      d="M80 368H16v0c-8.84 0-16 7.16-16 16v64 0c0 8.83 7.16 16 16 16h64v0c8.83 0 16-7.17 16-16v-64 0c0-8.84-7.17-16-16-16Zm0-320H16v0C7.16 48 0 55.16 0 64v64 0c0 8.83 7.16 16 16 16h64v0c8.83 0 16-7.17 16-16V64v0c0-8.84-7.17-16-16-16Zm0 160H16v0c-8.84 0-16 7.16-16 16v64 0c0 8.83 7.16 16 16 16h64v0c8.83 0 16-7.17 16-16v-64 0c0-8.84-7.17-16-16-16Z"></path>
  </g>
</svg>