<svg xmlns="http://www.w3.org/2000/svg" viewBox="0 0 448 512"><g fill="#FFF"><path d="M288 192c-17.69 0-32 14.33-32 32v64c0 17.67 14.31 32 32 32 17.69 0 32-14.33 32-32v-64c0-17.7-14.3-32-32-32Zm-96-32c-17.7 0-32 14.3-32 32v56.14c26.99.02 51.79 15.33 64 39.38V192c0-17.7-14.3-32-32-32Z"></path><path opacity=".4" d="M384 64c-17.69 0-32 14.33-32 32v192c0 35.34-28.66 64-64 64 -19.22 0-36.27-8.66-48-22.07 -3.3 3.76-7.09 7.03-11.14 9.96 -7.06 24.3-26.46 44.3-52.86 50.3l-61.14 13.95 -18.36-28.65 72.4-16.5c18.54-4.24 31.1-20.72 31.1-38.97 0-20.41-16.26-40.03-39.97-40.03 -2.95 0-5.95.32-8.95.99l-120 27.38c-29.22 6.67-31.1 34.69-31.1 39.01 0 5.58 1.16 11.17 3.508 16.38l22.09 49.11c27.07 60.22 87.219 99.12 153.21 99.12h61.2c97.03 0 176-78.95 176-176v-240c0-17.67-14.3-32-32-32ZM128 32c0-17.67-14.31-32-32-32C78.31 0 64 14.33 64 32v236l64-14.6V32Z"></path></g></svg>