<svg xmlns="http://www.w3.org/2000/svg" viewBox="0 0 512 512"><g fill="#FFF"><path d="M504.1 400.1L425 480.08c-15.13 15.12-40.99 4.39-40.99-17V416H320c-10.06 0-19.56-4.75-25.59-12.81L112 160H32c-17.69 0-32-14.3-32-32s14.31-32 32-32h96c10.06 0 19.56 4.75 25.59 12.81L336 352h47.97v-48.9c0-21.39 25.87-32.09 40.1-16.97l79.99 79.98c10.24 10.29 10.24 25.49.04 33.99Z"></path><path opacity=".4" d="M112 352H32c-17.69 0-32 14.31-32 32 0 17.69 14.31 32 32 32h96c10.06 0 19.56-4.75 25.59-12.81L224 309.3 184 256l-72 96Zm392.1-241L425 31.02c-15.13-15.12-40.99-4.4-40.99 17V96H320c-10.06 0-19.56 4.75-25.59 12.81L224 202.7l39.1 53.3 72.9-96h47.97v48.03c0 21.39 25.87 32.09 40.1 16.97l79.1-79.98c11.23-9.42 11.13-24.62.93-34.02Z"></path></g></svg>