<svg xmlns="http://www.w3.org/2000/svg" viewBox="0 0 448 512"><g fill="#FFF"><path d="M224 312c-32.88 0-64 8.625-64 43.75 0 33.13 12.88 104.3 20.62 132.8C185.8 507.6 205.1 512 224 512c18.9 0 38.25-4.375 43.38-23.38C275.1 459.9 288 388.8 288 355.8c0-35.2-31.1-43.8-64-43.8Zm0-32c30.95 0 56-25.05 56-56s-25.9-56-56-56 -56 25-56 56 25 56 56 56Z"></path><path opacity=".4" d="M368 224c0-79.53-64.47-144-144-144s-144 64.5-144 144c0 44.83 20.92 84.38 53.04 110.8 4.85-12.65 14.13-25.88 32.05-35.04 .01-.06.31-.06.51-.06 -22.7-17.6-37.6-44.8-37.6-75.7 0-53.02 42.98-96 96-96s96 42.98 96 96c0 30.92-14.87 58.13-37.57 75.68 .13.02.5.04.47.07 17.93 9.16 27.19 22.38 32.05 35.04 32.14-26.4 53.04-66 53.04-110.8ZM224 0C100.3 0 0 100.3 0 224c0 92.22 55.77 171.4 135.4 205.7 -3.48-20.75-6.17-41.59-7-58.15C80.07 340.1 47.99 285.8 47.99 224c0-97.05 78.95-176 176-176s176 78.95 176 176c0 61.79-32.08 116.1-80.39 147.6 -.84 16.5-3.55 37.37-7.04 58.17C392.185 395.4 447.985 316.2 447.985 224c0-123.7-100.3-224-224-224Z"></path></g></svg>