<svg xmlns="http://www.w3.org/2000/svg" viewBox="0 0 640 512">
  <g fill="#FFF">
    <path
      d="M176 143.1c0-18.28-14.95-32-32-32 -8.19 0-16.38 3.125-22.62 9.37l-112 112c-6.26 7.12-9.38 15.32-9.38 22.62 0 7.3 3.125 17.3 9.37 23.5l112 112c6.22 6.3 14.42 8.5 22.625 8.5 17.05 0 32-13.73 32-32 0-8.19-3.125-16.38-9.375-22.63l-89.375-89.37 89.38-89.38c6.27-5.42 9.37-13.52 9.37-22.62Zm464 112c0-8.19-3.125-16.38-9.375-22.63l-112-112c-6.23-5.37-14.43-9.37-22.625-9.37 -17.05 0-32 13.73-32 32 0 8.18 3.125 16.38 9.375 22.63l89.38 89.38 -89.38 89.38C467.095 351.6 464 359.8 464 367.1c0 18.28 14.95 32 32 32 8.18 0 16.38-3.125 22.62-9.38l112-112c6.28-5.33 9.38-13.53 9.38-22.63Z"></path>
    <path opacity=".4"
      d="M416 31.94C416 21.75 408.1 0 384.1 0c-13.98 0-26.87 9.07-30.89 23.18l-128 448c-.85 2.93-1.25 5.89-1.25 8.8 -.87 10.31 8.03 32.01 32.03 32.01 13.92 0 26.73-9.16 30.75-23.22l128-448c.85-2.97 1.25-5.93 1.25-8.84Z"></path>
  </g>
</svg>