<svg xmlns="http://www.w3.org/2000/svg" viewBox="0 0 448 512"><g fill="#FFF"><path d="M80 352c-44.18 0-80 35.8-80 80s35.82 80 80 80c44.2 0 80-35.8 80-80s-35.8-80-80-80Zm0 104c-13.23 0-24-10.77-24-24s10.77-24 24-24 24 10.77 24 24 -10.77 24-24 24ZM80 0C35.82 0 0 35.82 0 80c0 44.18 35.82 80 80 80 44.2 0 80-35.8 80-80s-35.8-80-80-80Zm0 104c-13.23 0-24-10.77-24-24s10.77-24 24-24 24 10.77 24 24 -10.77 24-24 24Zm288 88c-44.2 0-80 35.8-80 80s35.82 80 80 80 80-35.82 80-80 -35.8-80-80-80Zm0 104c-13.23 0-24-10.77-24-24s10.77-24 24-24 24 10.77 24 24 -10.8 24-24 24Z"></path><path opacity=".4" d="M288 272c0 11.39 2.46 22.19 6.75 32h-70.76c-42.51 0-81.55-15.16-112-40.34v95.1c-9.8-4.26-20.61-6.76-32-6.76s-22.19 2.46-32 6.75V153.19c9.81 4.3 20.61 6.8 32 6.8 12.48 0 24.14-3.11 34.67-8.21 10.93 50.303 55.73 88.203 109.33 88.203h70.75c-4.25 9.8-6.75 20.6-6.75 32Z"></path></g></svg>