<svg xmlns="http://www.w3.org/2000/svg" viewBox="0 0 576 512">
  <g fill="#FFF">
    <path
      d="M525.6 101.7L416 177.3v157.4l109.6 75.49c21.2 14.61 50.4-.29 50.4-25.79V127.5c0-25.4-29.1-40.37-50.4-25.8ZM272 232h-56.9v-56.9c0-12.4-9.8-23.1-23.1-23.1s-24 10.7-24 23.1V232h-56.9C98.74 232 88 242.7 88 256c0 13.26 10.73 23.1 23.1 23.1H168v56c0 14.2 10.7 24.9 24 24.9 13.26 0 23.1-10.74 23.1-23.1v-57.8H272c13.3 0 24-9.8 24-23.1s-10.7-24-24-24Z"></path>
    <path opacity=".4"
      d="M336 64H48C21.49 64 0 85.49 0 112v288c0 26.5 21.49 48 48 48h288c26.51 0 48-21.49 48-48V112c0-26.51-21.5-48-48-48Zm-64 215.1h-56.9v56c0 14.2-9.8 24.9-23.1 24.9 -13.27 0-23.1-10.74-23.1-23.1v-57.8h-57.8c-12.37 0-23.1-9.8-23.1-23.1 0-13.26 10.74-23.1 23.1-23.1H168v-57.8c0-12.4 10.7-23.1 24-23.1s23.1 10.74 23.1 23.1V232H272c13.3 0 24 10.7 24 24s-10.7 23.1-24 23.1Z"></path>
  </g>
</svg>