<svg xmlns="http://www.w3.org/2000/svg" viewBox="0 0 24 24">
  <g fill="#FFF">
    <path
      d="M3.5 0C1.57 0 0 1.57 0 3.5c0 1.76 2.772 5.82 3.088 6.28 .09.13.24.21.41.21 .16 0 .31-.09.41-.22 .31-.46 3.088-4.53 3.088-6.29 0-1.93-1.57-3.5-3.5-3.5Zm0 5C2.67 5 2 4.32 2 3.5 2 2.67 2.67 2 3.5 2 4.32 2 5 2.67 5 3.5 5 4.32 4.32 5 3.5 5Z"></path>
    <path
      d="M7.004 9.099c-.46-.07-.97-.1-1.492-.1 -.28-.03-.52.22-.52.5 0 .27.22.5.5.5 .47.01.94.02 1.36.08 .02 0 .04 0 .07 0 .24 0 .45-.18.49-.43 .03-.28-.16-.53-.43-.57Z"></path>
    <path
      d="M10.685 11.22c-.41-.64-.96-1.14-1.63-1.5 -.25-.13-.55-.04-.68.2 -.13.24-.04.54.2.67 .52.28.94.65 1.26 1.15 .09.14.25.22.42.22 .09 0 .18-.03.27-.09 .23-.15.29-.46.14-.7Z"></path>
    <path
      d="M13.949 22.192c-.5-.32-.89-.73-1.19-1.26 -.14-.24-.45-.33-.69-.19 -.24.13-.33.44-.19.68 .38.67.87 1.19 1.513 1.6 .08.05.17.07.26.07 .16 0 .32-.09.42-.24 .14-.24.08-.55-.16-.69Z"></path>
    <path
      d="M17.5 23c-.7 0-1.33-.06-1.88-.17 -.28-.06-.54.12-.59.39 -.06.27.12.53.391.59 .61.125 1.31.18 2.07.18 .27 0 .5-.23.5-.5 0-.28-.23-.5-.5-.5Z"></path>
    <path
      d="M11.274 15.824c.01 0 .02-.01.04-.01 .27-.03.47-.27.45-.54 -.08-.85-.17-1.49-.29-2.05 -.07-.27-.34-.44-.6-.38 -.27.06-.44.33-.38.59 .11.52.2 1.11.26 1.91 .02.26.24.45.49.45Z"></path>
    <path
      d="M12.162 19.21c-.14-.67-.21-1.38-.25-1.93 -.03-.28-.27-.49-.54-.46 -.28.02-.49.26-.46.53 .04.57.11 1.33.26 2.04 .04.23.25.4.48.4 .03 0 .06-.01.1-.01 .27-.06.44-.32.39-.59Z"></path>
    <path
      d="M19.5 10c-2.49 0-4.5 2.019-4.5 4.5 0 2.279 3.65 8.54 4.06 9.25 .09.15.25.24.43.24 .17 0 .34-.1.43-.25 .41-.71 4.06-6.98 4.06-9.26 0-2.481-2.02-4.5-4.5-4.5Zm0 7c-1.38 0-2.5-1.13-2.5-2.5 0-1.38 1.12-2.5 2.5-2.5 1.37 0 2.5 1.12 2.5 2.5 0 1.37-1.13 2.5-2.5 2.5Z"></path>
  </g>
</svg>