<svg xmlns="http://www.w3.org/2000/svg" viewBox="0 0 576 512"><g fill="#FFF"><path d="M288 200c-30.9 0-56 25.1-56 56s25.1 56 56 56 56-25.1 56-56 -25.1-56-56-56Z"></path><path opacity=".4" d="M64 256c0-51.5 16.98-99.91 49.13-139.1 11.05-13.78 8.84-33.94-4.96-45 -13.75-10.97-33.89-8.82-44.98 4.93C22.43 126.79-.01 190.69-.01 255.99c0 65.28 22.44 129.2 63.19 180 6.33 7.9 15.61 12 24.98 12 7.03 0 14.09-2.32 20-7.04 13.8-11.06 16-31.22 4.95-45 -32.15-40.07-49.13-88.469-49.13-139.969ZM512.8 75.96c-11.09-13.78-31.23-15.97-44.98-4.94 -13.8 11.06-16 31.22-4.96 45 32.13 40.07 49.13 88.478 49.13 139.978 0 51.5-16.98 99.91-49.13 139.1 -11.05 13.78-8.85 33.94 4.95 45 5.87 5.6 12.97 7.9 19.97 7.9 9.375 0 18.66-4.1 24.98-11.97 40.82-50.83 63.22-114.73 63.22-180.03s-22.4-129.2-63.2-180.04ZM392.3 149.1c-9.97 8.75-10.95 23.91-2.19 33.87 34.97 39.78 34.97 104.5 0 144.3 -8.76 9.96-7.78 25.12 2.19 33.87 4.56 3.1 10.21 5.96 15.84 5.96 6.67 0 13.32-2.75 18.06-8.16 50.33-57.25 50.33-150.4 0-207.7 -8.8-9.06-23.9-10.06-33.9-2.16Zm-208.6 0c-9.9-7.9-25.1-6.9-33.9 3.1 -50.33 57.25-50.33 150.4 0 207.7 4.73 5.4 11.39 8.15 18.06 8.15 5.61 0 11.28-1.97 15.84-5.97 9.96-8.75 10.95-23.91 2.19-33.87 -34.97-39.78-34.97-104.5 0-144.3 8.81-10.02 7.81-25.22-2.19-34.82Z"></path></g></svg>