<svg xmlns="http://www.w3.org/2000/svg" viewBox="0 0 24 24">
  <path fill="#FFF"
    d="M7.75 13c-.01-.36.14-.7.42-.92 .74.16 1.45.47 2.08.91 0 .69-.56 1.25-1.25 1.25s-1.25-.56-1.25-1.24Zm6 0c.62-.44 1.33-.75 2.08-.91 .27.22.42.56.42.92 0 .69-.56 1.25-1.25 1.25 -.7 0-1.25-.56-1.25-1.25V13ZM12 9c-2.78-.05-5.51.64-7.93 2L4 12c0 1.22.29 2.44.84 3.54C7.2 15.17 9.6 14.99 12 15c2.39-.01 4.79.17 7.16.54 .54-1.1.83-2.32.84-3.54l-.07-1C17.5 9.64 14.77 8.95 12 9Zm0-7c5.52 0 10 4.47 10 9.99 0 5.52-4.48 10-10 10 -5.53 0-10-4.48-10-10 0-5.53 4.47-10 10-10Z"></path>
</svg>