<svg xmlns="http://www.w3.org/2000/svg" viewBox="0 0 512 512"><g fill="#FFF"><path d="M416 224c-17.69 0-32 14.33-32 32v64c0 17.67 14.31 32 32 32 17.69 0 32-14.33 32-32v-64c0-17.7-14.3-32-32-32Zm-96-32c-17.69 0-32 14.33-32 32v96c0 17.67 14.31 32 32 32 17.69 0 32-14.33 32-32v-96c0-17.7-14.3-32-32-32Z"></path><path opacity=".4" d="M256 287.4V32c0-17.67-14.31-32-32-32 -17.69 0-32 14.33-32 32v216.3c26.7.1 51.7 14.8 64 39.1Zm-85.2-36.2c2.51-.78 5.04-1.03 7.57-1.52L93.41 51.38c-5.2-12.14-17.07-19.42-29.44-19.42C43 31.96 32 49.97 32 64c0 4.2.83 8.48 2.59 12.6l81.97 191.3 54.23-16.71ZM368 361.9c-11.7 13.4-28.8 22.1-48 22.1 -27.41 0-50.62-17.32-59.73-41.55 -7.06 21.41-23.9 39.23-47.08 46.36l-47.96 14.76c-1.57.48-3.15.71-4.71.71 -6.29 0-12.18-3.73-14.74-9.79 -.86-2.04-1.27-4.15-1.27-6.22 0-6.79 4.36-13.16 11.3-15.3l46.45-14.29c17.2-5.3 29.76-20.98 29.76-38.63 0-34.19-32.54-40.07-40.02-40.07 -3.89 0-7.85.57-11.76 1.77l-104 32c-18.23 5.6-28.25 22.21-28.25 38.22 0 4.26.68 8.54 2.058 12.67l18.13 54.34c18.52 55.5 70.51 93 129.01 93h74.8c82.54 0 151.8-57.21 170.7-134 -8.1 3.8-17.1 6-26.7 6 -19.2 0-36.3-8.7-48-22.1Z"></path></g></svg>