<svg xmlns="http://www.w3.org/2000/svg" viewBox="0 0 640 512"><g fill="#FFF"><path d="M352 432c0 8.83-7.17 16-16 16H176c-8.84 0-16-7.17-16-16V128H48c-26.51 0-48 21.5-48 48v288c-.001 26.51 21.49 48 48 48h416c26.51 0 48-21.49 48-48l-.01-80h-160v48Zm-248 7c0 4.96-4.04 9-9 9H65c-4.97 0-9-4.04-9-9v-30c0-4.97 4.03-9 9-9h30c4.96 0 9 4.03 9 9v30Zm0-104c0 4.96-4.04 9-9 9H65c-4.97 0-9-4.04-9-9v-30c0-4.97 4.03-9 9-9h30c4.96 0 9 4.03 9 9v30Zm0-104c0 4.96-4.04 9-9 9H65c-4.97 0-9-4.04-9-9v-30c0-5 4.03-9 9-9h30c4.96 0 9 4.03 9 9v30Zm304 178c0-4.97 4.03-9 9-9h30c4.96 0 9 4.03 9 9v30c0 4.96-4.04 9-9 9h-30c-4.97 0-9-4.04-9-9v-30Zm165.3-145.9l-106.7-160c-2.9-4.43-7.9-7.1-13.3-7.1 -5.36 0-10.35 2.67-13.31 7.125l-62.74 94.11 -22.35-30.66c-3-4.18-7.8-6.58-13.8-6.58 -5.11 0-9.92 2.44-12.93 6.57l-70 96c-2.67 4.82-3.17 11.32-.47 16.726 2.8 5.3 7.4 8.7 13.4 8.7h288c5.89 0 11.32-3.25 14.11-8.45 3.69-5.26 3.39-11.56.09-16.46Z"></path><path opacity=".4" d="M591.1 0h-352c-25.6 0-48 21.49-48 48v256c0 26.51 21.49 48 48 48h352c26.51 0 48-21.49 48-48V48c.9-26.51-20.6-48-48-48Zm-288 64c17.68 0 32 14.33 32 32s-14.32 32-32 32c-16.8 0-32-14.3-32-32s15.2-32 32-32Zm271 215.6c-2.8 5.2-8.2 8.4-14.1 8.4H271.1c-6 0-10.6-3.4-13.4-8.7 -2.7-5.4-2.2-11.9 1.4-16.7l70-96c3-4.2 7.8-6.6 12-6.6 5.11 0 9.91 2.44 12.93 6.57l22.35 30.66 62.74-94.11c2.98-4.46 7.98-7.13 14.18-7.13 5.34 0 10.34 2.67 13.31 7.125l106.7 160c3.29 4.875 3.59 11.17.79 16.47Z"></path></g></svg>