<svg xmlns="http://www.w3.org/2000/svg" viewBox="0 0 512 512"><g fill="#FFF"><path d="M0 128l128-.01v-32H0v32Zm0 288h128l0-31.1L-.01 384v32Zm160 0h127.1v-31.1l-127.1-.01 -.001 31.1Zm350.9 39.3l-16.48-61.67 -122.7 33.05 16.44 61.66c4.52 16.98 22 27.12 38.9 22.57l61.29-16.52c16.95-4.59 27.05-22.09 22.55-39.09Zm-90.4-339.1l-122.8 33 65.77 246.7 122.7-33.04L420.5 116.2Zm-24.7-92.54c-4.53-16.98-22-27.12-38.9-22.57l-61.37 16.52c-16.9 4.55-26.99 22.11-22.46 39.09L283.55 96H160l0 32 127.1 0 -.01-15.36 1.52 5.72 122.7-33.05 -15.53-61.66Z"></path><path opacity=".4" d="M0 384l128-.01v-256H0v256ZM96 0H31.1C14.38 0-.001 14.37-.001 31.99v63.1l128-.01 0-63.1c-.01-17.62-14.41-32-32.01-32ZM0 479.09c0 17.62 14.38 31.1 31.1 31.1h64c17.62 0 31.1-14.37 31.1-31.1l1.8-63.1h-128v63.1ZM412.3 85.31l-122.8 33.08 8.22 30.83 122.7-33.04 -8.13-30.87Zm73.9 277.48l-122.7 33.04 8.22 30.83 122.7-33.05 -8.23-30.82ZM160 383.99l127.1 0V127.98H160v256Zm0 95.1c0 17.62 14.38 31.1 32 31.1h63.1c17.62 0 31.98-14.36 31.1-31.98v-64.02H159.1l.9 64.9ZM273.1 56.7c-3.58-13.41 2.16-26.9 12.96-34.34C281.9 9.5 270.23 0 256.02 0h-63.1c-17.63 0-32 14.37-32 31.1L160 95.99l123.6 0 -10.5-39.3Z"></path></g></svg>