<?xml version="1.0" encoding="UTF-8"?><svg id="Layer_2" xmlns="http://www.w3.org/2000/svg" viewBox="0 0 374.7 633.7"><defs><style>.cls-1{fill:#fff;fill-rule:evenodd;}</style></defs><g id="Layer_1-2"><path id="path0" class="cls-1" d="m183.38,1.5c-.23.82-.42,1.73-.42,2.01,0,.28-.43,1.36-.94,2.4-.52,1.04-1.16,3.05-1.44,4.48-.27,1.43-.84,3.27-1.26,4.1-.55,1.08-.88,3.01-1.18,6.81-.44,5.65-.74,7.6-1.74,11.1-.35,1.21-.63,3.01-.64,4-.01,1.91-.72,4.89-1.72,7.2-.33.77-.73,2.26-.89,3.31-.56,3.77-6.39,5.09-9.49,2.16-.27-.26-1.26-.97-2.19-1.57-.93-.61-2.73-2.19-4-3.53-10.89-11.45-13.66-14.11-14.22-13.65-.74.61-.29,3.72.87,6,.45.89,1.07,3.03,1.37,4.74.3,1.72.91,3.85,1.35,4.73s1.04,2.86,1.33,4.4c.29,1.54.84,3.26,1.23,3.83.39.57.92,1.92,1.18,3,.26,1.08.72,2.38,1.03,2.87.31.49.84,2.02,1.19,3.4.35,1.38.96,3.04,1.35,3.7.39.66.94,2.28,1.22,3.6.27,1.32.94,3.06,1.48,3.87.54.81,1.08,2.25,1.2,3.2.12.95.55,2.2.95,2.77.4.57,1.01,2.46,1.36,4.2.35,1.74.96,3.79,1.37,4.56.78,1.47,2.03,6.47,2.03,8.12,0,.53.33,1.4.74,1.92s.96,2.21,1.22,3.75c.26,1.54.77,3.43,1.13,4.2.69,1.48,1.67,7.44,1.7,10.32,0,1.1.32,2.12.85,2.85.74,1,.91,2.19,1.44,10.08.37,5.53.82,9.43,1.16,10.21.68,1.53.77,15.49.14,21.14-.93,8.36-1.19,12.79-1.57,27.2-.22,8.36-.58,16.82-.79,18.8-.45,4.16-.25,17.84.34,23.4.38,3.6.36,3.84-.44,4.69-1.84,1.96-7.24,1.28-9.11-1.14-.55-.71-1.48-1.8-2.07-2.43-.59-.62-1.66-2.16-2.37-3.43-.72-1.26-1.9-3.09-2.63-4.06-.73-.97-1.33-2-1.33-2.3s-.16-.54-.36-.54-.96-.57-1.7-1.26c-.74-.69-2.33-1.61-3.54-2.04-1.21-.42-2.47-1.01-2.8-1.29-.33-.28-1.32-.74-2.2-1-1.91-.58-7.04-3.13-7.6-3.78-.22-.25-.97-.81-1.66-1.25-2.2-1.37-4.86-4.13-5.39-5.58-.28-.77-.83-1.5-1.23-1.63-.4-.13-.97-.71-1.28-1.3-.3-.59-.93-1.42-1.4-1.83-.46-.42-.84-.98-.84-1.24s-.69-1.27-1.53-2.24c-.84-.97-2.29-3.02-3.22-4.56-2.11-3.5-3.36-5.32-4.56-6.6-.51-.55-1.46-1.81-2.11-2.8-.65-.99-1.44-1.97-1.76-2.17-.32-.2-1.22-.97-2-1.72-3.89-3.7-5.21-5.04-7.42-7.52-1.32-1.48-2.91-3.25-3.54-3.93-1.68-1.82-3.34-4.34-4.09-6.21-.36-.91-.8-1.65-.97-1.65s-.77-.97-1.33-2.15c-.56-1.18-1.48-2.65-2.06-3.27-.57-.62-1.14-1.51-1.26-1.98-.12-.47-.79-1.18-1.49-1.58-.7-.4-1.82-1.23-2.47-1.86-2.88-2.74-7.79-6.48-11.34-8.64-.79-.48-1.63-1.13-1.85-1.44-.23-.31-1.13-.79-2.01-1.07-1.67-.53-2.16-.81-4.8-2.79-.88-.66-2.23-1.55-3-1.97-.77-.43-1.84-1.24-2.37-1.81-.53-.57-1.21-1.04-1.5-1.04s-.88-.35-1.31-.78c-.43-.43-1.37-1.08-2.1-1.46-2.3-1.18-7.74-6.54-8.56-8.44-.3-.7-.87-1.45-1.25-1.67-1.22-.68-.97-4.17.4-5.54,2.3-2.31,3.9-4.14,3.9-4.46,0-.18.5-.87,1.1-1.53.6-.66,1.64-1.87,2.3-2.68s2.21-2.51,3.45-3.76,2.57-2.85,2.97-3.55c.4-.7,1.14-1.49,1.65-1.77.51-.28.93-.63.93-.79s1.3-1.52,2.89-3.03c1.59-1.51,5.15-4.88,7.9-7.5,15.85-15.05,25.75-25.31,24.7-25.59-.94-.25-1.89.35-1.89,1.19,0,.3-.49.65-1.1.78-1.7.37-3.44,1.06-4.1,1.61-.33.28-1.44.86-2.46,1.3-1.02.44-1.97.99-2.12,1.22-.15.24-1.29.72-2.54,1.08-1.25.36-2.64.96-3.08,1.34-.44.38-1.43.93-2.2,1.22s-1.77.86-2.23,1.26c-.45.4-1,.74-1.21.74s-1.28.6-2.37,1.34c-1.1.74-2.49,1.46-3.08,1.61-.6.15-1.42.62-1.82,1.05s-1.44,1.08-2.31,1.44-1.85.89-2.18,1.17c-.87.75-3.91,2.49-6,3.44-.99.45-2.34,1.33-3,1.96-.66.63-2.28,1.71-3.6,2.4s-2.76,1.58-3.2,1.99-1.61,1.15-2.6,1.66c-.99.51-2.86,1.65-4.15,2.54-1.29.89-2.73,1.87-3.2,2.19-.47.32-1.39,1.06-2.05,1.65-.66.59-1.84,1.28-2.61,1.53s-1.72.81-2.1,1.25c-.38.44-.92.8-1.2.8s-1.11.63-1.84,1.4c-.73.77-1.56,1.4-1.85,1.4-.56,0-3.13,1.94-7.93,5.98-1.06.89-2.09,1.62-2.28,1.62s-.79.43-1.31.95c-.52.52-1.35,1.08-1.85,1.24-.49.16-1.92,1.26-3.17,2.45-1.25,1.19-3.04,2.9-3.97,3.79-1.73,1.65-2.45,4.66-1.29,5.37.22.14.93,1.29,1.57,2.55.64,1.26,1.44,2.53,1.79,2.82s.63.7.63.92.55,1.05,1.23,1.85c2.64,3.13,4.23,4.96,5.47,6.33.72.78,1.3,1.58,1.3,1.77s.76.84,1.68,1.45c.93.61,2.5,1.92,3.5,2.91,1,.99,2.81,2.51,4.02,3.38s3.28,2.5,4.6,3.63,2.94,2.35,3.6,2.68c.66.34,1.61,1.18,2.11,1.86.5.68,1.14,1.24,1.43,1.24s1.56.99,2.84,2.2c1.28,1.21,2.44,2.2,2.59,2.2s.89.59,1.66,1.3c.77.71,2.26,2.02,3.33,2.9,1.8,1.49,4.45,4.12,11.42,11.33,1.56,1.61,2.83,3.19,2.83,3.5s.18.57.39.57.76.67,1.21,1.5c.45.82,1.63,2.49,2.63,3.7,1,1.21,2.17,2.96,2.61,3.9.44.93.94,1.7,1.11,1.7s.79.98,1.38,2.17c.58,1.19,1.53,2.53,2.09,2.98.57.44,1.46,1.7,1.99,2.8.53,1.09,1.29,2.23,1.69,2.52.4.29,1.1,1.18,1.56,1.97,1.55,2.68,8.13,9.31,9.93,10.02.66.26,1.75.96,2.41,1.56.66.6,1.74,1.26,2.4,1.48.66.22,1.9.87,2.76,1.45.86.58,1.77,1.06,2.04,1.06s.8.35,1.19.78c.39.43,1.6,1.08,2.69,1.44,1.09.36,2.07.9,2.19,1.2.11.3.87.75,1.67,1.02.81.26,2.06.99,2.78,1.62.72.63,1.57,1.14,1.89,1.14s.85.42,1.19.94c.34.52,1.02,1.12,1.51,1.35.49.22,1.88,1.8,3.09,3.5,1.21,1.7,2.77,3.76,3.47,4.57.7.81,1.57,2.24,1.94,3.16.37.93.81,1.69.97,1.69s.63.74,1.04,1.65c.41.91,1.25,2.28,1.86,3.06.61.77,1.12,1.61,1.12,1.86,0,.39,2.2,3.62,3.62,5.34.23.28.64,1.01.9,1.62.46,1.07,3.2,4.24,4.86,5.62.82.69,7.85,7.37,10.98,10.46,3.93,3.86,6.84,7.28,7.08,8.32.14.59.75,1.55,1.36,2.12,2.17,2.04,2.18,13.08.03,16.92-.63,1.12-1.26,2.93-1.4,4.01-.14,1.09-.58,2.35-.99,2.8-.4.45-.96,1.4-1.24,2.11-.28.71-.91,1.7-1.41,2.2-.49.5-1.11,1.56-1.37,2.36-.57,1.74-6.18,7.32-8.23,8.17-.75.32-1.52.85-1.71,1.18-.19.33-1.25.92-2.36,1.32-1.11.39-2.45.98-2.98,1.31-.53.33-1.42.8-1.97,1.06-3.62,1.66-5.54,2.45-6.49,2.67-.6.14-1.41.59-1.8,1-.39.41-1.43,1.2-2.31,1.76-1.83,1.16-3.69,3.02-6.6,6.59-1.12,1.38-2.18,2.5-2.37,2.5s-.57.59-.86,1.3c-.29.71-.85,1.59-1.25,1.95-.4.36-.98,1.37-1.29,2.25-.31.88-1.21,2.45-2.01,3.49-.79,1.04-1.93,2.73-2.52,3.75-2.31,4.01-7.74,9.85-10.51,11.31-.99.52-1.89,1.06-2,1.19-.36.43-5.37,2.7-6.6,2.98-.66.15-1.94.7-2.85,1.22-.91.52-2.48,1.22-3.49,1.57s-2.32,1.07-2.91,1.61-1.29.99-1.57.99-1.68,1.04-3.11,2.3c-4.29,3.78-6.18,5.3-6.61,5.3-.22,0-.76.45-1.19,1-.43.55-.98,1-1.22,1s-.75.49-1.14,1.09c-.62.95-2.22,2.71-6.32,6.92-.54.56-.99,1.23-.99,1.49s-.54.87-1.2,1.36-1.2,1.08-1.2,1.32c0,.41-1.92,2.96-4.21,5.62-2.35,2.72-3.79,4.71-3.79,5.25,0,.32-.53,1.15-1.17,1.86-2.41,2.65-3.53,4.11-3.8,5-.16.5-1.23,2.03-2.39,3.4-1.16,1.37-2.42,3.08-2.79,3.81-.38.73-.94,1.42-1.26,1.54-.32.12-.58.46-.58.75s-.63,1.35-1.4,2.36c-.77,1.01-1.4,1.98-1.4,2.16s-.6,1.12-1.33,2.1c-.73.97-2.12,2.83-3.1,4.14-.98,1.31-2.18,2.78-2.68,3.28-.49.5-.9,1.1-.9,1.33,0,.55-4.31,5.82-6.17,7.55-2.25,2.09-2.04,4.21.94,9.47.5.88,1.14,1.87,1.43,2.2s.81,1.47,1.17,2.54c.36,1.07,1.1,2.52,1.64,3.24.55.71.99,1.57.99,1.89s.34.95.75,1.39c.41.44,1.18,1.53,1.7,2.42.52.89,1.78,2.86,2.8,4.37s2.13,3.3,2.48,3.96c.35.66,1.1,1.62,1.66,2.14.56.52,1.02,1.36,1.02,1.87,0,1.29.4,2.19.97,2.19.27,0,1.19.83,2.06,1.85.86,1.02,2.06,2.41,2.65,3.1,2.35,2.73,3.98,4.8,4.39,5.61.24.46.91,1.31,1.48,1.88,1.31,1.3,4.53,4.94,7.48,8.46,1.24,1.49,2.47,2.7,2.73,2.7s2.17,1.81,4.25,4.01c2.08,2.21,4.77,5,5.98,6.21,1.21,1.21,2.83,2.85,3.6,3.64,1.47,1.52,4.44,4.38,8.55,8.24,1.35,1.26,4.16,3.92,6.25,5.9,2.09,1.98,3.91,3.6,4.06,3.6.42,0,2.5,2.08,3.49,3.5.5.71,1.08,1.3,1.29,1.3s.98.59,1.72,1.3c.74.72,3.3,3.17,5.69,5.45,2.4,2.28,6.01,5.79,8.04,7.8,5.31,5.26,4.89,4.84,12.5,12.25,3.84,3.74,7.1,6.8,7.24,6.8.39,0,5.97,5.55,5.97,5.94,0,.19,1.7,1.77,3.79,3.5,2.08,1.74,4,3.57,4.27,4.06s.59.9.73.9.8.49,1.47,1.1c.68.61,2.17,1.91,3.31,2.9,1.15.99,3.3,2.97,4.78,4.41s3.23,3.02,3.88,3.52c1.13.88,4.85,4.24,9.81,8.87,2.44,2.28,3.71,3.35,5.76,4.88.66.49,1.29.99,1.4,1.12s1.1.94,2.2,1.81c1.1.87,2.52,2.17,3.15,2.89s1.36,1.3,1.62,1.3,1.11.59,1.9,1.3c.79.72,3.11,2.56,5.16,4.1,2.05,1.54,4.1,3.18,4.56,3.65,1.06,1.09,3.73,2.23,4.04,1.72.13-.21.54-.38.91-.38s2.57-2.01,4.88-4.48c2.31-2.46,4.54-4.76,4.96-5.1.88-.72,1.76-1.59,2.71-2.66.37-.42.91-.99,1.2-1.28.29-.28,1.01-1.09,1.6-1.8,2.61-3.12,13.84-14.4,14.88-14.95.64-.34,2.53-2.01,4.2-3.72,1.67-1.71,3.62-3.4,4.32-3.76.7-.36,1.42-.89,1.6-1.18.18-.29,1.13-1.09,2.12-1.78s2.7-2.07,3.8-3.07c1.1-1,2.12-1.82,2.26-1.82s1.4-1.1,2.8-2.44c1.4-1.34,2.81-2.64,3.14-2.9.33-.25,1.14-1.27,1.8-2.26.66-.99,1.59-2.12,2.07-2.51.48-.39,1.17-1.6,1.53-2.7s.89-2.13,1.17-2.29c.28-.17.73-1.29,1.01-2.5.27-1.21.84-2.69,1.26-3.28.42-.59,1.12-2.03,1.57-3.2.87-2.3,2.6-4.44,4.8-5.94.77-.52,1.62-1.17,1.9-1.44.27-.27,1.49-.86,2.71-1.31,1.22-.46,2.65-1.12,3.19-1.47.54-.35,1.74-.81,2.68-1.02s1.98-.61,2.31-.89c.33-.28,1.51-.84,2.6-1.25,2.23-.83,5.34-2.87,7.75-5.1.88-.82,2.2-1.82,2.93-2.22.73-.41,1.52-1.13,1.76-1.61.57-1.12,3.28-4.07,3.76-4.07.2,0,.6-.43.88-.96.65-1.2,5.49-7.29,6.89-8.65.57-.56,1.04-1.23,1.04-1.49s.4-.74.9-1.07,1.24-1.23,1.66-2.01c.42-.78.9-1.42,1.06-1.42s.7-.76,1.18-1.7c.49-.93,1.22-2.06,1.63-2.5,2.39-2.57,3.17-3.5,3.17-3.77,0-.69,1.33-2.9,1.86-3.11.31-.12.86-.78,1.21-1.46.35-.68,1.51-2.15,2.57-3.25,3.55-3.71,4.76-5.13,4.77-5.57,0-.24,1.3-1.61,2.88-3.04,1.58-1.43,3.55-3.23,4.38-4,1.4-1.31,2.34-2.1,5.34-4.51.66-.53,1.79-1.17,2.52-1.41.73-.25,1.77-.81,2.33-1.24.55-.44,1.96-1.07,3.13-1.41,1.17-.34,2.35-.89,2.62-1.22.28-.33,1.44-.88,2.59-1.21,1.33-.39,2.26-.93,2.57-1.5.27-.49,1.37-1.49,2.45-2.23,1.84-1.26,3.58-3.13,5.41-5.82.43-.64,1.15-1.65,1.59-2.25s1.93-2.73,3.31-4.74c1.38-2.01,2.68-3.65,2.89-3.65s.75-.72,1.19-1.59c.76-1.5,3.27-4.18,7.32-7.81,1.54-1.38,1.75-1.76,1.57-2.8-.27-1.5-1.67-4.29-2.36-4.72-.29-.18-.88-1.11-1.32-2.08s-1.05-1.9-1.34-2.08c-.3-.18-.77-.77-1.05-1.32-.28-.55-1.47-1.94-2.64-3.09-1.17-1.15-2.32-2.45-2.56-2.9-.24-.45-.64-.81-.89-.81s-1.01-.58-1.69-1.3c-.68-.71-1.93-1.84-2.78-2.5-.85-.66-2.02-1.65-2.59-2.21-.58-.56-1.68-1.48-2.45-2.06-.77-.58-2.39-1.96-3.6-3.09-1.21-1.12-2.39-2.04-2.63-2.04-.24,0-1.48-.95-2.76-2.1s-2.73-2.37-3.22-2.7c-.49-.33-1.95-1.53-3.24-2.67-1.29-1.14-3.68-3.21-5.31-4.6-1.63-1.39-3.16-2.88-3.4-3.31-.64-1.13-1.32-1.82-1.82-1.82-.4,0-1.36-.81-4.16-3.5-.63-.6-1.47-1.74-1.87-2.52-.4-.78-1.02-1.67-1.38-1.96-.79-.66-3.41-5.06-3.41-5.74,0-.27-.53-1.13-1.18-1.92-.65-.79-1.31-1.95-1.46-2.59-.16-.64-.98-1.95-1.82-2.92-.85-.97-1.55-1.96-1.56-2.2-.07-1.27-6.13-5.6-12.77-9.14-.99-.53-2.85-1.67-4.14-2.53-1.29-.86-2.99-1.97-3.79-2.45-.8-.48-1.64-1.13-1.87-1.45-.23-.31-.99-.69-1.69-.85-2.14-.47-7.8-6.52-11.11-11.87-.22-.36-1.1-1.7-1.97-3-.86-1.29-1.76-2.89-1.99-3.55-.23-.66-1.01-2.03-1.73-3.05-.72-1.02-1.31-2.15-1.31-2.51s-.68-1.42-1.52-2.35c-.84-.93-2.21-2.64-3.04-3.8-1.64-2.29-3.61-4.32-6.23-6.44-.92-.74-1.86-1.77-2.09-2.27-.23-.51-.92-1.13-1.52-1.38-.6-.25-1.88-1.17-2.85-2.04-3.48-3.15-3.99-3.56-4.47-3.56-.44,0-1.9-1.14-5.24-4.1-.68-.6-1.55-1.2-1.94-1.33-.38-.13-.7-.4-.7-.6s-.74-.87-1.65-1.47c-3.08-2.05-3.41-2.3-5.33-3.9-3.45-2.89-10.88-10.75-11.25-11.9-.22-.67-2.36-4.08-3.57-5.67-.32-.42-.86-1.77-1.19-3-.33-1.23-.88-2.74-1.21-3.36-.9-1.7-.75-4.07.39-6.01.98-1.67,1.9-2.5,5.39-4.85,3.37-2.28,3.83-2.54,4.44-2.57.34-.02,1.33-.4,2.2-.85.87-.45,2.36-1.09,3.31-1.42.95-.33,2.07-.95,2.5-1.38s1.06-.78,1.41-.78c.66,0,2.92-1.8,7.14-5.7,1.37-1.26,2.66-2.3,2.86-2.3.47,0,6.56-5.82,6.56-6.27,0-.18,1.08-1.5,2.4-2.93,1.32-1.43,2.4-2.71,2.4-2.85s.82-1.04,1.83-2c1.01-.96,2.18-2.42,2.6-3.24s1.24-1.79,1.8-2.16c.56-.37,1.44-1.5,1.96-2.51.52-1.01,1.69-2.56,2.6-3.44.91-.88,2.05-2.23,2.52-3,.47-.77,1.18-1.75,1.57-2.18.39-.43.71-1.01.71-1.3s.16-.53.36-.53,1.04-.94,1.86-2.1c.82-1.15,1.65-2.16,1.84-2.23.19-.07.34-.36.34-.63s.59-1.2,1.31-2.07c.72-.86,1.56-2.07,1.87-2.67.31-.6.71-1.1.88-1.1s.59-.51.91-1.13c.32-.62,1.22-1.93,1.99-2.9.77-.97,1.76-2.22,2.2-2.77.44-.55,1.31-1.63,1.93-2.4.63-.77,1.62-2.14,2.2-3.05.58-.91,1.97-2.55,3.09-3.65,1.11-1.1,2.03-2.19,2.03-2.44s.44-.74.98-1.09c.54-.35,1.08-.95,1.2-1.32.12-.37,1.27-1.84,2.57-3.26,1.3-1.43,2.96-3.26,3.7-4.08.74-.82,1.54-1.49,1.79-1.5.67-.01,3.24-2.32,7.69-6.91,1.44-1.49,2.76-2.7,2.94-2.7s1.09-.72,2.03-1.61c.94-.89,2.69-2.28,3.9-3.1,1.21-.82,2.67-1.94,3.25-2.49.58-.55,1.48-1.32,2-1.7.52-.39,2-1.51,3.29-2.5,1.29-.99,2.5-1.8,2.69-1.8s.96-.59,1.73-1.3c2.63-2.45,3.41-3.1,3.72-3.1.17,0,.77-.41,1.31-.91.55-.5,1.63-1.34,2.4-1.87.77-.53,2.35-1.92,3.52-3.09,1.16-1.17,2.44-2.13,2.83-2.13s.96-.45,1.25-1c.29-.55.65-1,.79-1s.99-.68,1.9-1.5c.91-.83,2.43-2.13,3.38-2.9s2.36-2.09,3.13-2.94c.77-.85,3.61-3.8,6.3-6.56,5.83-5.97,6.23-7.4,2.91-10.5-.4-.37-2.63-3.39-3.39-4.58-1.07-1.68-14.89-15.33-16.22-16.02-.61-.32-1.22-.86-1.35-1.2-.13-.34-.65-.78-1.15-.98-.5-.2-2.15-1.41-3.66-2.69-1.51-1.29-3.13-2.55-3.59-2.82-.46-.27-1.05-.76-1.29-1.1s-1.06-.89-1.81-1.23c-1.21-.55-2.88-1.73-5.96-4.23-2.17-1.76-4.12-3.16-4.42-3.16-.17,0-1.03-.6-1.9-1.33s-2.16-1.57-2.84-1.85c-.68-.28-1.24-.65-1.24-.82s-.58-.53-1.3-.82c-1.24-.49-3.43-1.93-5.88-3.88-.62-.5-1.3-.9-1.5-.9s-.72-.31-1.14-.7c-.43-.39-1.4-.99-2.18-1.35-1.29-.6-2.53-1.51-6.88-5.05-.88-.71-1.85-1.3-2.15-1.3s-.85-.46-1.22-1.01c-.37-.56-.86-.95-1.11-.86-.71.24-.26,2.39.74,3.48.5.55.98,1.22,1.07,1.48.17.53,3.3,4.2,5.67,6.65.83.86,1.85,2.22,2.27,3.02.41.8,1.12,1.68,1.58,1.96.46.28.83.77.83,1.09s.54.87,1.2,1.21c.66.34,1.2.88,1.2,1.2s.4.79.9,1.04c1.17.6,3.89,3.24,3.89,3.77,0,.23,1.22,1.69,2.71,3.26,4.8,5.06,8.96,10.08,11.7,14.11.77,1.13,1.9,2.66,2.5,3.39.61.73,1.46,2.15,1.9,3.14l.8,1.81-.88,2.64c-.52,1.57-1.42,3.21-2.2,4.04-.73.77-1.32,1.74-1.32,2.16s-.63,1.51-1.4,2.44c-.77.92-1.4,1.87-1.4,2.1,0,.61-9.48,9.81-10.82,10.51-.61.32-1.5,1.11-1.97,1.77-.5.71-1.49,1.39-2.4,1.66-.93.28-1.63.77-1.74,1.22-.11.41-.75.95-1.43,1.19-.68.24-1.23.58-1.23.76,0,.37-4.96,3.99-5.47,4-.18,0-.96.54-1.73,1.2-.77.66-1.53,1.2-1.7,1.2-.16,0-1.48,1.01-2.92,2.23-1.45,1.23-3.24,2.49-3.98,2.8-.74.31-1.78.97-2.29,1.47-1,.97-4.38,3.45-5.55,4.09-.39.21-.88.77-1.1,1.25-.22.47-1.26,1.56-2.33,2.4-1.93,1.54-2.38,1.95-6.78,6.27-1.29,1.27-2.57,2.3-2.84,2.3-.27,0-.67.35-.9.78-.23.43-.96,1.1-1.61,1.49-.66.39-1.3,1.02-1.42,1.4-.12.38-.53.79-.91.91-.38.12-1.95,1.73-3.48,3.58-1.53,1.85-3.23,3.6-3.78,3.9-.99.53-2.72,2.25-5.8,5.73-.87.99-1.82,1.8-2.11,1.8s-.83.5-1.21,1.1-1.65,2.09-2.82,3.3c-4.01,4.16-8.4,8.6-9.14,9.26-.41.36-1.96,1.94-3.46,3.52-1.49,1.57-3.16,3.06-3.7,3.31-.54.24-.98.55-.99.68,0,.13-1.71,2.03-3.8,4.22-2.09,2.19-3.79,4.12-3.79,4.29,0,.85-7.23,8.21-9.4,9.57-5.67,3.55-7.93,1.83-8.68-6.59-.68-7.64-.15-29.99.84-35.45,1.24-6.82,1.26-28.01.04-30.3-.44-.82-.8-2.19-.8-3.05,0-2.11-1.19-9.48-1.68-10.39-2.49-4.68-2.46-35.83.04-40.5.46-.85.83-2.15.83-2.87,0-1.51.97-4.09,1.54-4.09.21,0,.59-1.19.84-2.64.25-1.45.99-3.64,1.64-4.86.65-1.22,1.18-2.44,1.18-2.73s.42-1.02.93-1.64c.51-.62,1.24-1.93,1.62-2.9.38-.97,1.05-2.21,1.48-2.76.43-.55,1.07-1.99,1.42-3.2.35-1.21,1.29-3.18,2.09-4.37.8-1.19,2.01-3.18,2.68-4.43,2.08-3.85,3.02-5.44,3.72-6.27.37-.44,1-1.41,1.42-2.15.41-.75,1.09-1.69,1.5-2.1.41-.41.74-1.09.74-1.51s.63-1.52,1.4-2.44c.77-.92,1.4-2.08,1.4-2.58s.52-1.56,1.15-2.35c.63-.79,1.26-2.14,1.39-2.99.14-.85.6-1.95,1.04-2.45.43-.5,1-1.57,1.26-2.37.26-.8.89-1.96,1.4-2.57.51-.61,1.05-1.78,1.2-2.6.15-.82.78-2.55,1.4-3.85,1.06-2.24,1.07-3.84.03-3.84s-5.2,1.36-5.87,1.94c-.44.38-1.3.95-1.9,1.25-.6.3-1.1.68-1.1.85s-.59.67-1.31,1.11c-.72.45-1.85,1.27-2.5,1.83-.65.56-1.39,1.02-1.64,1.02-.25,0-.7.3-1,.66-.3.36-1.52,1.4-2.71,2.3-1.19.9-2.9,2.22-3.8,2.93-1.44,1.14-5.35,3.81-7.64,5.23-4.54,2.82-6.81,1.71-7.42-3.62-.18-1.6-.7-3.66-1.16-4.58-.45-.92-.82-2.09-.82-2.6,0-1.45-1.05-6.34-1.78-8.32-.37-.99-.91-3.28-1.21-5.1-.34-2.07-.85-3.69-1.37-4.35-.47-.6-.83-1.65-.83-2.42s-.54-2.51-1.19-3.91c-.65-1.4-1.36-3.29-1.56-4.21-.21-.92-.81-2.33-1.35-3.14-.54-.81-1.11-2.35-1.27-3.43-.43-2.84-.57-3.05-2.05-3.05-1.21,0-1.38.15-1.75,1.5m24.43,331.2c2.05,1.92,4.92,4.71,6.38,6.2,1.46,1.49,2.76,2.7,2.9,2.7s1.35,1.04,2.7,2.3c1.35,1.27,3.08,2.84,3.85,3.5.77.66,1.61,1.45,1.87,1.75.26.3,1.06,1.15,1.77,1.89s1.3,1.53,1.3,1.75.17.41.38.41c.36,0,5.33,4.85,7.64,7.45.56.63,1.87,1.86,2.9,2.72,1.03.86,1.88,1.81,1.88,2.1s.19.53.42.53c.33,0,6.35,5.92,14.98,14.73.22.23,1.43,1.4,2.7,2.6,1.27,1.21,2.3,2.39,2.3,2.63s.19.43.42.43c.54,0,6.78,6.26,6.78,6.79,0,.22.21.41.46.41.58,0,9.94,9.37,9.94,9.96,0,.24.24.44.53.44.58,0,2.85,2.36,3.96,4.1.38.6.9,1.1,1.15,1.1s1.58,1.12,2.97,2.5c2.93,2.9,3.39,3.35,4.16,4.01.31.27,1.77,1.66,3.23,3.09,1.46,1.43,3.61,3.41,4.77,4.4,1.16.99,3.12,2.76,4.36,3.93,1.24,1.17,3.51,3.24,5.03,4.6,2.76,2.46,5.13,4.66,7.04,6.5.55.53,1.15.97,1.33.97s.78.54,1.33,1.2c.56.66,1.19,1.2,1.4,1.2,2.32,0,6.39,6.38,4.73,7.4-.22.14-.79,1-1.26,1.92-.47.92-1.82,2.96-2.99,4.53-1.18,1.57-2.14,3.04-2.14,3.27s-.43.75-.95,1.16c-.52.41-1.26,1.37-1.65,2.13-.64,1.26-4.13,5.49-6.6,8.01-.55.56-1.82,1.93-2.82,3.04-2,2.22-8.21,7.34-8.9,7.34-.24,0-.91.45-1.49,1.01-1.08,1.04-3.27,2.33-6.39,3.78-.99.46-2.47,1.19-3.28,1.62-.81.43-1.68.79-1.92.79-.45,0-1.61.55-5.8,2.77-4.4,2.33-5.6,3.09-6.87,4.36-.7.7-1.62,1.27-2.05,1.27-.48,0-.96.43-1.24,1.11-.25.61-1,1.74-1.65,2.5-.65.77-1.29,1.69-1.4,2.05-.12.37-.63.94-1.15,1.28-.52.34-1.06,1.12-1.22,1.74-.15.62-.81,1.92-1.45,2.89-.64.97-1.17,1.94-1.17,2.14s-.36.88-.81,1.51c-.44.62-1.07,1.88-1.4,2.8-.32.91-1.03,2.19-1.56,2.82-.54.64-1.11,1.57-1.26,2.06-.15.5-.71,1.41-1.23,2.03-.52.62-.95,1.32-.95,1.56,0,1.17-9.62,11.02-13.08,13.39-1.22.83-2.71,1.88-3.31,2.32-.6.44-1.62,1.15-2.25,1.58-.64.43-1.79,1.26-2.56,1.84-.77.58-2.05,1.27-2.85,1.53-.8.26-1.79.84-2.2,1.3-.41.45-1.27,1.1-1.91,1.43-.64.33-1.53.94-1.98,1.36-.45.42-1.06.76-1.37.76s-1.34.54-2.29,1.2c-.96.66-2.16,1.36-2.67,1.57-.51.2-1.29.65-1.73,1-2.81,2.23-4.64,3.43-5.58,3.66-.59.15-1.47.86-1.94,1.59-.47.72-1.32,1.41-1.87,1.52-.55.11-1.29.31-1.63.45-1.57.61-2.16-4.55-.77-6.79.46-.74.97-2.58,1.18-4.26.4-3.19.72-4.33,1.21-4.33,1.87,0,2.05-18.91.21-21.14-.49-.6-1.09-2.19-1.37-3.66-.27-1.43-.84-3.23-1.25-4-.41-.77-1.03-2.84-1.38-4.6-.34-1.76-1-4.43-1.46-5.95-.98-3.2-.81-6.74.48-10.42.43-1.22.78-2.6.78-3.08,0-1.31.86-4.03,1.63-5.16.38-.55.81-2.25.97-3.8.16-1.54.56-3.88.89-5.2,1.07-4.21,1.34-8.45,1.55-24.12.21-15.5.09-17.77-1.48-28.28-.2-1.32-.54-4.34-.76-6.71-.26-2.78-.67-4.84-1.17-5.81-.87-1.7-1.64-5.41-1.64-7.87,0-.9-.26-2.01-.58-2.46-1.49-2.13-1.76-9.98-.42-12.55.31-.6.76-2.33,1-3.84.24-1.51.83-3.37,1.31-4.14,1.33-2.15,1.6-15.87.36-18.48-.6-1.26-.99-3.5-1.44-8.14-.34-3.52-.97-7.99-1.39-9.93-.9-4.1-.77-7,.45-10.27.66-1.76,2.28-4.78,2.57-4.8.03,0,1.74,1.57,3.79,3.5m-44.16,1.62c.64.41,1.79,3.69,1.53,4.38-.51,1.32.58,14.09,1.41,16.48.46,1.33,1.17,4.62,1.57,7.32.4,2.7,1.09,5.89,1.52,7.1.5,1.41.89,3.93,1.08,7,.16,2.64.56,5.43.88,6.2.9,2.16.8,7.98-.21,11.8-.46,1.76-.85,3.93-.85,4.83,0,1.22-.26,1.87-1.01,2.57-.7.66-1,1.37-1.01,2.37,0,1.72-1.46,7.65-2,8.2-.58.58-.44,4.51.26,7.23.34,1.32.77,3.39.94,4.6.45,3.08.78,4.3,1.8,6.6.5,1.12,1.11,3.76,1.4,6,.28,2.2.75,4.57,1.06,5.26.63,1.43.7,7.19.13,10.34-.96,5.36-1.53,9.37-1.55,11.04-.02,1.16-.4,2.54-1.03,3.74-.82,1.55-1.08,2.82-1.41,6.96-.41,5.08-.93,7.87-1.63,8.72-.68.83-.22,19.99.55,22.74.37,1.32.85,3.97,1.07,5.88.23,1.97.75,4.17,1.21,5.06.44.87.91,2.36,1.04,3.32.51,3.82,1.1,6.74,1.35,6.74.45,0,1.14,2.43,1.44,5,.15,1.32.61,3.21,1.03,4.2,1.01,2.42,1.55,4.98,1.56,7.44,0,1.12.39,3.46.85,5.2,1.32,5.01,1.49,10.15.37,11.16-1.14,1.02-6.79,1.04-8.75.03-.67-.35-2.45-.91-3.94-1.26-1.49-.34-3.35-1.03-4.12-1.53-.77-.5-2.25-1.23-3.3-1.63-1.04-.4-1.9-.86-1.9-1.02s-.71-.58-1.57-.93c-.86-.34-1.68-.82-1.83-1.05-.15-.23-1.12-.86-2.17-1.39-1.05-.53-2.2-1.4-2.54-1.94-.35-.53-1.15-1.07-1.79-1.2-.63-.13-2.01-1.06-3.07-2.07-1.05-1.01-2.41-2.09-3.02-2.4-.61-.31-1.4-1.03-1.77-1.59-.37-.56-.93-1.02-1.24-1.02s-1.08-.46-1.69-1.01c-.61-.56-2.2-1.88-3.52-2.95-1.32-1.07-4.02-3.49-6-5.39-1.98-1.89-3.71-3.45-3.85-3.45-.14,0-1.04-.82-2-1.83-.96-1-1.99-2.04-2.28-2.3-.29-.26-1.3-1.2-2.23-2.08s-2.18-1.96-2.76-2.4-1.43-1.38-1.89-2.08c-.45-.7-2.39-2.88-4.3-4.82-3.9-3.97-7.47-7.82-16.01-17.27-.51-.57-1.37-1.48-1.9-2.03-.53-.55-.97-1.16-.97-1.35s-1.03-1.41-2.3-2.71c-6.38-6.58-8.26-8.54-12.46-13.05-2.51-2.69-4.94-5.4-5.4-6.01-.46-.61-1.24-1.54-1.74-2.07-.49-.52-.9-1.12-.9-1.33s-.36-.76-.8-1.23c-.44-.46-1.52-1.6-2.4-2.53-.88-.93-1.6-1.99-1.6-2.36s-.48-1.49-1.06-2.49c-1.97-3.36-3.54-10.47-3.19-14.46.29-3.26,1.95-8.91,3.18-10.78.51-.78,1.12-1.97,1.36-2.65.67-1.94,5.12-7.95,6.28-8.48.58-.26,1.16-.79,1.3-1.18.36-1,4.81-5.21,7.51-7.1,1.26-.88,3.03-2.18,3.95-2.9s1.89-1.3,2.17-1.3c.28,0,.87-.38,1.33-.83.86-.86,3.38-2.5,6.17-4.02.88-.48,1.82-1.18,2.08-1.56s1.04-.92,1.72-1.2c.68-.28,2.41-1.64,3.85-3.02,5.11-4.91,5.55-5.42,6.54-7.38.49-.98,1.69-2.53,2.65-3.43.97-.9,1.76-1.84,1.76-2.09s.51-1.04,1.14-1.76c.63-.72,1.5-2.12,1.93-3.11.83-1.89,2.67-4.03,7.84-9.13,1.72-1.69,4.04-4.02,5.16-5.17,1.12-1.15,2.29-2.1,2.59-2.1s1.05-.49,1.64-1.1c.6-.6,1.8-1.59,2.68-2.19.88-.6,2.59-1.91,3.8-2.9,1.21-.99,2.42-1.81,2.68-1.81s.71-.33,1-.73c.29-.4,1.32-1.26,2.3-1.9.98-.64,2.16-1.53,2.63-1.97,1.2-1.12,2.36-2.03,3.67-2.87.62-.4,1.36-1.04,1.65-1.43.29-.39.74-.71,1-.71.26,0,1.02-.53,1.68-1.19.66-.65,2.37-2.2,3.8-3.44,1.43-1.24,2.96-2.82,3.41-3.51,2.33-3.65,4.88-5.36,6.48-4.34"/></g></svg>