<?xml version="1.0"?>
<svg xmlns="http://www.w3.org/2000/svg" viewBox="0 0 512 512">
  <g fill="#FFF">
    <path opacity=".4"
      d="M153.37 278.63L100 332l-24.69-24.69h-.001c-6.25-6.25-16.38-6.25-22.62 0l-17.54 17.53h-.001c-4.99 4.98-6.13 12.65-2.79 18.87l31.64 59L4.68 462.06h0c-6.25 6.24-6.26 16.37-.01 22.62 0 0 0 0 0 0l22.62 22.62h0c6.24 6.24 16.37 6.25 22.62 0 0-.01 0-.01 0-.01l59.31-59.31 59 31.64h-.001c6.21 3.33 13.88 2.19 18.87-2.79l17.53-17.54v0c6.24-6.25 6.24-16.38 0-22.62l-24.65-24.69 53.37-53.37ZM496.79.14l-78.11 13.2 -140 140 80 80 140-140 13.2-78.11v-.001c1.04-7.29-4.02-14.05-11.3-15.09 -1.26-.19-2.54-.19-3.8-.001Z"></path>
    <path
      d="M389.37 309.38l-296-296L15.22.14v0C7.93-.91 1.18 4.14.14 11.42c-.19 1.25-.19 2.53 0 3.79l13.2 78.11 296 296.05Zm117.94 152.68L448 402.75l31.64-59v0c3.33-6.22 2.19-13.89-2.79-18.87l-17.54-17.53v0c-6.25-6.25-16.38-6.26-22.63-.01 -.01 0-.01 0-.01 0L307.3 436.68v0c-6.25 6.24-6.25 16.37 0 22.62l17.53 17.54v0c4.98 4.98 12.65 6.12 18.87 2.79l59-31.64 59.31 59.31v0c6.24 6.24 16.37 6.25 22.62 0 0-.01 0-.01 0-.01l22.62-22.62v0c6.26-6.24 6.27-16.37.04-22.63 -.01-.01-.01-.01-.01-.01Z"></path>
  </g>
</svg>