<svg xmlns="http://www.w3.org/2000/svg" viewBox="0 0 640 512">
  <g fill="#FFF">
    <path
      d="M313.1 511.2l-288-63.1C10.42 443.1 0 430.1 0 416V64.01c0-20.82 19.56-36.09 39.76-31.04L64 39.03v325.6c0 14.1 10.42 27.98 25.06 31.24L320 447.2l230.9-51.32c14.7-3.28 25.1-16.18 25.1-31.18V39.03l24.24-6.06C620.4 27.91 640 43.18 640 64v351.1c0 14.1-10.42 27.99-25.06 31.24l-288 63.1c-4.54 2.85-9.34 2.85-13.84 1.75Z"></path>
    <path opacity=".4"
      d="M64 32.4v323.1L304 416V40.02L100.9.38C81.5-2.66 64 12.53 64 32.39ZM539.1.38L336 40.01v375.98l240-59.62V32.39c0-19.86-17.5-35.05-36.9-32.02Z"></path>
  </g>
</svg>