<svg xmlns="http://www.w3.org/2000/svg" viewBox="0 0 640 512">
  <g fill="#FFF">
    <path
      d="M41.41 270.7l133.3-133.3C202.3 109.8 238.5 96 274.6 96c36.1 0 72.36 13.8 99.96 41.41C402.2 165 415.1 201.2 416 237.4c0 36.18-13.8 72.36-41.41 99.97l-14.18 14.18c-18.78-1.2-36.33-8.76-49.75-22.18 -3.16-3.16-5.86-6.63-8.39-10.19l27.06-27.06c14.61-14.61 22.66-34.04 22.66-54.71s-8.05-40.1-22.66-54.71C314.69 168 295.29 160 274.59 160c-21.5 0-40.1 8-54.7 22.7L86.65 315.9c-14.62 14.61-22.66 34.04-22.66 54.71s8.04 40.1 22.66 54.71C101.29 439.1 120.69 448 141.39 448c20.67 0 40.1-8.05 54.71-22.66l60.59-60.59c2.77 3.35 5.58 6.7 8.73 9.84 12.72 12.72 27.39 22.17 42.91 29.02l-66.98 66.98c-27.661 27.6-63.77 41.4-99.97 41.4 -36.18 0-72.36-13.8-99.97-41.41 -55.23-55.19-55.23-144.69-.02-199.89Z"></path>
    <path opacity=".4"
      d="M598.6 241.3L465.3 374.6c-27.6 27.6-63.7 41.4-99.9 41.4s-72.36-13.8-99.96-41.41c-26.63-26.63-40.42-61.25-41.36-96.15C223 241 236.8 203.2 265.4 174.7l14.2-14.2c18.78 1.19 36.33 8.75 49.75 22.18 3.15 3.15 5.85 6.62 8.38 10.19l-27.04 27.03c-14.61 14.61-22.66 34.04-22.66 54.71s8.04 40.1 22.66 54.71c14.6 13.78 34 22.68 54.7 22.68 20.67 0 40.1-8.05 54.71-22.66l133.3-133.3c14.62-14.61 22.66-34.04 22.66-54.71s-8.97-40.03-22.77-54.67c-14.6-14.61-34-22.66-54.7-22.66 -20.67 0-40.1 8.04-54.71 22.66l-60.59 60.59c-2.78-3.36-5.59-6.7-8.73-9.85 -12.72-12.72-27.39-22.17-42.91-29.02l66.98-66.98C426.29 13.79 462.39-.01 498.59-.01c36.18 0 72.36 13.8 99.96 41.41 27.11 27.11 40.9 62.48 41.39 98 .55 36.79-13.25 73.79-41.35 101.89Z"></path>
  </g>
</svg>