<svg xmlns="http://www.w3.org/2000/svg" viewBox="0 0 512 512"><g fill="#FFF"><path d="M471 1.323l-96.63 28.5c-13.27 4.12-22.37 16.5-22.37 30.5v299.7c-15.5-5.26-31.62-8.01-48-8.01 -61.88 0-112 35.88-112 80.01s50.1 79.96 112 79.96 112-35.88 112-80.01V148.08l73-21.38c13.6-4.02 23-16.52 23-30.76v-64c0-10.13-4.75-19.64-12.88-25.64 -8.02-6-18.52-7.88-28.12-5Z"></path><path opacity=".4" d="M31.97 255.1h224.1c17.63 0 31.93-13.4 31.93-31.1 0-17.66-14.32-32.02-31.97-32.02H31.97C14.32 191.1-.001 206.3-.001 223.1c0 18.5 14.32 32 31.97 32Zm0-128h224.1c17.63 0 31.93-13.5 31.93-31.11 0-17.66-14.31-32.01-31.97-32.01H31.97C14.32 63.979-.001 78.31-.001 95.97c0 17.63 14.32 31.13 31.97 31.13Zm96.03 192H31.97C14.32 319.1 0 334.3 0 351.1c0 17.66 14.32 32.02 31.97 32.02H128c17.7-.02 32-13.42 32-31.12 0-17.6-14.3-32.9-32-32.9Z"></path></g></svg>