<svg xmlns="http://www.w3.org/2000/svg" viewBox="0 0 640 512">
  <g fill="#FFF">
    <path
      d="M640 192v62.73c0 15.25-10.77 28.39-25.72 31.38L544 300.2V440c0 39.76-42.98 72-96 72s-96-32.24-96-72c0-39.77 42.98-72 96-72 11.28 0 21.95 1.72 32 4.4V211.19c0-15.25 10.77-28.39 25.72-31.38l96-19.2c19.78-3.92 38.28 11.18 38.28 31.38Z"></path>
    <path opacity=".4"
      d="M224 256c70.7 0 128-57.31 128-128C352 57.31 294.7 0 224 0 153.3 0 96 57.31 96 128c0 70.69 57.3 128 128 128Zm165.4 91.7c-30.6-27.1-70.7-43.7-114.7-43.7H173.3c-95.69 0-173.3 77.7-173.3 173.4 0 19.1 15.52 34.6 34.66 34.6h320.5C333.4 493.4 320 468.3 320 440c0-41 28-75.3 69.4-92.3Z"></path>
  </g>
</svg>