<svg xmlns="http://www.w3.org/2000/svg" viewBox="0 0 576 512">
  <g fill="#FFF">
    <path
      d="M370.7 60.08L58.2 372.48c-4.66 4.65-7.77 10.63-8.896 17.12l-16.98 97.5c-2.54 14.49 10.09 27.1 24.58 24.56l97.53-17.1c6.47-1.14 12.45-4.24 17.1-8.89l312.4-312.4L370.69 60.08Z"></path>
    <path opacity=".4"
      d="M16.41 16.42c-21.88 21.87-21.88 57.31 0 79.19l136.8 136.8 79.19-79.18L95.59 16.42c-21.87-21.88-57.31-21.88-79.18 0ZM543.1 447.1c-32 0-51.22-21.18-48.97-47 2.57-29.49-7.34-59.88-29.71-82.39 -14.65-14.76-32.98-24.54-52.91-28.54l-121.4 121.4c3.62 19.6 12.16 38.42 27.21 53.59 39.09 39.35 117.6 46.92 172.1 46.92h53.72c17.67 0 32-14.33 32-32 .86-16.78-13.44-31.98-32.04-31.98Zm-13.2-319.9c18.75-18.75 18.75-49.17-.01-67.92l-45.25-45.25c-18.78-18.77-49.19-18.77-67.97 0l-45.99 46 113.2 113.2 46.01-46.03Z"></path>
  </g>
</svg>