<svg width="940" height="600" viewBox="0 0 940 600" fill="none" xmlns="http://www.w3.org/2000/svg">
<path d="M678.186 92.9499C693.725 71.6424 714.123 51.9563 735.614 39.7823C803.362 1.40661 874.868 6.65404 908.459 62.1497C942.092 117.714 923.69 179.308 860.041 221.555C827.566 240.769 796.085 252.391 761.232 257M261.814 92.9499C246.275 71.6424 225.877 51.9563 204.386 39.7823C136.638 1.40661 65.1319 6.65404 31.5405 62.1497C-2.09236 117.714 16.3104 179.308 79.9591 221.555C112.434 240.769 143.915 252.391 178.769 257" stroke="white" stroke-width="28" stroke-linecap="round" stroke-linejoin="round"/>
<path d="M759.232 306.803C770.735 157.003 678.584 51.9163 470 55.3219C261.416 58.7276 171.714 157.964 180.768 306.803C189.411 448.884 357.57 553.207 468.888 553.207C580.206 553.207 748.339 448.662 759.232 306.803Z" stroke="white" stroke-width="28" stroke-linecap="round" stroke-linejoin="round"/>
<path d="M568.499 374.223C568.499 397.335 587.205 416.071 610.28 416.071C633.355 416.071 652.061 397.335 652.061 374.223C652.061 351.111 633.355 332.375 610.28 332.375C587.205 332.375 568.499 351.111 568.499 374.223ZM287.939 374.223C287.939 397.548 306.817 416.456 330.105 416.456C353.393 416.456 372.271 397.548 372.271 374.223C372.271 350.898 353.393 331.989 330.105 331.989C306.817 331.989 287.939 350.898 287.939 374.223Z" fill="white"/>
<path d="M297.729 499.18L243.185 571.405M642.271 499.18L696.815 571.405M221.683 427.753L133.927 463.577M713.785 427.753L801.541 463.577" stroke="white" stroke-width="32" stroke-linecap="round"/>
<path d="M470.001 443.023C424.137 443.023 394.871 474.868 395.859 514.124C396.93 556.637 428.328 585.227 470.001 585.227C511.674 585.227 544.052 552.231 544.142 514.124C544.236 474.856 515.865 443.023 470.001 443.023Z" fill="white" stroke="white" stroke-width="28" stroke-linecap="round" stroke-linejoin="round"/>
</svg>
