<?xml version="1.0" standalone="no"?>
<!DOCTYPE svg PUBLIC "-//W3C//DTD SVG 20010904//EN"
 "http://www.w3.org/TR/2001/REC-SVG-20010904/DTD/svg10.dtd">
<svg version="1.0" xmlns="http://www.w3.org/2000/svg"
 width="256.000000pt" height="256.000000pt" viewBox="0 0 256.000000 256.000000"
 preserveAspectRatio="xMidYMid meet">
<metadata>
Created by potrace 1.14, written by Peter Selinger 2001-2017
</metadata>
<g transform="translate(0.000000,256.000000) scale(0.100000,-0.100000)"
fill="#000000" stroke="none">
<path d="M1114 1864 c-82 -57 -158 -110 -169 -118 -11 -8 -92 -65 -180 -126
-88 -62 -162 -114 -165 -117 -3 -2 -5 -159 -6 -347 -1 -399 1 -412 74 -485 68
-68 105 -78 294 -77 137 1 160 3 175 19 16 15 18 38 18 185 l1 167 122 3 c93
2 122 0 123 -10 1 -7 2 -84 3 -172 1 -150 3 -159 24 -176 12 -10 30 -17 40
-15 9 2 20 4 24 4 4 1 14 8 22 17 14 13 16 48 16 224 0 187 -2 210 -18 230
-18 23 -22 23 -232 23 -271 1 -250 18 -250 -210 l0 -165 -120 4 -120 3 -32 33
-33 32 -3 323 -2 322 62 43 c35 24 159 111 276 193 117 82 217 149 222 149 5
0 116 -75 247 -167 131 -92 255 -178 276 -192 l38 -25 -3 -323 -3 -323 -31
-31 c-21 -20 -44 -32 -72 -36 -70 -9 -100 -66 -58 -108 19 -19 31 -22 67 -19
59 6 121 38 160 81 63 72 63 73 64 460 l2 352 -26 24 c-23 21 -300 217 -516
365 -44 30 -87 61 -95 68 -40 34 -62 26 -216 -82z"/>
<path d="M1113 1352 c-65 -5 -93 -55 -55 -102 17 -21 24 -21 232 -22 210 0
214 0 232 22 23 28 23 52 1 79 -17 20 -28 22 -193 24 -96 1 -194 1 -217 -1z"/>
</g>
</svg>
