<svg xmlns="http://www.w3.org/2000/svg" viewBox="0 0 576 512">
  <g fill="#FFF">
    <path
      d="M512 0c-35.38 0-64 28.62-64 64 0 35.38 28.62 63.1 64 63.1 35.38 0 64-28.62 64-63.1 0-34.48-28.6-64-64-64ZM89.75 256h24.1c8.5 0 16.62 3.375 22.62 9.375L192 320v32c0 17.62 14.38 32 32 32v63.13c0 4.5 1.875 8.75 5.25 11.88 3.375 3 7.875 4.5 12.38 4 3.5-.375 7-.75 10.38-1.375 9-1.5 16.88-7.25 20.88-15.5l40.38-80.63c4.33-8.91 6.73-18.61 6.73-28.61v-16.9c0-17.62-14.38-32-32-32h-64.5c-10 0-19.38-3.875-26.38-10.88 -11.82-11.82-12.62-31.02-1.62-43.62l49.75-57.38C267.8 142.195 242.8 95.2 220 64.19c-90.1 1.59-167.08 56.2-201.18 134.1 22.43 27.3 57.89 57.7 70.93 57.7Z"></path>
    <path opacity=".4"
      d="M448 288c0 123.8-100.3 224-224 224C100.3 512 0 411.7 0 288c0-31.94 6.783-62.26 18.82-89.75C41.25 225.6 76.71 256 89.75 256h24.1c8.5 0 16.62 3.375 22.62 9.375L192 320v32c0 17.62 14.38 32 32 32v63.13c0 4.5 1.875 8.75 5.25 11.88 3.375 3 7.875 4.5 12.38 4 3.5-.375 7-.75 10.38-1.375 9-1.5 16.88-7.25 20.88-15.5l40.38-80.63c4.33-8.91 6.73-18.61 6.73-28.61v-16.9c0-17.62-14.38-32-32-32h-64.5c-10 0-19.38-3.875-26.38-10.88 -11.82-11.82-12.62-31.02-1.62-43.62l49.75-57.38C267.8 142.195 242.8 95.2 220 64.19c1.4-.02 2.7-.2 4-.2 123.8 0 224 100.3 224 224Z"></path>
  </g>
</svg>