<?xml version="1.0" encoding="UTF-8"?><svg id="Layer_2" xmlns="http://www.w3.org/2000/svg" viewBox="0 0 1326.01 996"><defs><style>.cls-1{fill:#fff;}</style></defs><g id="Layer_1-2"><path class="cls-1" d="m1325.81,363C1320.31,125.7,1152.81.1,946.91.1c-113.1,0-214.6,37.9-284,111.4C593.51,37.9,492.01,0,379.01,0,173.01,0,5.41,125.8.11,363.4c-.09.53-.12,1.06-.1,1.6v541c0,49.71,40.29,90,90,90h85c8.28,0,15-6.72,15-15h0V365h.1c3.6-117,86.8-179,188.9-179s185.3,62,188.9,179h.1v541c0,49.71,40.29,90,90,90h85c8.28,0,15-6.72,15-15h0V365h.1c3.6-117,86.8-179,188.9-179s185.3,62,188.9,179h.1v541c0,49.71,40.29,90,90,90h85c8.28,0,15-6.72,15-15h0V365c-.01-.67-.08-1.34-.2-2Z"/></g></svg>