<svg xmlns="http://www.w3.org/2000/svg" viewBox="0 0 640 512"><g fill="#FFF"><path d="M320 64.12v383.7c0 12.58-7.34 23.99-18.84 29.14 -5.06 1.94-8.76 2.84-13.16 2.84 -7.69 0-15.28-2.83-21.27-8.13l-134.9-119.8H48c-26.51 0-48-21.48-48-47.96v-95.92c0-26.4 21.49-47.9 48-47.9h83.84l134.9-119.8c9.42-8.37 22.93-10.47 34.43-5.29C312.7 40.12 320 51.54 320 64.11Z"></path><path opacity=".4" d="M473.1 108.2c-10.22-8.34-25.34-6.9-33.78 3.34 -8.41 10.24-6.91 25.35 3.34 33.74 33.93 26.82 53.33 68.02 53.33 109.82s-19.44 82.1-53.31 110.7c-10.25 8.39-11.75 23.5-3.35 33.74 4.75 5.77 11.62 8.77 18.56 8.77 5.375 0 10.75-1.78 15.22-5.44 45.07-35.98 70.87-89.88 70.87-147.78 0-57.9-25.8-110.1-70.9-146.9ZM412.6 182c-10.28-8.34-25.41-6.87-33.75 3.4 -8.41 10.24-6.91 25.35 3.375 33.74 11.27 9.25 17.77 22.65 17.77 35.958 0 14.17-6.5 27.59-17.81 36.83 -10.28 8.39-11.78 23.5-3.375 33.74 4.71 5.8 11.62 8.8 18.56 8.8 5.34 0 10.75-1.78 15.19-5.4 22.53-17.58 35.435-44.48 35.435-73.98 0-29.5-12.9-54.7-35.4-73.1ZM534.4 33.4c-10.22-8.34-25.34-6.87-33.78 3.34 -8.41 10.24-6.91 25.35 3.34 33.74 55.93 45.82 88.036 113.42 88.036 184.62s-32.09 139.7-88.06 185.5c-10.25 8.39-11.75 23.5-3.35 33.74 4.7 6.66 11.6 9.66 18.6 9.66 5.375 0 10.75-1.78 15.22-5.44 67.08-54.97 105.58-136.07 105.58-223.47s-38.5-166.76-105.6-221.7Z"></path></g></svg>