<?xml version="1.0" standalone="no"?>
<!DOCTYPE svg PUBLIC "-//W3C//DTD SVG 20010904//EN"
 "http://www.w3.org/TR/2001/REC-SVG-20010904/DTD/svg10.dtd">
<svg version="1.0" xmlns="http://www.w3.org/2000/svg"
 width="244.000000pt" height="244.000000pt" viewBox="0 0 244.000000 244.000000"
 preserveAspectRatio="xMidYMid meet">
<metadata>
Created by potrace 1.14, written by Peter Selinger 2001-2017
</metadata>
<g transform="translate(0.000000,244.000000) scale(0.100000,-0.100000)"
fill="#000000" stroke="none">
<path d="M1155 1696 c-16 -7 -109 -77 -205 -155 -186 -149 -220 -190 -220
-260 0 -57 67 -427 83 -458 20 -37 45 -59 90 -78 30 -12 88 -15 329 -15 420 1
408 -8 464 326 36 214 37 248 9 307 -17 37 -359 317 -409 337 -37 14 -105 12
-141 -4z m162 -103 c142 -108 310 -248 320 -267 18 -31 16 -60 -17 -258 -31
-185 -46 -230 -79 -248 -12 -6 -132 -10 -316 -10 l-297 0 -27 28 c-25 25 -30
44 -59 222 -36 214 -37 235 -19 266 11 20 310 268 352 292 40 23 90 14 142
-25z"/>
<path d="M1132 1311 c-29 -10 -70 -32 -90 -48 -72 -59 -40 -124 33 -68 99 75
211 75 311 -1 28 -22 40 -25 52 -17 70 44 -83 154 -212 153 -23 -1 -65 -9 -94
-19z"/>
<path d="M1150 1168 c-36 -20 -46 -30 -48 -55 -4 -40 20 -49 63 -23 41 25 89
25 130 0 40 -25 65 -17 65 20 0 22 -8 34 -36 51 -55 33 -119 36 -174 7z"/>
<path d="M1196 1044 c-23 -23 -20 -51 9 -70 23 -15 27 -15 50 0 14 9 25 25 25
36 0 24 -26 50 -50 50 -10 0 -26 -7 -34 -16z"/>
</g>
</svg>
