<?xml version="1.0" standalone="no"?>
<!DOCTYPE svg PUBLIC "-//W3C//DTD SVG 20010904//EN"
 "http://www.w3.org/TR/2001/REC-SVG-20010904/DTD/svg10.dtd">
<svg version="1.0" xmlns="http://www.w3.org/2000/svg"
 width="256.000000pt" height="256.000000pt" viewBox="0 0 256.000000 256.000000"
 preserveAspectRatio="xMidYMid meet">
<metadata>
Created by potrace 1.14, written by Peter Selinger 2001-2017
</metadata>
<g transform="translate(0.000000,256.000000) scale(0.100000,-0.100000)"
fill="#000000" stroke="none">
<path d="M50 2540 c0 -12 -10 -25 -25 -32 -20 -9 -25 -18 -25 -50 0 -32 3 -38
21 -38 11 0 35 -7 52 -16 18 -9 39 -20 47 -24 8 -4 15 -14 14 -21 0 -8 23 -26
53 -40 52 -26 55 -26 76 -8 20 16 20 18 5 24 -10 4 -18 15 -18 25 0 10 -7 21
-16 24 -11 4 -13 13 -9 27 7 20 5 21 -25 15 -32 -6 -32 -5 -27 23 6 28 -11 48
-35 43 -5 -1 -8 8 -8 21 0 31 -18 47 -52 47 -21 0 -28 -5 -28 -20z"/>
<path d="M200 2525 c0 -33 2 -35 35 -35 43 0 72 -26 81 -74 3 -21 12 -36 20
-36 22 0 54 -38 54 -62 0 -16 -11 -28 -32 -38 -18 -8 -34 -21 -36 -29 -4 -11
1 -10 19 2 37 27 67 21 89 -15 20 -32 21 -42 4 -83 -7 -18 -6 -18 9 -7 24 20
61 11 65 -16 3 -18 8 -21 28 -16 29 7 54 -10 54 -38 0 -15 5 -19 20 -15 11 3
23 0 26 -5 4 -7 10 -4 16 6 12 21 34 20 47 -1 8 -14 4 -23 -17 -41 l-27 -23
32 16 c45 21 62 19 75 -10 6 -14 17 -25 24 -25 10 0 24 -21 24 -36 0 -2 -14
-4 -30 -4 -23 0 -33 6 -40 25 -10 25 -34 33 -45 15 -9 -15 -51 -12 -65 5 -7 8
-21 15 -31 15 -11 0 -19 4 -19 8 0 12 -59 32 -76 25 -17 -6 -18 -17 -3 -45 6
-11 8 -22 6 -25 -8 -7 -47 20 -47 33 0 6 -18 26 -40 45 -32 26 -39 39 -35 57
3 12 1 22 -5 22 -6 0 -8 10 -4 25 9 36 -12 57 -48 50 -20 -5 -35 -2 -47 9 -21
19 -116 56 -143 56 -10 0 -18 7 -18 15 0 9 -12 20 -26 25 -19 8 -24 15 -19 29
5 17 1 20 -35 19 l-40 0 0 -122 0 -123 30 5 c26 4 37 -2 68 -34 20 -22 49 -44
64 -51 31 -14 62 -67 54 -90 -5 -11 -2 -13 11 -8 10 4 33 9 50 12 18 3 30 9
28 13 -3 5 -14 6 -25 3 -24 -6 -26 10 -3 32 32 33 119 -4 129 -55 l6 -29 29
21 c25 19 33 20 65 10 30 -9 41 -8 58 3 26 19 90 19 108 1 9 -9 50 -15 123
-18 123 -5 175 -22 239 -78 44 -39 62 -71 70 -125 l6 -40 -14 36 c-31 79 -45
96 -106 127 -132 68 -225 78 -345 37 -151 -51 -235 -127 -235 -216 0 -52 19
-83 69 -112 42 -25 39 -14 -9 29 -69 62 -63 123 19 197 97 87 250 131 361 102
97 -25 182 -90 195 -148 9 -45 11 -97 3 -97 -4 0 -8 17 -8 38 0 78 -61 128
-220 182 -56 19 -65 19 -129 6 -91 -19 -140 -45 -189 -101 -62 -70 -66 -131
-13 -179 22 -20 43 -14 23 6 -7 7 -11 28 -11 48 l1 35 7 -35 c11 -52 25 -73
80 -119 52 -44 58 -70 15 -67 -32 1 -31 16 2 16 24 0 23 3 -22 40 -27 22 -52
40 -56 40 -13 0 -9 -18 5 -23 6 -2 9 -7 5 -11 -3 -4 -17 -1 -30 8 -12 8 -45
20 -73 27 -90 22 -102 32 -139 119 -3 8 -4 -1 -1 -20 7 -48 33 -80 86 -107 53
-27 31 -30 -27 -4 -54 25 -74 55 -74 111 0 38 29 110 44 110 2 0 2 -17 -1 -39
-5 -38 9 -81 27 -81 6 0 10 16 10 36 0 52 78 156 145 192 20 11 20 11 -1 12
-27 0 -105 -50 -183 -118 -75 -66 -111 -132 -111 -204 0 -27 -4 -48 -10 -48
-15 0 -12 -55 4 -95 14 -33 87 -95 112 -95 7 0 18 8 23 18 9 15 10 14 11 -6 0
-14 4 -21 11 -16 17 10 2 62 -28 103 -23 31 -24 33 -4 16 50 -43 65 -109 33
-139 -18 -15 -22 -14 -79 23 -69 44 -103 84 -103 118 0 14 -4 22 -11 18 -24
-15 4 -71 69 -139 37 -38 55 -62 39 -53 -15 10 -27 13 -27 8 0 -17 38 -32 65
-25 l26 6 -30 19 c-17 10 -31 22 -31 25 0 3 12 -1 26 -11 34 -22 95 -15 136
15 16 12 32 20 34 17 9 -9 -80 -64 -123 -77 -58 -18 -107 -6 -137 33 -14 18
-26 27 -26 20 0 -7 10 -24 23 -39 19 -22 35 -28 88 -33 l64 -6 -42 -11 c-49
-14 -111 -10 -127 7 -8 9 -6 10 9 5 12 -4 6 4 -15 22 -28 24 -39 28 -60 20
-32 -11 -52 -27 -73 -58 -11 -16 -17 -19 -17 -9 0 20 47 63 90 83 30 14 31 15
7 11 -41 -8 -137 -56 -137 -68 0 -7 4 -7 12 1 23 23 29 12 9 -14 -29 -37 -28
-101 2 -145 22 -33 25 -34 87 -34 36 0 76 4 90 8 17 5 14 1 -10 -12 -46 -26
-115 -27 -158 -1 -26 16 -32 17 -32 5 0 -8 13 -21 30 -30 65 -33 149 -10 288
79 90 58 147 86 174 86 14 0 -2 -11 -43 -29 -123 -52 -201 -115 -228 -182 -5
-13 -10 -17 -10 -9 -1 8 6 27 13 43 18 33 7 35 -27 3 -39 -36 -59 -83 -55
-130 l3 -42 -51 0 c-28 1 -58 7 -67 15 -11 9 -17 10 -17 2 0 -6 5 -11 10 -11
6 0 10 -7 10 -15 0 -11 10 -13 50 -8 44 5 55 2 91 -23 38 -26 65 -31 119 -23
8 1 40 1 70 0 47 -2 52 -4 33 -13 -12 -6 -29 -26 -38 -44 -10 -21 -21 -31 -30
-28 -8 3 -29 -1 -46 -10 -32 -16 -33 -16 -66 16 -31 30 -40 33 -101 34 -37 0
-71 2 -77 4 -22 6 -35 -1 -35 -17 0 -15 9 -18 47 -18 29 0 51 5 56 13 18 28
119 -16 132 -58 4 -11 15 -20 26 -20 11 0 31 -12 44 -26 14 -15 25 -23 25 -17
0 13 -44 53 -58 53 -17 0 -15 17 4 24 46 18 60 8 77 -52 9 -33 24 -68 34 -80
20 -24 118 -63 138 -56 7 3 15 -5 19 -18 7 -26 55 -81 84 -97 12 -6 34 -11 51
-11 27 0 31 -4 31 -26 0 -22 -2 -24 -14 -14 -8 6 -33 10 -54 9 -30 -2 -46 3
-69 22 -17 14 -32 32 -35 39 -3 10 -6 7 -10 -8 -4 -15 -2 -22 8 -22 25 0 56
-39 49 -61 -7 -21 -7 -21 14 0 23 23 69 28 93 9 9 -7 19 -34 22 -59 8 -52 2
-60 -58 -79 -35 -11 -41 -11 -52 5 -7 10 -15 23 -17 29 -3 8 -9 7 -19 -2 -11
-9 -18 -10 -23 -2 -3 5 -19 10 -35 10 -19 0 -35 9 -48 25 -20 25 -21 25 -27 5
-9 -29 -46 -44 -88 -36 -47 9 -70 37 -71 86 0 26 -5 40 -13 40 -8 0 -13 13
-13 37 0 20 -3 34 -6 30 -3 -3 -17 -2 -30 3 -23 9 -24 8 -24 -37 0 -43 -1 -45
-17 -31 -10 9 -23 14 -29 11 -7 -2 -14 7 -18 21 -3 13 -18 43 -33 65 -26 39
-28 41 -38 21 -6 -11 -14 -18 -17 -15 -3 3 -9 -7 -13 -22 -7 -26 -8 -26 -15
-8 -6 13 -9 -11 -9 -66 -1 -85 -1 -87 34 -123 19 -21 35 -41 35 -45 0 -4 -16
-5 -35 -3 -21 3 -35 0 -35 -7 0 -6 16 -11 36 -11 21 0 33 -4 29 -10 -3 -5 -19
-10 -36 -10 -27 0 -29 -3 -29 -37 1 -33 2 -35 12 -18 6 11 18 26 26 33 19 15
62 16 62 2 0 -16 -33 -25 -38 -11 -4 12 -42 -34 -42 -51 0 -5 25 -8 55 -8 51
0 55 2 62 27 4 16 7 37 7 47 1 16 10 20 54 23 l52 3 -19 -28 c-29 -40 -36 -72
-17 -72 10 0 16 9 16 23 0 27 41 70 68 72 10 0 29 9 42 18 29 20 39 14 18 -10
-19 -22 -48 -78 -48 -93 0 -5 9 -10 20 -10 16 0 20 7 20 30 0 34 25 90 40 90
5 0 2 -16 -6 -35 -21 -51 -19 -85 6 -85 11 0 20 6 20 13 0 23 34 46 75 52 58
9 146 32 188 50 46 19 50 19 38 -3 -9 -16 -141 -60 -263 -86 -16 -4 -28 -11
-28 -16 0 -6 76 -10 199 -10 182 0 200 2 204 18 4 16 5 16 6 0 1 -16 13 -18
101 -18 73 0 100 3 100 13 0 6 -16 50 -35 97 -19 46 -32 86 -31 88 5 4 44 -81
71 -150 21 -56 51 -66 58 -21 l4 28 2 -27 c1 -26 4 -28 41 -28 33 0 40 4 44
23 9 44 14 244 7 256 -7 11 -60 -120 -77 -192 -3 -15 -8 -26 -11 -23 -6 6 23
160 48 256 11 41 24 104 30 140 14 92 17 99 39 93 24 -6 114 39 155 78 l30 28
0 -212 c0 -301 11 -326 172 -377 51 -17 100 -30 108 -30 18 0 19 -12 3 -28
-26 -26 8 -10 37 17 30 29 105 51 105 31 0 -5 -7 -10 -15 -10 -8 0 -24 -9 -34
-19 -11 -11 -23 -16 -27 -13 -4 4 -4 1 0 -5 12 -21 33 -15 88 27 48 36 89 51
88 33 -1 -5 -20 -21 -43 -38 -36 -25 -39 -30 -21 -33 11 -1 57 13 102 32 61
26 88 33 105 27 20 -7 17 -11 -31 -31 -77 -33 -56 -36 33 -5 59 21 81 25 98
17 21 -9 21 -10 -8 -16 -80 -18 -83 -20 -43 -24 20 -2 58 4 83 12 25 9 55 16
67 16 18 0 19 -2 7 -16 -12 -15 -8 -16 51 -12 47 3 87 14 145 40 l80 37 3 46
c2 26 -2 53 -8 60 -8 9 -8 15 0 20 6 3 10 43 10 92 l0 85 -32 -19 c-18 -11
-51 -26 -73 -35 -22 -9 -78 -33 -124 -52 -140 -59 -101 -35 69 43 l160 74 0
82 0 82 -142 -72 c-185 -95 -538 -237 -583 -234 -5 0 44 19 110 43 134 47 214
82 453 197 l163 79 -5 153 c-8 208 -8 227 0 352 6 108 6 110 -13 92 -11 -9
-25 -17 -32 -17 -9 0 -12 -9 -8 -27 5 -28 -10 -73 -25 -73 -4 0 -8 -11 -8 -24
0 -13 -6 -26 -14 -29 -8 -3 -17 -19 -21 -36 -5 -26 -11 -31 -36 -31 -26 0 -29
-4 -29 -30 0 -16 -2 -30 -5 -30 -19 0 -63 32 -75 55 -11 21 -19 25 -41 20 -15
-3 -30 -1 -34 4 -11 19 -24 12 -27 -16 -2 -22 -8 -28 -27 -28 -29 0 -59 -51
-66 -111 -8 -70 -12 -79 -29 -76 -25 4 -19 -29 6 -36 21 -5 21 -6 2 -13 -31
-12 -43 -10 -64 11 -32 32 -27 85 12 123 28 28 31 38 29 79 -3 58 10 82 57
108 35 20 36 21 7 15 -57 -12 -90 -64 -82 -128 5 -34 2 -43 -19 -59 -46 -37
-48 -125 -3 -159 15 -11 18 -18 10 -23 -6 -4 -11 -12 -11 -17 0 -6 14 1 31 15
17 14 35 26 39 26 13 0 51 -42 61 -68 5 -14 20 -25 39 -28 45 -9 25 -26 -26
-21 -35 3 -45 0 -49 -14 -4 -11 -12 -15 -25 -12 -13 4 -20 0 -20 -10 0 -18 16
-31 55 -45 l30 -10 -37 -1 c-43 -1 -83 30 -75 59 4 15 -1 17 -39 12 -28 -3
-50 0 -60 8 -13 12 -14 10 -8 -15 6 -24 4 -27 -12 -23 -24 6 -41 -11 -50 -49
-3 -15 -8 -36 -10 -45 -3 -9 -20 -22 -39 -28 -27 -9 -40 -8 -64 4 -16 9 -31
21 -34 28 -2 7 -2 3 0 -9 2 -15 -2 -23 -11 -23 -21 0 -46 -28 -40 -45 11 -27
-10 -16 -42 22 -31 37 -32 38 -52 20 -12 -11 -25 -16 -31 -13 -5 4 -28 0 -49
-7 -25 -9 -46 -11 -56 -5 -23 13 -20 28 7 28 12 0 44 11 71 25 60 30 66 30
119 5 l42 -21 -24 21 c-13 11 -35 23 -48 26 -28 7 -98 -13 -114 -33 -13 -15
-69 -18 -69 -3 0 6 9 10 20 10 35 0 83 25 132 69 46 41 49 42 83 31 31 -10 41
-9 91 17 31 15 69 39 86 54 27 22 29 28 19 47 -14 27 -5 48 51 111 21 24 38
48 38 52 0 17 -20 9 -35 -15 -9 -14 -24 -23 -38 -22 -12 1 -36 -1 -53 -5 -18
-3 -38 -3 -45 2 -10 6 -8 9 9 9 12 0 40 9 61 20 21 10 55 21 75 23 25 2 48 15
71 37 37 36 40 57 2 23 -29 -27 -65 -45 -76 -39 -5 3 -30 -6 -56 -19 -25 -14
-51 -23 -56 -20 -5 4 -19 8 -31 10 -43 9 -64 65 -32 83 23 13 54 3 47 -14 -9
-25 39 -16 70 14 27 25 29 25 18 4 -7 -13 -26 -29 -43 -36 -35 -15 -21 -32 18
-22 18 5 33 24 54 69 33 68 53 89 78 80 13 -5 14 -3 5 7 -9 10 -24 8 -76 -10
-50 -18 -73 -21 -103 -14 l-39 8 54 6 c46 5 58 11 83 40 16 19 31 46 35 60 14
64 43 137 62 158 21 24 77 30 112 12 16 -9 19 -7 19 10 0 11 -4 20 -10 20 -5
0 -10 -5 -10 -10 0 -7 -6 -7 -19 0 -30 15 -66 12 -92 -9 -23 -19 -24 -19 -41
10 -18 29 -32 34 -62 23 -11 -4 -13 -14 -9 -35 5 -26 3 -29 -20 -29 -30 0 -57
24 -57 51 0 17 39 50 75 63 6 2 7 6 4 10 -7 8 -90 -38 -111 -61 -9 -10 -18
-27 -20 -38 -3 -17 -5 -17 -10 -4 -11 27 15 63 66 89 26 14 54 37 62 50 17 31
18 87 2 93 -10 3 -10 8 -2 18 6 8 18 35 27 60 19 51 42 75 139 142 77 54 136
119 215 234 31 45 62 84 69 87 13 5 47 109 59 178 3 21 21 55 42 80 43 52 121
208 130 261 l6 38 -44 -3 c-42 -3 -44 -4 -50 -44 -7 -41 -30 -112 -92 -284
-19 -52 -40 -121 -47 -153 -12 -50 -22 -67 -82 -129 -38 -39 -83 -98 -100
-131 -30 -55 -81 -107 -106 -107 -6 0 -38 -25 -71 -55 -48 -45 -65 -69 -86
-125 -15 -39 -32 -73 -39 -77 -7 -5 -16 -28 -19 -52 -3 -24 -2 -40 3 -35 5 5
10 24 12 43 2 19 9 36 15 39 9 2 11 -6 7 -30 -10 -51 -20 -62 -53 -64 l-30 -2
21 29 c18 24 20 32 10 54 -7 14 -26 31 -42 37 -33 11 -38 23 -14 32 29 11 64
7 64 -8 0 -8 5 -18 10 -21 7 -4 9 2 5 17 -9 40 73 151 168 226 42 33 76 70 96
106 18 31 48 68 67 84 43 35 101 124 115 175 5 20 35 104 66 185 30 81 66 180
79 220 l22 72 -98 0 c-69 0 -100 -4 -103 -12 -4 -10 -6 -10 -6 0 -1 6 -5 12
-10 12 -5 0 -12 -24 -15 -52 -4 -29 -25 -107 -47 -173 -22 -66 -47 -142 -55
-170 -9 -27 -41 -99 -71 -160 -30 -60 -63 -138 -74 -172 -12 -37 -42 -91 -75
-135 -29 -40 -64 -97 -76 -125 -12 -29 -27 -53 -34 -53 -17 0 8 58 65 155 110
185 236 495 307 755 38 139 44 130 -90 130 l-113 0 4 -112 c5 -111 5 -114 -23
-153 -24 -34 -29 -54 -35 -130 -6 -70 -18 -118 -53 -213 -24 -67 -58 -142 -74
-167 -16 -25 -35 -65 -41 -91 -7 -25 -19 -57 -28 -70 -9 -14 -19 -42 -23 -64
-7 -37 -5 -41 31 -70 21 -16 49 -34 63 -40 20 -7 26 -17 26 -40 0 -53 -55 -53
-109 1 -26 26 -31 38 -31 78 0 35 -5 53 -20 66 -11 10 -20 26 -20 37 0 10 -5
18 -10 18 -6 0 -9 -21 -8 -52 3 -47 1 -53 -24 -67 -35 -20 -47 -7 -20 22 21
22 29 47 16 47 -3 0 -15 -11 -26 -25 -24 -31 -50 -32 -63 -3 -6 13 -25 26 -49
32 -54 15 -64 45 -25 82 19 18 29 38 29 56 0 39 -26 97 -57 130 -23 24 -24 28
-10 34 25 9 61 -19 82 -65 22 -49 40 -54 31 -9 -14 70 -55 101 -155 114 -79
10 -69 21 13 13 87 -8 130 -28 156 -72 22 -35 26 -87 9 -104 -8 -8 -4 -16 15
-28 24 -16 28 -16 50 -1 29 18 40 83 38 209 -1 88 -19 129 -64 148 -41 17 -51
42 -44 113 3 37 1 75 -7 96 -11 32 -18 36 -72 50 -45 12 -62 21 -71 40 -62
135 -90 189 -98 189 -17 2 3 -81 28 -114 15 -19 34 -54 42 -77 8 -24 29 -70
46 -103 33 -62 40 -123 23 -206 -7 -36 -6 -37 30 -43 21 -4 48 -19 61 -33 36
-39 68 -108 59 -130 -7 -17 -7 -17 -15 2 -10 27 -27 40 -75 56 -52 17 -64 27
-45 39 12 8 11 10 -6 10 -27 0 -47 25 -62 74 -10 36 -9 40 13 58 31 24 31 45
1 128 -13 36 -32 88 -41 115 -10 28 -33 72 -52 99 -23 34 -33 59 -33 87 l0 39
-255 0 c-140 0 -255 -3 -255 -6 0 -4 30 -37 68 -73 50 -49 71 -78 81 -111 15
-54 66 -110 98 -110 28 0 88 -24 97 -39 4 -5 -6 -4 -21 4 -15 8 -48 15 -73 15
-60 0 -82 17 -125 99 -27 51 -46 73 -75 90 -23 12 -51 41 -65 64 -23 40 -61
74 -72 64 -3 -3 5 -10 16 -17 12 -6 31 -31 44 -56 15 -30 37 -53 63 -67 26
-15 49 -41 70 -77 17 -30 45 -70 62 -87 28 -30 35 -33 86 -32 42 1 62 -3 76
-16 16 -14 23 -16 32 -7 33 33 108 -3 108 -51 0 -14 18 -40 45 -67 50 -49 53
-63 28 -114 -18 -36 -41 -51 -28 -18 16 38 16 52 0 85 -16 34 -59 64 -69 48
-3 -4 8 -18 24 -29 32 -24 57 -62 41 -62 -5 0 -16 7 -25 15 -8 8 -19 15 -24
15 -5 0 -12 9 -15 20 -3 11 -12 20 -21 20 -12 0 -14 7 -9 30 6 33 -17 70 -45
70 -9 0 -5 -8 12 -21 14 -11 26 -26 26 -32 0 -7 -7 -4 -14 6 -7 9 -18 17 -25
17 -13 0 -51 36 -51 49 0 10 -58 21 -112 21 -47 0 -70 22 -108 102 -33 70 -51
92 -90 108 -18 8 -36 27 -49 54 -10 23 -35 55 -55 69 -35 27 -36 28 -186 25
l-150 -3 27 -38 c20 -29 24 -40 15 -49 -9 -9 -17 -7 -33 10 -11 13 -34 25 -50
29 -22 4 -29 11 -29 29 0 13 -4 24 -10 24 -5 0 -10 -16 -10 -35z m650 -20 c19
-19 32 -35 29 -35 -3 0 -20 16 -39 35 -19 19 -32 35 -29 35 3 0 20 -16 39 -35z
m-396 -66 c19 -22 26 -42 26 -72 0 -23 7 -51 15 -61 8 -11 15 -30 15 -42 0
-25 23 -38 62 -35 30 3 48 -21 48 -62 0 -20 4 -24 20 -20 11 3 26 0 33 -5 10
-9 17 -6 30 8 24 28 78 26 106 -4 21 -22 24 -23 51 -9 25 12 33 12 64 -1 34
-14 61 -47 49 -60 -3 -3 8 -6 25 -6 35 0 62 -30 62 -68 0 -18 -4 -23 -16 -18
-9 3 -19 6 -24 6 -5 0 -15 6 -22 13 -14 12 -34 24 -92 56 -65 35 -168 48 -150
19 3 -5 12 -7 19 -4 19 7 65 -32 65 -55 0 -12 7 -19 20 -19 11 0 23 -6 26 -14
4 -10 21 -12 73 -8 64 4 69 3 88 -22 12 -14 30 -26 42 -26 12 0 21 -3 21 -8 0
-4 20 -6 45 -4 55 5 105 -6 86 -17 -9 -6 -6 -10 12 -15 36 -9 97 -80 97 -114
0 -55 -116 -170 -152 -151 -32 17 -33 56 -3 100 15 23 21 39 13 37 -24 -8 -60
-72 -56 -100 3 -15 0 -24 -5 -21 -11 6 -5 45 14 91 9 21 10 35 4 40 -6 4 -11
14 -11 22 -1 8 -5 22 -8 31 -6 14 -2 16 36 9 45 -9 78 -39 78 -71 0 -16 3 -18
19 -9 47 24 32 98 -24 124 -18 9 -56 18 -84 20 -28 3 -55 7 -60 10 -5 4 -13 1
-16 -5 -4 -5 -13 -8 -21 -5 -8 3 -14 1 -14 -4 0 -6 24 -10 53 -10 68 0 124
-16 137 -40 15 -29 12 -35 -9 -16 -25 23 -77 30 -130 17 -43 -9 -46 -8 -82 24
-35 32 -95 56 -175 71 -19 3 -34 12 -34 18 0 15 -73 96 -87 96 -6 0 -17 9 -24
21 -10 15 -29 23 -63 26 -40 5 -51 11 -69 39 -12 19 -38 40 -58 48 -38 16 -53
38 -44 66 7 21 -21 90 -36 90 -6 0 -8 7 -5 15 6 17 -33 38 -73 39 -18 1 -27 8
-31 26 -8 32 13 49 62 50 28 0 42 -7 62 -31z m1773 -11 c-3 -7 -5 -2 -5 12 0
14 2 19 5 13 2 -7 2 -19 0 -25z m-10 -40 c-3 -8 -6 -5 -6 6 -1 11 2 17 5 13 3
-3 4 -12 1 -19z m-1034 -23 c8 -18 -11 -31 -25 -17 -11 11 -3 32 12 32 4 0 10
-7 13 -15z m867 5 c0 -5 -4 -10 -10 -10 -5 0 -10 5 -10 10 0 6 5 10 10 10 6 0
10 -4 10 -10z m-1309 -47 c13 -16 12 -17 -3 -4 -10 7 -18 15 -18 17 0 8 8 3
21 -13z m393 -2 c8 -12 -21 -34 -34 -26 -8 5 -8 11 1 21 13 16 25 18 33 5z
m-894 -106 c46 -24 65 -115 23 -115 -10 0 -12 6 -8 21 5 15 4 19 -5 14 -6 -4
-17 1 -24 11 -10 13 -21 16 -44 11 -60 -12 -81 14 -42 53 24 24 60 26 100 5z
m1048 -135 c32 -19 32 -22 26 -69 -6 -43 -4 -50 17 -66 24 -17 24 -17 -16 -10
-49 8 -52 11 -37 35 21 34 15 79 -14 105 -32 30 -21 32 24 5z m83 -126 c13 -7
18 -13 11 -14 -26 0 -52 21 -51 43 0 20 1 20 8 3 4 -10 18 -24 32 -32z m769
19 c0 -5 -10 -19 -21 -33 l-21 -25 18 33 c18 32 24 38 24 25z m25 -43 c-5 -8
-11 -8 -17 -2 -6 6 -7 16 -3 22 5 8 11 8 17 2 6 -6 7 -16 3 -22z m-1435 10 c0
-5 -5 -10 -11 -10 -5 0 -7 5 -4 10 3 6 8 10 11 10 2 0 4 -4 4 -10z m629 -56
c2 -2 -2 -11 -9 -19 -11 -13 -9 -20 13 -43 27 -28 57 -90 57 -117 0 -9 -14
-29 -32 -45 -30 -28 -31 -31 -20 -67 6 -20 10 -37 9 -38 -1 0 -16 -10 -34 -23
-18 -12 -35 -22 -38 -22 -10 0 5 43 27 73 11 16 17 31 14 34 -3 3 8 21 24 40
17 18 30 42 30 53 0 38 -39 106 -83 148 l-47 42 43 -6 c23 -4 44 -8 46 -10z
m230 2 c21 -26 -12 -166 -39 -166 -8 0 -5 99 4 107 3 4 6 21 6 40 0 35 10 42
29 19z m-733 -70 c62 -29 124 -89 124 -119 -1 -19 -3 -18 -14 8 -13 31 -64 75
-110 96 -27 13 -50 4 -27 -10 9 -6 3 -10 -17 -14 -16 -3 -47 -18 -67 -32 -21
-14 -44 -25 -51 -25 -19 0 -83 -58 -100 -92 -18 -34 -12 -57 23 -98 13 -17 21
-30 16 -30 -15 0 -86 78 -80 87 3 5 1 28 -4 50 -14 55 5 90 77 144 89 65 146
74 230 35z m287 -42 c4 -20 2 -44 -3 -53 -8 -14 -9 -13 -10 4 0 12 -8 37 -19
57 -20 41 -18 52 9 38 9 -5 20 -26 23 -46z m-133 -73 c0 -17 -1 -16 -28 34
l-22 40 25 -30 c14 -16 25 -36 25 -44z m-241 25 c-2 -2 -25 -13 -51 -24 -84
-37 -111 -113 -61 -174 18 -21 21 -28 8 -18 -54 41 -61 99 -19 150 25 29 114
83 123 74 2 -2 2 -6 0 -8z m51 -6 c-19 -10 -54 -36 -77 -58 -45 -41 -54 -73
-32 -114 16 -30 -4 -47 -30 -24 -24 22 -35 62 -22 84 9 14 10 11 11 -14 0 -18
9 -42 20 -55 l20 -24 -15 38 c-19 45 -12 77 23 110 29 28 111 77 127 76 6 0
-6 -8 -25 -19z m87 14 c-3 -3 -12 -4 -19 -1 -8 3 -5 6 6 6 11 1 17 -2 13 -5z
m33 -57 c0 -2 -10 -12 -22 -23 l-23 -19 19 23 c18 21 26 27 26 19z m77 -39
c-3 -7 -5 -2 -5 12 0 14 2 19 5 13 2 -7 2 -19 0 -25z m-248 -15 c-22 -43 -24
-64 -6 -82 10 -11 9 -13 -3 -9 -24 7 -24 64 0 98 29 40 32 38 9 -7z m216 -12
c-4 -17 -10 -31 -15 -31 -7 0 -5 23 6 59 8 26 16 2 9 -28z m270 -11 c-16 -16
-31 -27 -34 -24 -5 4 48 53 58 54 3 0 -8 -13 -24 -30z m-995 -33 c4 -5 6 4 4
20 l-4 28 10 -25 c6 -14 23 -38 38 -53 l27 -28 -35 15 c-45 18 -76 58 -65 83
8 16 9 15 13 -7 2 -14 7 -29 12 -33z m777 31 c-3 -8 -6 -5 -6 6 -1 11 2 17 5
13 3 -3 4 -12 1 -19z m43 -13 c0 -5 -5 -3 -10 5 -5 8 -10 20 -10 25 0 6 5 3
10 -5 5 -8 10 -19 10 -25z m-190 -21 c0 -8 -5 -12 -10 -9 -6 4 -8 11 -5 16 9
14 15 11 15 -7z m290 6 c13 -9 13 -10 0 -10 -8 0 -22 5 -30 10 -13 9 -13 10 0
10 8 0 22 -5 30 -10z m-20 -30 c30 -7 73 -20 94 -28 41 -17 176 -144 176 -166
0 -7 10 -26 22 -42 13 -15 17 -25 10 -20 -14 8 -15 5 -6 -18 3 -9 10 -14 14
-11 4 2 4 -10 0 -28 -4 -20 -1 -47 8 -72 19 -56 9 -176 -19 -222 -25 -41 -22
-47 14 -28 23 12 27 12 27 -1 0 -8 7 -17 15 -20 8 -4 15 -16 15 -28 -1 -21 -1
-21 -15 -2 -15 19 -15 19 -15 -2 0 -23 38 -40 59 -27 13 7 14 47 3 61 -5 5 -3
20 4 34 11 21 14 22 20 7 12 -32 -3 -96 -28 -117 -17 -15 -19 -19 -7 -20 27 0
47 33 51 88 7 86 -38 114 -64 40 -12 -33 -12 -33 -18 -8 -5 19 0 31 17 48 30
28 48 28 67 0 37 -52 8 -158 -50 -186 -31 -14 -35 -14 -54 3 -12 10 -20 31
-20 49 -1 40 -15 17 -24 -39 -4 -22 -12 -55 -18 -73 l-10 -34 -107 7 c-58 4
-139 13 -178 21 -63 11 -78 11 -109 -2 -20 -8 -39 -13 -42 -10 -3 3 -1 6 4 6
6 0 18 6 28 13 15 11 17 17 7 35 -6 12 -25 29 -41 37 -25 13 -29 19 -21 34 10
18 43 34 94 45 29 7 32 13 18 35 -6 9 -26 14 -55 14 -48 0 -62 13 -23 21 12 3
53 7 91 10 38 3 71 8 74 11 19 19 -89 145 -124 145 -13 0 -24 5 -24 10 0 6 8
10 18 8 12 -2 16 3 14 17 -2 19 -1 18 14 -2 21 -30 34 -29 34 1 0 16 -15 39
-44 66 -31 29 -45 52 -50 78 -3 20 -9 52 -12 70 -8 42 10 78 44 87 14 3 39 18
56 32 20 17 24 24 11 19 -11 -5 -33 -13 -50 -19 -16 -5 -50 -17 -75 -25 -24
-8 -70 -14 -100 -13 -31 1 -74 -4 -96 -13 -21 -8 -52 -17 -69 -21 -16 -4 -40
-16 -52 -27 -13 -12 -23 -17 -23 -10 0 20 49 50 94 56 25 4 59 18 78 31 18 14
50 36 71 50 20 14 37 30 37 35 0 6 24 10 53 11 28 1 63 5 77 9 14 4 32 6 40 5
8 -2 40 -9 70 -15z m515 -142 c17 -18 36 -39 44 -45 13 -11 12 -13 -2 -13 -44
0 -100 104 -89 165 l7 40 5 -57 c4 -45 11 -64 35 -90z m-870 117 c-16 -7 -61
-37 -100 -67 -73 -55 -111 -110 -139 -198 -13 -41 -15 -42 -15 -14 -1 16 16
66 38 110 31 65 48 88 89 118 49 35 112 64 142 65 8 0 2 -6 -15 -14z m621 -30
c-3 -8 0 -15 7 -16 9 0 9 -2 0 -6 -19 -7 -28 -4 -28 10 0 6 -8 11 -18 9 -9 -2
-17 2 -17 8 0 5 14 10 31 10 24 0 30 -4 25 -15z m130 -73 c17 -41 17 -42 5
-42 -5 0 -13 15 -16 33 -4 17 -15 41 -24 52 -15 19 -15 19 2 6 10 -8 25 -30
33 -49z m47 28 c7 -34 78 -116 110 -126 20 -6 20 -7 2 -20 -27 -20 -43 -17
-50 9 -4 12 -18 33 -31 47 -13 14 -30 45 -39 69 -18 51 -18 51 -6 51 5 0 11
-13 14 -30z m-135 -10 c-14 -4 -32 -11 -40 -15 -7 -3 -4 1 6 9 11 9 29 16 40
15 17 -1 16 -2 -6 -9z m-1015 -17 c18 -9 57 -17 89 -17 31 0 51 -4 45 -8 -22
-14 -131 -9 -155 8 -20 14 -30 34 -17 34 4 0 20 -7 38 -17z m430 -30 c-9 -16
-18 -29 -19 -31 -1 -2 -14 4 -28 13 -17 11 -37 15 -54 12 -15 -3 -34 -2 -42 4
-10 6 2 9 40 10 30 0 64 4 75 9 39 17 47 12 28 -17z m74 -36 l1 -62 -11 55
c-8 37 -9 57 -2 62 5 4 10 8 10 8 0 0 1 -28 2 -63z m532 49 c-2 -2 -15 -9 -29
-15 -24 -11 -24 -11 -6 3 16 13 49 24 35 12z m-989 -30 c0 -7 -71 -49 -75 -44
-2 2 -2 14 2 26 4 17 13 22 39 22 19 0 34 -2 34 -4z m303 -56 c12 -13 15 -19
7 -13 -44 31 -107 19 -177 -33 -38 -27 -27 4 15 46 36 36 39 37 85 30 31 -4
56 -15 70 -30z m750 33 c-7 -2 -21 -2 -30 0 -10 3 -4 5 12 5 17 0 24 -2 18 -5z
m-1061 -69 c-34 -30 -89 -75 -122 -100 -60 -44 -79 -65 -39 -44 11 6 25 9 32
7 7 -2 -6 -12 -28 -21 -22 -9 -61 -31 -88 -48 -26 -17 -50 -28 -53 -25 -3 3 7
12 23 20 15 8 39 27 53 42 14 15 59 52 100 83 41 31 93 76 116 99 22 24 46 43
54 43 7 0 -14 -25 -48 -56z m290 -11 c35 -33 35 -47 2 -62 -30 -13 -144 -27
-144 -17 0 13 29 62 43 74 12 10 16 8 20 -9 8 -32 42 -21 42 14 -1 34 2 34 37
0z m843 0 c14 -15 25 -38 25 -51 0 -13 14 -37 30 -54 36 -36 34 -47 -3 -18
-14 11 -32 41 -41 67 -9 25 -23 55 -33 65 -9 10 -13 18 -10 18 3 0 18 -12 32
-27z m-683 -38 c-12 -14 -20 -40 -20 -61 0 -43 -8 -54 -14 -20 -5 27 44 145
50 120 2 -8 -5 -25 -16 -39z m781 26 c-6 -3 -13 -13 -16 -21 -4 -11 -6 -9 -6
6 -1 24 22 51 28 33 2 -6 -1 -14 -6 -18z m218 -2 c39 -39 7 -140 -56 -178 -55
-32 -64 -25 -14 10 60 43 69 56 69 104 0 58 -11 63 -30 13 l-16 -43 -64 0
c-63 0 -65 1 -65 26 l-1 26 31 -18 c34 -22 75 -25 93 -7 7 7 12 29 12 50 0 43
11 47 41 17z m-333 -16 c6 -16 13 -41 15 -58 3 -16 9 -39 12 -50 6 -16 3 -15
-16 7 -13 14 -31 28 -39 31 -10 4 -7 6 8 6 12 1 22 5 22 10 0 16 -38 23 -62
11 -22 -11 -22 -11 -3 5 11 9 28 14 37 11 10 -2 20 -1 22 3 7 10 -18 38 -39
44 -16 4 -14 5 6 6 20 1 29 -6 37 -26z m-1438 -28 c9 -27 19 -37 41 -42 44 -8
24 -23 -32 -23 -31 0 -48 -4 -44 -10 3 -5 2 -10 -4 -10 -5 0 -14 7 -19 17 -9
14 -10 14 -16 -5 -11 -33 -26 -26 -26 12 0 24 9 43 29 65 38 40 57 39 71 -4z
m1520 0 c14 -19 14 -19 -2 -6 -10 7 -18 18 -18 24 0 6 1 8 3 6 1 -2 9 -13 17
-24z m-701 6 c7 -5 12 -14 9 -21 -2 -7 -10 -4 -22 9 -19 21 -12 28 13 12z m58
-26 c9 -24 -1 -27 -15 -5 -8 13 -8 20 -2 20 6 0 13 -7 17 -15z m873 -35 c-18
-45 -72 -73 -144 -77 l-61 -3 48 16 c26 8 47 19 47 24 0 5 -7 7 -16 3 -12 -4
-15 -2 -12 8 3 10 21 14 58 14 54 1 79 18 81 54 0 11 2 12 6 3 3 -7 0 -26 -7
-42z m-185 30 c3 -5 2 -10 -4 -10 -5 0 -13 5 -16 10 -3 6 -2 10 4 10 5 0 13
-4 16 -10z m-740 -69 c-3 -12 -13 -21 -21 -21 -17 0 -18 14 -3 42 14 26 34 9
24 -21z m535 24 c-7 -8 -17 -15 -22 -15 -6 0 -5 7 2 15 7 8 17 15 22 15 6 0 5
-7 -2 -15z m-956 -21 c3 -9 -1 -28 -9 -44 -30 -58 -16 -145 53 -327 22 -56 35
-100 30 -97 -21 13 -95 221 -106 299 -12 86 -4 195 13 189 7 -3 16 -12 19 -20z
m1003 16 c-16 -5 -34 -12 -41 -17 -6 -4 -3 0 7 10 11 9 29 17 41 16 17 -1 16
-2 -7 -9z m38 -30 c3 -5 -3 -10 -13 -10 -11 0 -25 -7 -32 -15 -7 -8 -20 -15
-29 -15 -12 1 -9 7 12 25 30 26 52 32 62 15z m75 -10 c8 -5 11 -10 5 -10 -5 0
-17 5 -25 10 -8 5 -10 10 -5 10 6 0 17 -5 25 -10z m-44 -26 c-3 -8 12 -25 39
-44 25 -17 45 -38 45 -46 0 -10 -20 2 -55 32 -30 26 -55 49 -55 50 0 14 14 33
22 28 5 -3 7 -12 4 -20z m-570 -6 l19 -21 -30 15 c-32 17 -93 14 -110 -6 -19
-21 -55 -49 -55 -43 0 4 13 21 29 39 25 28 36 33 79 35 39 2 53 -2 68 -19z
m-986 -9 c24 -20 24 -20 3 -14 -15 4 -23 2 -23 -6 0 -8 -7 -5 -20 6 -11 10
-20 21 -20 24 0 15 37 8 60 -10z m1707 -5 c-3 -3 -12 -4 -19 -1 -8 3 -5 6 6 6
11 1 17 -2 13 -5z m-777 -41 c-8 -3 -37 -17 -64 -30 -26 -13 -45 -20 -41 -14
10 17 77 50 100 50 14 0 16 -2 5 -6z m86 -29 c18 -15 18 -15 -3 -9 -13 4 -36
7 -53 7 -16 1 -30 5 -30 10 0 14 65 9 86 -8z m-911 -47 c-20 -47 -19 -116 1
-147 14 -22 12 -22 -10 3 -34 36 -36 104 -5 154 27 43 34 38 14 -10z m1500 33
c3 -5 2 -10 -4 -10 -5 0 -13 5 -16 10 -3 6 -2 10 4 10 5 0 13 -4 16 -10z m89
-33 c26 5 27 4 17 -16 -13 -23 -26 -27 -36 -11 -3 6 -11 10 -16 10 -6 0 -7 -5
-3 -12 5 -7 2 -9 -9 -5 -9 3 -17 1 -19 -5 -2 -6 -10 -3 -17 6 -12 14 -11 16 5
10 18 -7 18 -6 -1 17 l-20 24 21 -17 c29 -25 41 -22 18 4 l-19 22 26 -16 c15
-10 36 -14 53 -11z m-1244 -86 c0 -11 -4 -9 -15 5 -15 19 -15 19 -35 -5 -15
-18 -20 -19 -20 -7 0 9 9 25 21 37 20 20 21 20 34 2 8 -10 15 -24 15 -32z
m1791 21 c13 -10 33 -22 44 -26 18 -6 16 -9 -13 -23 -17 -8 -32 -22 -32 -29 0
-17 -26 -19 -36 -3 -10 16 -64 -41 -64 -68 0 -27 -12 -29 -45 -7 -13 9 -29 13
-34 10 -6 -4 -15 3 -21 14 -14 26 18 103 51 121 61 32 117 36 150 11z m-1824
-86 c-2 -45 2 -59 22 -80 25 -26 41 -26 41 0 0 9 -7 14 -17 12 -15 -2 -19 6
-21 41 -2 25 2 49 9 55 9 8 10 0 4 -38 -5 -41 -4 -48 8 -43 8 3 25 -5 37 -18
18 -19 20 -27 11 -39 -26 -31 -49 -25 -86 23 -32 40 -36 51 -30 85 11 75 25
76 22 2z m1209 -67 c13 -7 22 -14 20 -16 -15 -15 -86 62 -86 92 0 6 10 -6 22
-27 11 -20 31 -42 44 -49z m-15 -34 c11 -4 18 -9 16 -12 -7 -7 -77 27 -77 37
0 5 -3 17 -7 27 -4 10 6 4 21 -14 15 -18 36 -35 47 -38z m-1281 30 c-7 -8 -20
-15 -28 -15 -13 0 -12 3 4 15 25 19 40 19 24 0z m550 -25 c-8 -5 -19 -10 -25
-10 -5 0 -3 5 5 10 8 5 20 10 25 10 6 0 3 -5 -5 -10z m683 -12 c44 -32 121
-31 167 2 23 16 30 18 21 6 -48 -58 -172 -60 -220 -3 -19 24 -5 21 32 -5z
m-778 -29 c-33 -16 -73 -29 -90 -28 -23 0 -16 5 30 18 33 9 69 22 80 29 11 6
25 11 30 11 6 0 -17 -14 -50 -30z m708 -4 c10 -20 32 -42 54 -54 33 -17 35
-20 14 -21 -16 0 -21 -4 -17 -15 7 -20 -7 -19 -27 3 -13 14 -57 105 -57 118 0
16 19 -2 33 -31z m143 -35 c27 0 62 7 77 15 21 10 27 11 24 2 -17 -53 -185
-47 -222 9 l-17 26 45 -26 c31 -18 58 -26 93 -26z m-146 -70 c5 0 10 -4 10
-10 0 -26 -36 -6 -52 28 -31 68 -31 78 1 30 17 -27 35 -48 41 -48z m-856 -49
c14 -42 28 -94 32 -116 4 -22 15 -64 25 -94 24 -68 23 -76 0 -31 -11 19 -33
91 -51 160 -18 69 -39 137 -46 152 -18 35 -17 48 1 24 8 -10 26 -53 39 -95z
m-245 19 c23 0 52 5 64 11 21 10 21 10 3 -5 -44 -35 -141 -11 -164 39 -11 24
-9 23 21 -9 29 -30 41 -36 76 -36z m999 5 l23 -40 -26 28 c-14 15 -25 35 -25
44 0 19 0 19 28 -32z m-28 -25 c6 -11 8 -20 6 -20 -3 0 -10 9 -16 20 -6 11 -8
20 -6 20 3 0 10 -9 16 -20z m-763 -85 c-18 -16 -39 -25 -60 -24 l-32 1 34 8
c18 4 40 15 49 24 9 9 21 16 27 16 5 0 -3 -12 -18 -25z m1640 -52 c5 -15 -28
-26 -41 -13 -8 8 -7 14 4 20 17 11 32 8 37 -7z m163 -73 c0 -11 -7 -20 -15
-20 -15 0 -21 21 -8 33 12 13 23 7 23 -13z m-1740 -91 c6 -51 13 -110 15 -129
l5 -35 -14 30 c-14 29 -34 246 -23 234 4 -3 11 -48 17 -100z m1436 82 c-5 -8
-50 -26 -111 -45 -11 -3 7 7 40 23 64 32 80 37 71 22z m-186 -22 c0 -5 -7 -9
-15 -9 -15 0 -20 12 -9 23 8 8 24 -1 24 -14z m-255 -14 c-44 -14 -114 -29
-156 -35 -42 -6 -90 -15 -108 -20 -19 -5 -31 -5 -31 1 0 5 1 9 3 9 23 1 244
44 277 54 25 8 56 15 70 15 14 0 -11 -11 -55 -24z m510 -65 c-67 -30 -267
-101 -273 -96 -7 7 25 20 168 70 135 47 168 55 105 26z m-2140 -50 c-3 -5 -13
-10 -21 -10 -8 0 -12 5 -9 10 3 6 13 10 21 10 8 0 12 -4 9 -10z m1525 -20
c-14 -4 -36 -8 -50 -8 -22 0 -22 1 5 8 17 4 39 8 50 8 16 0 15 -2 -5 -8z m314
-31 c-10 -12 -32 -28 -49 -36 -27 -13 -26 -11 10 21 44 39 69 48 39 15z m486
1 c0 -5 -4 -10 -10 -10 -5 0 -10 5 -10 10 0 6 5 10 10 10 6 0 10 -4 10 -10z"/>
<path d="M1220 1730 c0 -5 4 -10 9 -10 6 0 13 5 16 10 3 6 -1 10 -9 10 -9 0
-16 -4 -16 -10z"/>
<path d="M1140 1479 c-34 -13 -100 -60 -100 -70 0 -4 26 1 57 12 63 21 111 26
161 15 42 -10 41 -3 -5 29 -40 26 -71 30 -113 14z"/>
<path d="M1119 1396 c-61 -32 -89 -62 -89 -97 0 -19 39 -71 48 -65 4 2 34 -2
67 -9 33 -7 50 -13 37 -14 -13 -1 -20 -5 -17 -11 7 -12 215 -5 216 7 0 4 -8
11 -18 15 -13 6 -11 7 7 3 25 -4 26 -3 25 48 -1 81 -26 113 -109 141 -70 23
-95 20 -167 -18z m192 -16 c35 -19 59 -54 59 -90 0 -28 -7 -25 -61 25 -62 58
-105 62 -150 14 -16 -17 -29 -37 -29 -44 0 -17 -17 -28 -30 -20 -17 10 30 84
75 116 44 33 69 32 136 -1z m-72 -93 l18 22 34 -35 33 -34 -81 0 c-45 0 -85 4
-88 10 -3 5 2 20 12 33 l17 24 18 -21 18 -21 19 22z"/>
<path d="M1255 1370 c3 -5 8 -10 11 -10 2 0 4 5 4 10 0 6 -5 10 -11 10 -5 0
-7 -4 -4 -10z"/>
<path d="M1325 1330 c3 -5 11 -10 16 -10 6 0 7 5 4 10 -3 6 -11 10 -16 10 -6
0 -7 -4 -4 -10z"/>
<path d="M1287 943 c-10 -10 -8 -96 3 -113 16 -25 22 -4 10 39 -8 29 -8 47 0
61 10 19 1 28 -13 13z"/>
<path d="M1320 2498 c17 -35 30 -70 30 -79 0 -9 9 -28 21 -43 17 -21 29 -26
68 -26 78 0 86 -12 86 -131 0 -89 2 -103 19 -113 45 -26 75 -59 86 -91 19 -58
-7 -265 -39 -320 -26 -43 -35 -95 -16 -95 8 0 15 8 15 18 0 22 27 48 55 54 18
3 20 10 18 93 -1 50 -2 129 -2 177 0 106 -16 150 -66 179 -45 27 -55 46 -54
101 l1 43 10 -37 c9 -34 25 -52 96 -110 33 -27 46 -91 32 -160 -8 -42 -8 -68
0 -98 17 -62 3 -209 -22 -237 -15 -15 -19 -29 -14 -47 8 -33 25 -34 18 -1 -3
17 4 34 22 55 14 18 26 39 26 49 0 9 16 50 36 91 50 103 71 166 79 229 3 30
11 63 16 73 6 10 17 56 25 102 8 47 25 104 40 129 23 41 24 54 22 148 -3 93
-5 104 -22 107 -15 3 -17 0 -11 -14 4 -11 10 -57 12 -104 5 -79 3 -89 -26
-150 -17 -36 -31 -70 -31 -76 0 -6 -7 -18 -16 -25 -15 -12 -16 -10 -9 21 3 19
20 64 36 99 32 70 37 130 17 206 l-12 45 -98 0 c-95 0 -98 -1 -99 -22 -2 -47
3 -74 19 -97 46 -65 52 -79 52 -123 0 -31 9 -63 25 -94 14 -26 25 -57 25 -70
0 -12 5 -44 11 -71 15 -64 -8 -169 -61 -278 -44 -91 -42 -58 3 55 29 70 31 84
30 194 -1 108 -3 121 -24 150 -17 22 -25 51 -30 99 -4 49 -12 74 -27 90 -28
30 -42 70 -42 123 0 33 -4 44 -16 44 -13 0 -15 -7 -9 -42 19 -109 22 -170 13
-258 -5 -52 -11 -97 -14 -99 -14 -14 -20 27 -11 82 9 58 -4 263 -20 303 -4 11
-37 14 -154 14 l-148 0 29 -62z"/>
<path d="M2536 2415 c-23 -62 -62 -132 -91 -165 -12 -14 -36 -70 -53 -126 -20
-64 -43 -115 -63 -140 -17 -21 -47 -64 -67 -94 -58 -91 -121 -158 -201 -215
-42 -29 -88 -66 -103 -82 -31 -32 -62 -109 -47 -118 5 -4 7 -35 5 -71 l-4 -64
33 29 c19 16 43 32 54 36 24 7 25 18 9 78 -11 41 -9 47 21 100 35 61 87 108
148 133 60 25 198 121 210 146 7 13 19 47 28 76 10 29 19 52 21 49 9 -8 -35
-141 -53 -158 -22 -23 -107 -77 -187 -119 -33 -18 -66 -38 -74 -46 -7 -8 -21
-18 -30 -23 -9 -5 -30 -34 -46 -64 l-30 -54 17 -55 c16 -48 16 -58 3 -89 -8
-18 -26 -45 -40 -58 -14 -14 -26 -29 -26 -34 0 -5 13 5 29 22 16 17 34 31 40
31 7 0 11 6 10 13 -3 26 2 37 16 37 8 0 29 12 47 28 51 43 68 55 68 49 0 -3
-26 -27 -57 -53 -32 -26 -57 -53 -55 -61 2 -8 -4 -26 -13 -40 -16 -23 -16 -24
3 -14 11 6 22 21 26 34 5 23 42 47 71 47 9 0 15 -10 15 -24 0 -14 4 -28 10
-31 5 -3 9 2 8 12 -4 56 32 113 73 113 15 0 19 7 19 31 0 65 60 124 133 132
24 2 43 11 53 25 8 12 22 22 30 22 8 0 14 6 13 13 -4 30 3 48 26 69 l25 24 -2
349 -3 350 -19 -50z m-51 -511 c-27 -64 -125 -189 -179 -227 -19 -13 -12 -2
19 28 56 55 138 166 154 208 6 15 13 27 16 27 3 0 -1 -16 -10 -36z m4 -102
c-30 -33 -68 -77 -86 -99 -23 -29 -46 -45 -84 -57 -74 -24 -97 -43 -110 -86
-8 -25 -33 -59 -72 -97 l-61 -58 47 55 c26 30 58 78 72 106 21 44 34 56 78 77
28 13 61 27 73 31 11 3 58 47 103 96 45 50 85 90 88 90 3 0 -18 -26 -48 -58z
m-519 -347 c-13 -14 -26 -23 -28 -20 -4 4 38 44 47 45 3 0 -6 -11 -19 -25z"/>
<path d="M1371 2092 c-18 -33 -13 -87 9 -107 24 -22 26 -13 3 21 -13 21 -14
31 -5 62 13 41 9 54 -7 24z"/>
<path d="M18 2052 c-16 -3 -18 -19 -18 -157 l0 -154 32 6 c18 3 42 16 54 28
32 34 77 40 124 17 l40 -20 13 26 c15 33 55 54 77 42 14 -8 17 -3 18 32 l2 41
-71 -7 c-39 -3 -75 -9 -80 -12 -6 -3 -20 -3 -33 0 -17 4 -27 20 -42 63 -10 32
-26 65 -34 74 -16 17 -54 27 -82 21z"/>
<path d="M42 1718 l-42 -11 2 -173 c3 -171 3 -173 26 -179 12 -3 31 -14 42
-25 11 -11 20 -15 20 -10 0 6 15 19 33 30 28 18 29 20 10 20 -13 0 -23 5 -23
10 0 6 -11 22 -25 36 l-26 26 22 34 c11 19 34 41 51 50 16 9 28 18 25 21 -3 2
-15 -1 -27 -7 -29 -15 -40 0 -40 53 0 45 21 90 52 111 21 15 21 16 3 16 -11 0
-29 2 -40 4 -11 2 -39 -1 -63 -6z"/>
<path d="M2534 1661 c-32 -26 -57 -68 -45 -76 6 -3 11 -1 11 6 0 7 14 28 32
46 34 35 36 52 2 24z"/>
<path d="M1450 1630 c0 -5 5 -10 10 -10 6 0 10 5 10 10 0 6 -4 10 -10 10 -5 0
-10 -4 -10 -10z"/>
<path d="M2532 1579 c-13 -16 -72 -49 -87 -49 -2 0 -6 8 -8 18 -3 9 -5 0 -6
-22 -1 -35 -3 -38 -26 -34 -18 4 -25 1 -25 -11 0 -9 -6 -26 -14 -37 -8 -11
-16 -31 -18 -44 -2 -20 -10 -26 -38 -28 -50 -5 -73 -29 -67 -68 5 -30 3 -33
-29 -38 -19 -4 -34 -11 -34 -16 0 -6 -9 -10 -19 -10 -11 0 -22 -9 -26 -19 -10
-32 -32 -46 -50 -31 -12 10 -15 10 -15 0 0 -7 -7 -10 -15 -6 -8 3 -15 1 -15
-5 0 -6 -7 -17 -15 -25 -23 -24 -18 -53 15 -81 17 -13 30 -35 30 -46 1 -15 5
-9 15 17 25 72 88 116 166 116 20 0 30 7 39 31 14 32 59 71 101 87 21 8 25 16
22 39 -2 16 4 41 16 60 20 32 85 73 116 73 12 0 15 14 15 75 0 41 -2 75 -5 75
-3 0 -13 -9 -23 -21z"/>
<path d="M2303 1420 c-18 -28 -16 -44 3 -26 8 9 14 23 12 31 -2 13 -6 12 -15
-5z"/>
<path d="M2526 1330 c-14 -18 -29 -44 -32 -58 -10 -48 -13 -52 -36 -52 -57 0
-122 -69 -134 -142 -5 -31 -11 -38 -30 -38 -30 0 -72 -19 -78 -36 -3 -8 6 -6
27 6 18 11 43 20 57 20 22 0 28 7 38 45 15 57 77 121 126 130 29 6 35 12 40
40 4 18 18 50 32 70 31 47 25 56 -10 15z"/>
<path d="M7 1303 c-4 -3 -7 -11 -7 -17 0 -6 5 -5 12 2 6 6 9 14 7 17 -3 3 -9
2 -12 -2z"/>
<path d="M2000 1050 c0 -5 4 -10 9 -10 6 0 13 5 16 10 3 6 -1 10 -9 10 -9 0
-16 -4 -16 -10z"/>
<path d="M130 935 c-7 -9 -11 -18 -8 -20 3 -3 11 1 18 10 7 9 11 18 8 20 -3 3
-11 -1 -18 -10z"/>
<path d="M4 897 c3 -10 6 -24 6 -30 0 -8 4 -7 12 1 15 15 74 16 83 2 3 -5 12
-10 18 -10 7 1 1 10 -13 21 -18 15 -33 19 -56 16 -18 -3 -37 0 -44 6 -10 10
-12 8 -6 -6z"/>
<path d="M1926 643 c-15 -8 -34 -12 -42 -9 -8 3 -14 1 -14 -3 0 -5 6 -11 14
-14 9 -3 12 -15 9 -31 -3 -15 -1 -26 6 -26 6 0 11 10 11 23 0 33 14 48 51 56
28 6 30 8 13 13 -11 3 -33 -1 -48 -9z"/>
<path d="M55 596 c-11 -9 -28 -16 -37 -16 -12 0 -18 -8 -18 -25 0 -17 4 -23
14 -19 30 11 94 -16 130 -56 20 -22 36 -46 36 -53 0 -10 17 -14 65 -13 56 1
68 -2 90 -25 26 -26 49 -109 27 -95 -7 4 -10 2 -6 -7 8 -22 64 -16 89 9 15 15
31 21 46 18 18 -3 16 -1 -7 10 -17 8 -34 24 -37 36 -4 14 -10 18 -22 14 -16
-6 -16 -5 -1 24 21 40 22 39 -19 46 -19 4 -35 12 -35 19 0 8 -3 9 -8 1 -12
-18 -42 -25 -42 -9 0 21 -33 88 -50 103 -9 7 -30 10 -52 7 -20 -2 -38 0 -40 5
-2 5 -21 11 -43 12 -22 2 -45 9 -50 16 -8 10 -14 10 -30 -2z"/>
<path d="M1842 554 c-22 -15 -31 -67 -14 -78 5 -3 7 8 4 23 -3 22 3 33 23 50
32 24 21 29 -13 5z"/>
<path d="M1697 459 c-20 -17 -37 -26 -37 -20 0 15 -41 24 -53 12 -8 -8 -4 -11
16 -11 14 0 30 -8 35 -17 9 -15 13 -13 37 15 15 18 41 36 58 41 29 8 30 9 7
10 -15 1 -41 -12 -63 -30z"/>
<path d="M1298 123 c-15 -49 -30 -96 -33 -105 -6 -15 -1 -18 29 -18 l36 0 0
105 c0 58 -1 105 -3 105 -1 0 -14 -39 -29 -87z"/>
<path d="M177 56 c-32 -30 -35 -56 -7 -56 14 0 20 7 20 23 0 13 5 28 12 35 24
24 0 21 -25 -2z"/>
<path d="M283 57 c-30 -33 -36 -57 -15 -57 11 0 21 13 29 37 14 46 12 49 -14
20z"/>
<path d="M2480 29 l-65 -28 66 -1 c61 0 67 2 73 23 12 45 14 45 -74 6z"/>
</g>
</svg>
