<?xml version="1.0" standalone="no"?>
<!DOCTYPE svg PUBLIC "-//W3C//DTD SVG 20010904//EN"
 "http://www.w3.org/TR/2001/REC-SVG-20010904/DTD/svg10.dtd">
<svg version="1.0" xmlns="http://www.w3.org/2000/svg"
 width="256.000000pt" height="256.000000pt" viewBox="0 0 256.000000 256.000000"
 preserveAspectRatio="xMidYMid meet">
<metadata>
Created by potrace 1.14, written by Peter Selinger 2001-2017
</metadata>
<g transform="translate(0.000000,256.000000) scale(0.100000,-0.100000)"
fill="#000000" stroke="none">
<path d="M1294 2548 c-9 -15 24 -38 44 -31 11 5 13 3 7 -8 -8 -12 -6 -12 8 -1
14 12 16 11 12 -8 -4 -19 -2 -20 12 -8 12 9 15 9 9 1 -4 -8 -1 -13 9 -13 15 0
15 -1 1 -16 -9 -8 -16 -18 -16 -22 0 -3 5 -1 12 6 13 13 39 16 37 5 -1 -5 -1
-17 1 -28 l1 -20 9 20 c8 18 9 17 9 -7 1 -15 6 -30 13 -34 7 -4 8 -3 4 4 -4 7
-2 12 3 12 6 0 11 -9 11 -21 0 -13 -4 -18 -12 -13 -7 4 -8 3 -4 -5 4 -6 11 -9
16 -6 4 3 10 2 13 -2 2 -5 2 -1 0 7 -3 10 -1 12 6 5 13 -13 23 -67 10 -60 -5
4 -6 11 -3 17 4 6 2 8 -3 5 -7 -5 -6 -21 4 -49 10 -29 11 -44 4 -46 -6 -2 -11
-8 -11 -13 0 -4 8 -5 17 -2 15 6 16 5 3 -9 -8 -9 -19 -13 -24 -10 -5 3 -7 -1
-4 -10 4 -8 2 -21 -3 -29 -5 -9 -2 -23 7 -38 9 -13 11 -20 5 -17 -6 4 -11 2
-11 -3 0 -6 4 -11 8 -11 4 0 8 -13 7 -29 0 -16 -3 -27 -6 -25 -4 2 -9 -3 -13
-11 -3 -8 -1 -17 4 -20 6 -4 10 -13 10 -21 0 -8 -4 -13 -8 -10 -4 2 -9 -4 -9
-15 -1 -10 3 -19 8 -19 5 0 3 -11 -6 -24 -14 -21 -14 -25 0 -36 8 -7 12 -17 8
-23 -3 -5 0 -15 8 -21 15 -12 22 -89 8 -80 -5 3 -6 -2 -3 -10 3 -9 11 -13 18
-9 6 4 5 -1 -3 -10 -12 -15 -12 -22 -1 -42 7 -13 18 -21 24 -18 8 5 8 3 0 -8
-5 -8 -8 -25 -6 -39 2 -14 4 -37 5 -52 1 -16 6 -28 11 -28 5 0 3 -6 -3 -14 -9
-11 -10 -20 -1 -35 6 -12 8 -21 4 -21 -3 0 -1 -6 5 -14 6 -7 9 -21 5 -29 -4
-10 4 -25 20 -40 14 -13 26 -28 26 -33 0 -5 9 -15 21 -22 12 -8 18 -19 15 -28
-3 -8 1 -17 9 -20 8 -4 12 -10 9 -15 -3 -5 -2 -9 3 -8 20 3 33 -2 33 -13 0 -7
13 -27 28 -43 15 -17 24 -26 20 -21 -14 18 -8 28 7 12 8 -8 15 -20 15 -26 0
-6 4 -9 9 -6 5 3 12 -1 15 -10 4 -10 2 -13 -7 -9 -6 4 2 -5 19 -19 18 -14 35
-37 38 -51 4 -14 11 -23 16 -20 6 4 7 11 4 17 -4 6 -2 8 4 5 5 -4 8 -17 5 -30
-3 -12 -3 -19 2 -15 8 7 45 -25 64 -57 l13 -20 -6 20 c-6 20 -6 20 9 0 9 -11
13 -26 10 -34 -4 -11 -3 -11 9 -2 11 10 17 8 29 -9 11 -16 16 -18 20 -8 3 8 6
5 6 -7 1 -17 3 -17 11 -5 8 12 10 12 10 -5 0 -15 2 -17 9 -6 5 8 11 9 15 3 4
-6 15 -9 26 -7 11 2 20 0 20 -5 0 -5 17 -12 38 -16 49 -8 85 -32 78 -50 -3 -9
-1 -12 5 -9 5 4 7 16 4 28 -4 15 -3 18 3 9 5 -8 13 -13 18 -12 5 1 9 -3 11
-10 1 -7 0 -7 -4 0 -3 7 -10 4 -18 -7 -7 -10 -22 -18 -32 -19 -32 -1 -107 -16
-147 -30 -22 -8 -51 -16 -65 -19 -14 -3 -37 -7 -51 -10 -65 -14 -86 -18 -100
-19 -9 -1 -20 -5 -25 -8 -6 -3 -26 -9 -45 -14 -46 -10 -39 -9 -85 -21 -42 -12
-120 -30 -170 -39 -43 -8 -60 -12 -60 -14 0 -1 -11 -3 -25 -6 -24 -3 -82 -18
-180 -45 -61 -16 -84 -19 -234 -24 -71 -2 -142 -6 -157 -9 -16 -2 -29 -1 -29
4 0 10 -31 18 -47 13 -7 -3 -13 -9 -13 -15 0 -6 8 -5 18 3 15 12 16 12 4 -2
-10 -13 -21 -15 -58 -8 -25 5 -50 12 -56 15 -6 4 -68 8 -137 10 -69 1 -126 3
-126 4 0 1 -16 3 -36 5 -20 1 -47 6 -60 11 -13 4 -33 9 -44 10 -40 5 -91 13
-115 18 -14 3 -35 8 -48 11 -12 3 -32 7 -44 10 -12 2 -24 8 -27 13 -3 5 -18
12 -34 16 l-27 6 0 -335 0 -335 1280 0 1280 0 0 1280 0 1280 -630 0 c-454 0
-631 -4 -636 -12z m39 -11 c-2 -4 -5 -7 -8 -7 -3 0 -9 0 -15 0 -5 0 -10 4 -10
9 0 5 8 8 18 7 9 -2 16 -6 15 -9z m179 -379 c-9 -9 -9 -15 1 -27 10 -14 10
-14 -5 -3 -14 11 -15 17 -5 32 6 11 13 17 16 14 3 -2 -1 -10 -7 -16z m-16
-253 c-3 -8 0 -15 6 -15 6 0 9 -3 5 -6 -10 -11 -26 6 -20 21 3 8 7 15 10 15 3
0 3 -7 -1 -15z"/>
<path d="M1812 1086 c7 -8 15 -12 17 -11 5 6 -10 25 -20 25 -5 0 -4 -6 3 -14z"/>
<path d="M1895 1000 c3 -5 8 -10 11 -10 2 0 4 5 4 10 0 6 -5 10 -11 10 -5 0
-7 -4 -4 -10z"/>
</g>
</svg>
