<?xml version="1.0" standalone="no"?>
<!DOCTYPE svg PUBLIC "-//W3C//DTD SVG 20010904//EN"
 "http://www.w3.org/TR/2001/REC-SVG-20010904/DTD/svg10.dtd">
<svg version="1.0" xmlns="http://www.w3.org/2000/svg"
 width="790.000000pt" height="790.000000pt" viewBox="0 0 790.000000 790.000000"
 preserveAspectRatio="xMidYMid meet">
<metadata>
Created by potrace 1.14, written by Peter Selinger 2001-2017
</metadata>
<g transform="translate(0.000000,790.000000) scale(0.100000,-0.100000)"
fill="#000000" stroke="none">
<path d="M2798 5305 c-629 -631 -1142 -1152 -1142 -1160 1 -7 -4 -11 -10 -9
-7 3 -21 -5 -31 -16 -15 -17 -17 -23 -6 -29 11 -7 11 -10 0 -14 -11 -5 -10 -6
1 -4 8 1 26 -9 39 -22 22 -22 22 -23 2 -16 -12 4 -21 2 -21 -4 0 -6 -18 -18
-40 -27 -22 -9 -40 -21 -40 -26 0 -6 6 -6 14 1 11 10 16 8 21 -8 3 -12 11 -21
16 -21 6 0 7 6 3 13 -6 9 -4 9 7 1 8 -6 29 -11 48 -12 30 -2 32 -1 20 14 -12
14 -10 15 19 11 18 -3 30 -2 28 1 -2 4 2 18 10 32 10 19 13 21 14 8 0 -10 3
-17 8 -16 19 4 39 -15 35 -33 -4 -16 0 -19 26 -19 18 0 30 4 26 9 -3 5 -1 13
5 16 6 4 9 1 8 -7 -2 -9 11 -14 40 -16 l42 -3 0 -1255 0 -1254 880 0 880 0 0
878 0 877 218 -2 c119 -1 232 -3 250 -3 l32 0 0 -875 0 -875 880 0 880 0 0
1255 0 1255 252 0 252 0 -1254 1250 c-690 688 -1257 1250 -1261 1250 -4 0
-522 -515 -1151 -1145z m669 563 c-3 -7 -5 -2 -5 12 0 14 2 19 5 13 2 -7 2
-19 0 -25z m808 -447 c175 -176 323 -317 327 -315 5 3 11 -3 15 -13 3 -10 191
-204 417 -431 314 -315 413 -420 417 -443 4 -18 5 -66 3 -108 -2 -42 -4 -545
-4 -1118 l0 -1043 -370 0 -370 0 0 678 c-1 372 0 766 0 875 l1 197 -754 0
-754 0 -6 -377 c-4 -208 -7 -600 -7 -872 0 -272 -2 -496 -3 -498 -5 -4 -729
-5 -733 0 -2 2 -4 518 -4 1148 l-1 1145 748 747 c411 411 750 747 753 747 3 0
149 -144 325 -319z m470 229 c3 -5 -1 -10 -10 -10 -9 0 -13 5 -10 10 3 6 8 10
10 10 2 0 7 -4 10 -10z m-10 -31 c11 -17 0 -20 -21 -4 -17 13 -17 14 -2 15 9
0 20 -5 23 -11z m-30 -23 c18 7 25 -9 11 -22 -14 -13 -39 1 -44 26 -3 12 -1
12 9 3 6 -6 17 -9 24 -7z m6 -61 c5 4 6 -1 3 -9 -9 -24 -24 -19 -23 7 0 12 3
16 6 9 2 -6 9 -10 14 -7z m-39 -10 c0 -5 -5 -11 -11 -13 -6 -2 -11 4 -11 13 0
9 5 15 11 13 6 -2 11 -8 11 -13z m66 -100 c2 -16 1 -17 -7 -6 -5 8 -17 16 -26
17 -30 4 -28 13 1 11 20 -2 30 -8 32 -22z m-38 -105 c0 -15 3 -36 7 -46 6 -16
7 -16 14 2 5 12 6 3 5 -24 -3 -44 -15 -67 -23 -44 -3 6 -9 12 -15 12 -6 0 -8
-7 -4 -15 3 -8 1 -15 -5 -15 -6 0 -8 -8 -5 -18 4 -11 -2 -27 -13 -39 -11 -11
-17 -24 -14 -27 4 -3 -1 -6 -10 -6 -20 0 -31 16 -17 25 6 4 8 11 5 16 -4 5 -2
9 4 9 6 0 8 7 5 15 -4 8 1 26 10 40 9 13 16 31 16 38 0 8 7 27 15 44 8 16 13
39 10 51 -2 13 0 20 6 17 5 -4 9 -19 9 -35z m30 -5 c0 -8 -2 -15 -4 -15 -2 0
-6 7 -10 15 -3 8 -1 15 4 15 6 0 10 -7 10 -15z m-2360 -1101 c0 -8 -19 -13
-24 -6 -3 5 1 9 9 9 8 0 15 -2 15 -3z m-30 -23 c0 -6 -4 -12 -8 -15 -5 -3 -9
1 -9 9 0 8 4 15 9 15 4 0 8 -4 8 -9z m-701 -82 c-12 -7 -12 -9 0 -9 8 0 12 -3
8 -6 -10 -10 -26 6 -21 21 4 8 11 12 16 9 6 -4 5 -10 -3 -15z m245 -47 c3 -5
-1 -9 -9 -9 -8 0 -12 4 -9 9 3 4 7 8 9 8 2 0 6 -4 9 -8z m-69 -24 c-8 -41 -28
-50 -44 -19 -9 16 -8 18 11 13 16 -4 20 -2 16 10 -4 8 -1 15 7 15 7 0 12 -8
10 -19z m28 -3 c-3 -9 -8 -14 -10 -11 -3 3 -2 9 2 15 9 16 15 13 8 -4z m-128
-43 c-3 -3 -11 0 -18 7 -9 10 -8 11 6 5 10 -3 15 -9 12 -12z m-98 2 c-3 -3
-12 -4 -19 -1 -8 3 -5 6 6 6 11 1 17 -2 13 -5z"/>
<path d="M1569 4058 c0 -2 -2 -13 -3 -25 -2 -18 0 -20 16 -12 18 10 24 20 11
18 -20 -3 -26 2 -13 11 10 6 11 10 3 10 -7 0 -13 -1 -14 -2z"/>
<path d="M1521 4026 c-9 -10 -9 -16 -1 -21 17 -10 37 12 24 25 -8 8 -15 6 -23
-4z"/>
<path d="M1494 3993 c10 -11 37 -12 30 -2 -3 5 -12 9 -21 9 -9 0 -13 -3 -9 -7z"/>
<path d="M1490 3966 c0 -2 7 -7 16 -10 8 -3 12 -2 9 4 -6 10 -25 14 -25 6z"/>
<path d="M1560 3960 c-13 -8 -12 -10 3 -10 9 0 17 5 17 10 0 12 -1 12 -20 0z"/>
</g>
</svg>
