<?xml version="1.0" standalone="no"?>
<!DOCTYPE svg PUBLIC "-//W3C//DTD SVG 20010904//EN"
 "http://www.w3.org/TR/2001/REC-SVG-20010904/DTD/svg10.dtd">
<svg version="1.0" xmlns="http://www.w3.org/2000/svg"
 width="256.000000pt" height="256.000000pt" viewBox="0 0 256.000000 256.000000"
 preserveAspectRatio="xMidYMid meet">
<metadata>
Created by potrace 1.14, written by Peter Selinger 2001-2017
</metadata>
<g transform="translate(0.000000,256.000000) scale(0.100000,-0.100000)"
fill="#000000" stroke="none">
<path d="M1220 2100 c-50 -9 -711 -308 -741 -336 -25 -23 -24 -56 3 -81 13
-11 174 -89 358 -174 l335 -154 105 1 105 0 135 63 c74 34 180 83 235 108 229
105 310 144 327 160 23 21 23 55 0 77 -18 15 -373 183 -607 286 -116 51 -180
64 -255 50z"/>
<path d="M584 1377 c-106 -49 -124 -63 -124 -97 0 -39 8 -44 279 -168 492
-224 446 -207 541 -206 82 0 89 2 205 56 66 31 165 76 220 100 187 83 230 103
310 143 72 36 80 43 83 71 2 25 -3 36 -25 52 -37 26 -170 82 -195 82 -10 0
-45 -12 -76 -26 -31 -14 -106 -49 -167 -76 -271 -124 -263 -122 -355 -121
l-85 0 -245 111 c-135 62 -257 112 -270 112 -14 0 -57 -15 -96 -33z"/>
<path d="M680 972 c-48 -14 -178 -78 -197 -95 -28 -25 -29 -58 -4 -81 10 -9
88 -49 172 -88 85 -38 237 -109 339 -156 l185 -86 105 0 105 -1 130 61 c72 34
155 73 185 87 30 14 124 58 209 97 85 38 163 78 173 87 23 21 23 55 -1 77 -21
19 -122 70 -182 91 -39 14 -50 10 -264 -89 -255 -119 -335 -141 -429 -117 -24
6 -122 46 -218 89 -299 136 -286 131 -308 124z"/>
</g>
</svg>
