<?xml version="1.0" standalone="no"?>
<!DOCTYPE svg PUBLIC "-//W3C//DTD SVG 20010904//EN"
 "http://www.w3.org/TR/2001/REC-SVG-20010904/DTD/svg10.dtd">
<svg version="1.0" xmlns="http://www.w3.org/2000/svg"
 width="1024.000000pt" height="1024.000000pt" viewBox="0 0 1024.000000 1024.000000"
 preserveAspectRatio="xMidYMid meet">
<metadata>
Created by potrace 1.14, written by Peter Selinger 2001-2017
</metadata>
<g transform="translate(0.000000,1024.000000) scale(0.100000,-0.100000)"
fill="#000000" stroke="none">
<path d="M3970 6480 c-771 -774 -1145 -1156 -1145 -1170 0 -11 -7 -25 -15 -30
-12 -8 -12 -10 -1 -10 8 0 12 -3 8 -6 -10 -10 -26 6 -21 21 4 8 10 12 15 9 5
-3 9 0 9 5 0 17 -15 13 -36 -10 -14 -16 -16 -22 -5 -28 11 -7 11 -10 0 -14
-11 -5 -10 -6 1 -4 8 1 26 -9 39 -22 22 -22 22 -23 2 -16 -12 4 -21 2 -21 -4
0 -6 -18 -18 -40 -27 -22 -9 -40 -21 -40 -26 0 -6 6 -6 14 1 11 10 16 8 20 -7
5 -14 17 -18 57 -19 44 -1 49 0 38 14 -11 13 -9 14 17 10 25 -4 30 -1 31 16 3
27 23 48 23 22 0 -17 1 -17 18 -2 10 10 24 17 32 17 9 0 10 3 1 13 -8 10 -7
14 3 14 9 0 13 -8 10 -20 -4 -24 -23 -38 -39 -30 -5 3 -4 0 3 -8 6 -7 12 -21
12 -31 0 -13 8 -18 31 -18 16 0 28 4 24 9 -3 5 -1 13 5 16 6 4 9 1 8 -7 -2 -9
11 -14 40 -16 l42 -3 0 -1255 0 -1254 880 0 880 0 0 881 0 882 31 -7 c17 -3
130 -6 250 -6 l219 0 0 -875 0 -875 880 0 880 0 0 1255 0 1255 252 0 252 0
-1256 1255 c-691 690 -1258 1255 -1260 1255 -2 0 -518 -518 -1148 -1150z m667
558 c-3 -7 -5 -2 -5 12 0 14 2 19 5 13 2 -7 2 -19 0 -25z m811 -450 c175 -175
324 -318 330 -318 7 0 12 -5 12 -12 0 -6 186 -198 413 -425 315 -316 414 -421
418 -444 4 -18 5 -66 3 -108 -2 -42 -4 -545 -4 -1118 l0 -1043 -370 0 -370 0
-1 678 c0 372 0 766 1 875 l1 197 -756 0 c-415 0 -755 -1 -756 -2 0 -2 -3
-394 -6 -873 -3 -478 -6 -871 -7 -872 -4 -4 -727 -5 -731 -1 -2 2 -5 519 -6
1148 l-1 1145 748 747 c412 411 752 747 756 745 4 -1 151 -145 326 -319z m467
232 c3 -5 -1 -10 -10 -10 -9 0 -13 5 -10 10 3 6 8 10 10 10 2 0 7 -4 10 -10z
m-10 -31 c11 -17 0 -20 -21 -4 -17 13 -17 14 -2 15 9 0 20 -5 23 -11z m-29
-22 c15 6 18 -5 6 -24 -9 -14 -35 4 -40 27 -3 12 -1 12 9 3 6 -6 18 -9 25 -6z
m5 -62 c5 4 6 -1 3 -9 -9 -24 -24 -19 -23 7 0 12 3 16 6 9 2 -6 9 -10 14 -7z
m-39 -10 c0 -5 -5 -11 -11 -13 -6 -2 -11 4 -11 13 0 9 5 15 11 13 6 -2 11 -8
11 -13z m66 -100 c2 -16 1 -17 -7 -6 -5 8 -17 16 -26 17 -30 4 -28 13 1 11 20
-2 30 -8 32 -22z m-38 -105 c0 -15 3 -36 7 -46 6 -16 7 -16 14 2 5 12 6 3 5
-24 -4 -51 -10 -59 -33 -41 -15 12 -16 12 -10 -3 3 -10 2 -18 -4 -18 -6 0 -8
-8 -5 -18 4 -12 -1 -26 -14 -37 -11 -10 -17 -22 -14 -26 3 -5 -2 -9 -10 -9
-19 0 -30 17 -16 25 6 4 8 11 5 16 -4 5 -1 9 5 9 6 0 8 5 4 11 -6 10 1 30 42
125 7 17 12 41 9 53 -2 12 0 19 6 16 5 -4 9 -19 9 -35z m27 -12 c-3 -8 -6 -5
-6 6 -1 11 2 17 5 13 3 -3 4 -12 1 -19z m-2444 -833 c-3 -9 -8 -14 -10 -11 -3
3 -2 9 2 15 9 16 15 13 8 -4z m57 -284 c0 -6 -4 -12 -8 -15 -5 -3 -9 1 -9 9 0
8 4 15 9 15 4 0 8 -4 8 -9z m-469 -134 c-10 -9 -11 -8 -5 6 3 10 9 15 12 12 3
-3 0 -11 -7 -18z m-156 -65 c-3 -3 -11 0 -18 7 -9 10 -8 11 6 5 10 -3 15 -9
12 -12z m-98 2 c-3 -3 -12 -4 -19 -1 -8 3 -5 6 6 6 11 1 17 -2 13 -5z"/>
<path d="M2737 5224 c-3 -3 -3 -13 0 -21 5 -13 2 -13 -14 -4 -16 8 -24 7 -32
-3 -14 -17 2 -31 22 -19 6 4 18 8 26 10 7 1 19 7 25 13 6 6 7 11 1 10 -22 -5
-29 1 -15 10 8 5 10 10 4 10 -6 0 -13 -3 -17 -6z"/>
<path d="M2664 5163 c10 -11 37 -12 30 -2 -3 5 -12 9 -21 9 -9 0 -13 -3 -9 -7z"/>
<path d="M2625 5130 c-3 -5 -1 -10 4 -10 6 0 11 5 11 10 0 6 -2 10 -4 10 -3 0
-8 -4 -11 -10z"/>
<path d="M2660 5136 c0 -2 7 -7 16 -10 8 -3 12 -2 9 4 -6 10 -25 14 -25 6z"/>
<path d="M2730 5130 c-13 -8 -12 -10 3 -10 9 0 17 5 17 10 0 12 -1 12 -20 0z"/>
</g>
</svg>
