<?xml version="1.0" standalone="no"?>
<!DOCTYPE svg PUBLIC "-//W3C//DTD SVG 20010904//EN"
 "http://www.w3.org/TR/2001/REC-SVG-20010904/DTD/svg10.dtd">
<svg version="1.0" xmlns="http://www.w3.org/2000/svg"
 width="256.000000pt" height="256.000000pt" viewBox="0 0 256.000000 256.000000"
 preserveAspectRatio="xMidYMid meet">
<metadata>
Created by potrace 1.14, written by Peter Selinger 2001-2017
</metadata>
<g transform="translate(0.000000,256.000000) scale(0.100000,-0.100000)"
fill="#000000" stroke="none">
<path d="M814 1900 c-34 -14 -133 -110 -178 -174 -94 -133 -143 -267 -153
-423 -14 -223 62 -432 216 -596 105 -111 214 -177 368 -223 75 -22 107 -26
213 -26 105 0 139 4 213 26 49 14 112 38 140 52 184 93 334 263 400 454 55
162 60 361 12 448 -18 31 -20 42 -10 38 18 -6 19 -1 5 25 -15 27 -27 24 -35
-11 -4 -16 -11 -30 -16 -30 -6 0 -7 -5 -4 -10 9 -15 -5 -51 -16 -44 -6 3 -8
12 -5 20 3 8 -1 14 -11 14 -9 0 -14 -3 -10 -6 11 -11 -17 -30 -39 -26 -25 4
-40 -13 -27 -31 13 -16 14 -57 2 -57 -5 0 -9 -9 -9 -21 0 -13 4 -18 13 -13 10
6 10 4 0 -7 -20 -21 -17 -50 5 -42 16 6 16 5 -1 -14 -19 -21 -37 -100 -21 -91
5 3 18 -3 28 -13 11 -11 14 -19 8 -19 -7 0 -12 -4 -12 -10 0 -21 20 -9 26 15
3 14 10 22 15 20 4 -3 6 -12 2 -20 -3 -10 1 -15 12 -15 9 0 13 5 10 10 -8 13
4 32 15 25 5 -3 4 -16 -2 -30 -6 -13 -15 -22 -19 -19 -5 3 -9 -1 -9 -8 0 -9
-3 -9 -10 2 -8 13 -11 13 -27 -2 -11 -12 -13 -18 -5 -18 7 0 10 -5 6 -11 -3
-6 0 -15 7 -20 10 -6 11 -9 2 -9 -7 0 -13 -5 -13 -11 0 -6 7 -9 14 -6 10 4 13
1 9 -9 -3 -7 -8 -14 -12 -14 -3 0 -12 -14 -20 -31 -7 -16 -16 -28 -19 -25 -2
3 1 12 8 21 10 12 10 15 -4 15 -9 0 -19 -6 -22 -14 -3 -8 -12 -17 -21 -20 -11
-5 -14 -2 -9 10 5 13 3 14 -7 6 -10 -8 -12 -6 -12 12 1 12 5 27 9 34 4 7 5 12
2 12 -11 0 -66 -93 -60 -102 4 -6 3 -8 -3 -5 -5 3 -32 -17 -59 -44 -27 -28
-68 -62 -92 -76 -23 -14 -39 -30 -35 -35 3 -7 1 -8 -5 -4 -6 4 -28 -1 -49 -10
-122 -52 -286 -60 -409 -19 -96 32 -190 92 -254 162 -62 68 -95 123 -128 216
-22 61 -26 89 -25 182 0 92 4 122 26 185 31 88 101 194 166 251 52 46 70 73
71 107 0 38 -29 83 -65 98 -38 16 -51 16 -81 4z m1236 -490 c0 -5 -2 -10 -4
-10 -3 0 -8 5 -11 10 -3 6 -1 10 4 10 6 0 11 -4 11 -10z m-45 -20 c3 -5 1 -10
-4 -10 -6 0 -11 5 -11 10 0 6 2 10 4 10 3 0 8 -4 11 -10z m-65 -25 c-7 -9 -15
-13 -17 -11 -7 7 7 26 19 26 6 0 6 -6 -2 -15z m53 -12 c-7 -2 -13 -11 -13 -19
0 -8 -4 -14 -10 -14 -5 0 -10 2 -10 4 0 2 -3 11 -6 20 -5 12 0 16 22 15 16 0
23 -3 17 -6z m-39 -28 c3 -9 -1 -18 -9 -21 -8 -4 -15 -12 -15 -19 0 -8 -5 -17
-11 -21 -7 -4 -9 0 -5 14 4 11 2 23 -4 27 -7 5 -5 12 7 21 23 17 30 17 37 -1z
m53 -27 c-3 -8 -6 -5 -6 6 -1 11 2 17 5 13 3 -3 4 -12 1 -19z m-20 -14 c13 -4
20 -10 17 -15 -3 -5 2 -6 11 -3 11 4 14 2 9 -9 -3 -9 -12 -18 -20 -21 -16 -6
-19 -36 -3 -36 5 0 8 -4 4 -10 -3 -5 -15 -6 -28 -1 -19 7 -23 5 -23 -10 0 -10
4 -19 8 -19 4 0 8 -4 8 -10 0 -14 -19 -12 -35 3 -9 9 -10 19 -3 31 9 16 8 17
-21 1 -18 -9 -31 -11 -31 -5 0 6 7 13 15 16 8 4 12 11 9 16 -5 7 5 9 25 6 33
-5 62 14 41 27 -6 3 -8 11 -5 16 4 5 -1 9 -10 9 -9 0 -13 5 -10 10 7 12 12 12
42 4z m-79 -135 c-2 -6 -8 -10 -13 -10 -5 0 -11 4 -13 10 -2 6 4 11 13 11 9 0
15 -5 13 -11z"/>
<path d="M1690 1901 c-37 -9 -68 -34 -80 -66 -12 -31 -5 -85 11 -85 6 0 7 -4
4 -10 -3 -5 0 -7 8 -4 9 3 16 -3 20 -15 7 -28 27 -27 28 2 l0 22 10 -23 c5
-13 7 -28 3 -33 -12 -20 14 -7 41 21 15 16 32 28 38 27 16 -3 19 20 2 26 -8 4
-15 2 -15 -3 0 -6 -8 -10 -17 -10 -13 0 -10 7 12 30 17 17 31 26 33 20 7 -19
22 -10 22 14 0 51 -66 99 -120 87z"/>
<path d="M1824 1812 c0 -11 9 -18 23 -18 25 -2 22 10 -5 25 -14 7 -18 5 -18
-7z"/>
<path d="M1844 1735 c-4 -8 -12 -15 -20 -15 -8 0 -11 -6 -8 -15 4 -8 1 -15 -5
-15 -6 0 -11 -5 -11 -12 0 -9 3 -9 11 -1 8 8 20 8 40 1 32 -11 36 -22 15 -44
-22 -22 -32 -17 -11 6 21 23 16 25 -20 8 -14 -6 -25 -17 -25 -25 0 -7 -7 -13
-15 -13 -8 0 -18 0 -22 0 -5 0 -8 6 -8 13 0 6 -3 14 -6 17 -3 3 -11 14 -17 25
-10 18 -11 18 -17 3 -9 -22 28 -71 58 -79 15 -3 21 -12 19 -26 -2 -12 2 -24 7
-27 6 -4 8 -13 4 -21 -3 -8 0 -15 6 -15 10 0 15 20 12 48 -1 6 7 12 18 12 13
0 21 9 26 30 5 23 12 30 31 30 25 0 33 15 12 23 -7 3 -1 6 15 6 15 1 27 2 27
4 0 2 -9 22 -20 44 -23 49 -40 63 -40 34 0 -27 -20 -27 -27 -1 -6 24 -21 26
-29 5z"/>
<path d="M1750 1690 c0 -5 4 -10 9 -10 6 0 13 5 16 10 3 6 -1 10 -9 10 -9 0
-16 -4 -16 -10z"/>
<path d="M1954 1631 c4 -5 0 -11 -6 -14 -7 -2 -10 -8 -6 -12 4 -4 13 -3 21 3
10 8 12 3 12 -29 -1 -44 -1 -43 24 -28 17 11 17 13 -1 50 -10 22 -25 39 -34
39 -8 0 -13 -4 -10 -9z"/>
<path d="M1900 1600 c0 -5 5 -10 10 -10 6 0 10 5 10 10 0 6 -4 10 -10 10 -5 0
-10 -4 -10 -10z"/>
<path d="M1916 1555 c-3 -8 -15 -15 -26 -15 -11 0 -20 -4 -20 -10 0 -5 9 -10
19 -10 25 0 32 -21 14 -39 -13 -12 -14 -11 -9 6 5 16 1 22 -19 25 -27 6 -32
-1 -13 -20 9 -9 8 -12 -5 -12 -9 0 -17 -6 -17 -14 0 -19 39 -31 53 -17 6 6 22
11 37 11 47 0 56 15 26 46 -16 18 -24 35 -20 46 7 22 -11 24 -20 3z"/>
<path d="M1841 1073 c-14 -49 -14 -53 4 -53 9 0 14 8 12 23 -1 13 3 21 10 20
8 -2 12 7 11 22 -3 38 -26 30 -37 -12z"/>
<path d="M1870 1040 c0 -5 5 -10 10 -10 6 0 10 5 10 10 0 6 -4 10 -10 10 -5 0
-10 -4 -10 -10z"/>
<path d="M1833 996 c3 -7 1 -18 -4 -23 -5 -5 5 -9 26 -9 19 0 35 2 35 6 -1 15
-19 32 -29 26 -6 -4 -11 -2 -11 3 0 6 -5 11 -11 11 -6 0 -9 -6 -6 -14z"/>
</g>
</svg>
